<svg width="24" height="25" viewBox="0 0 24 25" fill="none" xmlns="http://www.w3.org/2000/svg">
<path d="M7.2 14.3947C7.86274 14.3947 8.4 13.8292 8.4 13.1316C8.4 12.434 7.86274 11.8684 7.2 11.8684C6.53726 11.8684 6 12.434 6 13.1316C6 13.8292 6.53726 14.3947 7.2 14.3947Z" fill="#DBDBDB"/>
<path d="M13.2 13.1316C13.2 13.8292 12.6627 14.3947 12 14.3947C11.3373 14.3947 10.8 13.8292 10.8 13.1316C10.8 12.434 11.3373 11.8684 12 11.8684C12.6627 11.8684 13.2 12.434 13.2 13.1316Z" fill="#DBDBDB"/>
<path d="M16.8 14.3947C17.4627 14.3947 18 13.8292 18 13.1316C18 12.434 17.4627 11.8684 16.8 11.8684C16.1373 11.8684 15.6 12.434 15.6 13.1316C15.6 13.8292 16.1373 14.3947 16.8 14.3947Z" fill="#DBDBDB"/>
<path d="M8.4 18.1842C8.4 18.8818 7.86274 19.4474 7.2 19.4474C6.53726 19.4474 6 18.8818 6 18.1842C6 17.4866 6.53726 16.9211 7.2 16.9211C7.86274 16.9211 8.4 17.4866 8.4 18.1842Z" fill="#DBDBDB"/>
<path d="M12 19.4474C12.6627 19.4474 13.2 18.8818 13.2 18.1842C13.2 17.4866 12.6627 16.9211 12 16.9211C11.3373 16.9211 10.8 17.4866 10.8 18.1842C10.8 18.8818 11.3373 19.4474 12 19.4474Z" fill="#DBDBDB"/>
<path fill-rule="evenodd" clip-rule="evenodd" d="M7.2 1.76316C7.2 1.06554 6.66274 0.5 6 0.5C5.33726 0.5 4.8 1.06554 4.8 1.76316H2.4C1.07452 1.76316 0 2.89423 0 4.28947V21.9737C0 23.3689 1.07452 24.5 2.4 24.5H21.6C22.9255 24.5 24 23.3689 24 21.9737V4.28947C24 2.89423 22.9255 1.76316 21.6 1.76316H19.2C19.2 1.06554 18.6627 0.5 18 0.5C17.3373 0.5 16.8 1.06554 16.8 1.76316H7.2ZM2.4 6.81579V4.28947H21.6V6.81579H2.4ZM2.4 9.3421V21.9737H14.6059L21.6 14.6115V9.3421H2.4ZM21.6 18.1842L18 21.9737H21.6V18.1842Z" fill="#DBDBDB"/>
</svg>
