<svg width="40" height="40" viewBox="0 0 40 40" fill="none" xmlns="http://www.w3.org/2000/svg">
<rect width="40" height="40" rx="10" fill="#222427"/>
<g clip-path="url(#clip0_432_885)">
<path d="M20 14C20 13.45 19.55 13 19 13H13.82L14.48 9.82L14.5 9.59C14.5 9.28 14.37 9 14.17 8.79L13.38 8L8.44 12.94C8.17 13.21 8 13.59 8 14V20.5C8 21.33 8.67 22 9.5 22H16.25C16.87 22 17.4 21.62 17.63 21.09L19.89 15.8C19.96 15.63 20 15.44 20 15.25V14V14ZM30.5 18H23.75C23.13 18 22.6 18.38 22.37 18.91L20.11 24.2C20.04 24.37 20 24.56 20 24.75V26C20 26.55 20.45 27 21 27H26.18L25.52 30.18L25.5 30.42C25.5 30.73 25.63 31.01 25.83 31.22L26.62 32L31.56 27.06C31.83 26.79 32 26.41 32 26V19.5C32 18.67 31.33 18 30.5 18Z" fill="#DBDBDB"/>
</g>
<defs>
<clipPath id="clip0_432_885">
<rect width="24" height="24" fill="#222427" transform="translate(8 8)"/>
</clipPath>
</defs>
</svg>
