<svg width="24" height="25" viewBox="0 0 24 25" fill="none" xmlns="http://www.w3.org/2000/svg">
<g clip-path="url(#clip0_432_1045)">
<path d="M12 2.41094C15.2063 2.41094 15.5859 2.425 16.8469 2.48125C18.0188 2.53281 18.6516 2.72969 19.0734 2.89375C19.6313 3.10938 20.0344 3.37188 20.4516 3.78906C20.8734 4.21094 21.1313 4.60938 21.3469 5.16719C21.5109 5.58906 21.7078 6.22656 21.7594 7.39375C21.8156 8.65937 21.8297 9.03906 21.8297 12.2406C21.8297 15.4469 21.8156 15.8266 21.7594 17.0875C21.7078 18.2594 21.5109 18.8922 21.3469 19.3141C21.1313 19.8719 20.8688 20.275 20.4516 20.6922C20.0297 21.1141 19.6313 21.3719 19.0734 21.5875C18.6516 21.7516 18.0141 21.9484 16.8469 22C15.5813 22.0563 15.2016 22.0703 12 22.0703C8.79375 22.0703 8.41406 22.0563 7.15313 22C5.98125 21.9484 5.34844 21.7516 4.92656 21.5875C4.36875 21.3719 3.96563 21.1094 3.54844 20.6922C3.12656 20.2703 2.86875 19.8719 2.65313 19.3141C2.48906 18.8922 2.29219 18.2547 2.24063 17.0875C2.18438 15.8219 2.17031 15.4422 2.17031 12.2406C2.17031 9.03438 2.18438 8.65469 2.24063 7.39375C2.29219 6.22187 2.48906 5.58906 2.65313 5.16719C2.86875 4.60938 3.13125 4.20625 3.54844 3.78906C3.97031 3.36719 4.36875 3.10938 4.92656 2.89375C5.34844 2.72969 5.98594 2.53281 7.15313 2.48125C8.41406 2.425 8.79375 2.41094 12 2.41094ZM12 0.25C8.74219 0.25 8.33438 0.264062 7.05469 0.320312C5.77969 0.376563 4.90313 0.582812 4.14375 0.878125C3.35156 1.1875 2.68125 1.59531 2.01563 2.26562C1.34531 2.93125 0.9375 3.60156 0.628125 4.38906C0.332812 5.15313 0.126563 6.025 0.0703125 7.3C0.0140625 8.58437 0 8.99219 0 12.25C0 15.5078 0.0140625 15.9156 0.0703125 17.1953C0.126563 18.4703 0.332812 19.3469 0.628125 20.1063C0.9375 20.8984 1.34531 21.5688 2.01563 22.2344C2.68125 22.9 3.35156 23.3125 4.13906 23.6172C4.90313 23.9125 5.775 24.1187 7.05 24.175C8.32969 24.2312 8.7375 24.2453 11.9953 24.2453C15.2531 24.2453 15.6609 24.2312 16.9406 24.175C18.2156 24.1187 19.0922 23.9125 19.8516 23.6172C20.6391 23.3125 21.3094 22.9 21.975 22.2344C22.6406 21.5688 23.0531 20.8984 23.3578 20.1109C23.6531 19.3469 23.8594 18.475 23.9156 17.2C23.9719 15.9203 23.9859 15.5125 23.9859 12.2547C23.9859 8.99688 23.9719 8.58906 23.9156 7.30938C23.8594 6.03438 23.6531 5.15781 23.3578 4.39844C23.0625 3.60156 22.6547 2.93125 21.9844 2.26562C21.3188 1.6 20.6484 1.1875 19.8609 0.882812C19.0969 0.5875 18.225 0.38125 16.95 0.325C15.6656 0.264063 15.2578 0.25 12 0.25Z" fill="#DBDBDB"/>
<path d="M12 6.08594C8.59688 6.08594 5.83594 8.84688 5.83594 12.25C5.83594 15.6531 8.59688 18.4141 12 18.4141C15.4031 18.4141 18.1641 15.6531 18.1641 12.25C18.1641 8.84688 15.4031 6.08594 12 6.08594ZM12 16.2484C9.79219 16.2484 8.00156 14.4578 8.00156 12.25C8.00156 10.0422 9.79219 8.25156 12 8.25156C14.2078 8.25156 15.9984 10.0422 15.9984 12.25C15.9984 14.4578 14.2078 16.2484 12 16.2484Z" fill="#DBDBDB"/>
<path d="M19.8469 5.84238C19.8469 6.63926 19.2 7.28145 18.4078 7.28145C17.6109 7.28145 16.9688 6.63457 16.9688 5.84238C16.9688 5.04551 17.6156 4.40332 18.4078 4.40332C19.2 4.40332 19.8469 5.0502 19.8469 5.84238Z" fill="#DBDBDB"/>
</g>
<defs>
<clipPath id="clip0_432_1045">
<rect width="24" height="24" fill="white" transform="translate(0 0.25)"/>
</clipPath>
</defs>
</svg>
