<svg width="40" height="40" viewBox="0 0 40 40" fill="none" xmlns="http://www.w3.org/2000/svg">
<rect width="40" height="40" rx="10" fill="#222427"/>
<path d="M16.3896 26.4897V16.3297C16.3896 15.9297 16.5096 15.5397 16.7296 15.2097L19.4596 11.1497C19.8896 10.4997 20.9596 10.0397 21.8696 10.3797C22.8496 10.7097 23.4996 11.8097 23.2896 12.7897L22.7696 16.0597C22.7296 16.3597 22.8096 16.6297 22.9796 16.8397C23.1496 17.0297 23.3996 17.1497 23.6696 17.1497H27.7796C28.5696 17.1497 29.2496 17.4697 29.6496 18.0297C30.0296 18.5697 30.0996 19.2697 29.8496 19.9797L27.3896 27.4697C27.0796 28.7097 25.7296 29.7197 24.3896 29.7197H20.4896C19.8196 29.7197 18.8796 29.4897 18.4496 29.0597L17.1696 28.0697C16.6796 27.6997 16.3896 27.1097 16.3896 26.4897Z" fill="#DBDBDB"/>
<path d="M13.21 14.3799H12.18C10.63 14.3799 10 14.9799 10 16.4599V26.5199C10 27.9999 10.63 28.5999 12.18 28.5999H13.21C14.76 28.5999 15.39 27.9999 15.39 26.5199V16.4599C15.39 14.9799 14.76 14.3799 13.21 14.3799Z" fill="#DBDBDB"/>
</svg>
