<svg width="24" height="25" viewBox="0 0 24 25" fill="none" xmlns="http://www.w3.org/2000/svg">
<path d="M12 17.5C12.5523 17.5 13 17.0523 13 16.5C13 15.9477 12.5523 15.5 12 15.5C11.4477 15.5 11 15.9477 11 16.5C11 17.0523 11.4477 17.5 12 17.5Z" fill="#707070"/>
<path fill-rule="evenodd" clip-rule="evenodd" d="M7 7.5V10.5H6C4.89543 10.5 4 11.3954 4 12.5V20.5C4 21.6046 4.89543 22.5 6 22.5H18C19.1046 22.5 20 21.6046 20 20.5V12.5C20 11.3954 19.1046 10.5 18 10.5H17V7.5C17 4.73858 14.7614 2.5 12 2.5C9.23858 2.5 7 4.73858 7 7.5ZM12 4.5C10.3431 4.5 9 5.84315 9 7.5V10.5H15V7.5C15 5.84315 13.6569 4.5 12 4.5ZM6 12.5V20.5H18V12.5H6Z" fill="#707070"/>
</svg>
