<svg width="66" height="66" viewBox="0 0 66 66" fill="none" xmlns="http://www.w3.org/2000/svg">
<rect width="66" height="66" rx="24" fill="white"/>
<path d="M41.5 25.6577C41.5 24.7015 40.7389 23.9263 39.8 23.9263C38.8611 23.9263 38.1 24.7015 38.1 25.6577V29.1207C38.1 30.077 38.8611 30.8522 39.8 30.8522C40.7389 30.8522 41.5 30.077 41.5 29.1207V25.6577Z" fill="#25282E"/>
<path d="M33 23.9263C33.9389 23.9263 34.7 24.7015 34.7 25.6577V39.5096C34.7 40.4659 33.9389 41.2411 33 41.2411C32.0611 41.2411 31.3 40.4659 31.3 39.5096L31.3 25.6577C31.3 24.7015 32.0611 23.9263 33 23.9263Z" fill="#25282E"/>
<path d="M27.9 25.6577C27.9 24.7015 27.1389 23.9263 26.2 23.9263C25.2611 23.9263 24.5 24.7015 24.5 25.6577L24.5 36.0466C24.5 37.0029 25.2611 37.7781 26.2 37.7781C27.1389 37.7781 27.9 37.0029 27.9 36.0466L27.9 25.6577Z" fill="#25282E"/>
<path fill-rule="evenodd" clip-rule="evenodd" d="M50 44.704C50 46.6166 48.4778 48.167 46.6 48.167L19.4 48.167C17.5222 48.167 16 46.6166 16 44.704V20.4633C16 18.5507 17.5222 17.0003 19.4 17.0003L46.6 17.0003C48.4778 17.0003 50 18.5507 50 20.4633V44.704ZM46.6 44.704H19.4L19.4 20.4633L46.6 20.4633V44.704Z" fill="#25282E"/>
</svg>
