<svg width="66" height="66" viewBox="0 0 66 66" fill="none" xmlns="http://www.w3.org/2000/svg">
<rect width="66" height="66" rx="24" fill="white"/>
<path d="M21 42.9364C21 43.6166 21.5373 44.168 22.2 44.168C22.8627 44.168 23.4 43.6166 23.4 42.9364V25.6943C23.4 25.0141 22.8627 24.4627 22.2 24.4627C21.5373 24.4627 21 25.0141 21 25.6943V42.9364Z" fill="#25282E"/>
<path d="M29.4 44.168C28.7373 44.168 28.2 43.6166 28.2 42.9364V28.1574C28.2 27.4773 28.7373 26.9259 29.4 26.9259C30.0627 26.9259 30.6 27.4773 30.6 28.1574V42.9364C30.6 43.6166 30.0627 44.168 29.4 44.168Z" fill="#25282E"/>
<path d="M35.4 42.9364C35.4 43.6166 35.9373 44.168 36.6 44.168C37.2627 44.168 37.8 43.6166 37.8 42.9364V23.2311C37.8 22.5509 37.2627 21.9995 36.6 21.9995C35.9373 21.9995 35.4 22.5509 35.4 23.2311V42.9364Z" fill="#25282E"/>
<path d="M42.6 42.9364C42.6 43.6166 43.1373 44.168 43.8 44.168C44.4627 44.168 45 43.6166 45 42.9364V33.0838C45 32.4036 44.4627 31.8522 43.8 31.8522C43.1373 31.8522 42.6 32.4036 42.6 33.0838V42.9364Z" fill="#25282E"/>
</svg>
