<svg width="40" height="40" viewBox="0 0 40 40" fill="none" xmlns="http://www.w3.org/2000/svg">
<rect width="40" height="40" rx="10" fill="white"/>
<path fill-rule="evenodd" clip-rule="evenodd" d="M29.7071 10.2891C29.962 10.5407 30.06 10.9083 29.9635 11.2512L24.9635 29.0174C24.861 29.3816 24.5567 29.6561 24.1799 29.7241C23.8031 29.7921 23.4201 29.6418 23.1936 29.3369L17.7846 22.0568L10.4087 16.718C10.0998 16.4944 9.94744 16.1164 10.0163 15.7445C10.0853 15.3726 10.3633 15.0723 10.7324 14.9711L28.7323 10.036C29.0797 9.94079 29.4521 10.0375 29.7071 10.2891ZM19.8137 21.4498L23.5879 26.5296L27.019 14.3381L19.8137 21.4498ZM25.6048 12.9423L18.3995 20.054L13.2529 16.3288L25.6048 12.9423Z" fill="#25282E"/>
</svg>
