<svg width="24" height="25" viewBox="0 0 24 25" fill="none" xmlns="http://www.w3.org/2000/svg">
<path fill-rule="evenodd" clip-rule="evenodd" d="M11.2028 1.05311C11.6574 0.648964 12.3426 0.648964 12.7972 1.05311L23.5972 10.6531C24.0926 11.0934 24.1372 11.8519 23.6969 12.3472C23.2566 12.8426 22.4981 12.8872 22.0028 12.4469L21.6 12.0889V22.35C21.6 23.6755 20.5255 24.75 19.2 24.75H4.80001C3.47453 24.75 2.40001 23.6755 2.40001 22.35V12.0889L1.99725 12.4469C1.50191 12.8872 0.743422 12.8426 0.303121 12.3472C-0.13718 11.8519 -0.092563 11.0934 0.402776 10.6531L11.2028 1.05311ZM4.80001 9.95555V22.35H8.4V13.95C8.4 12.6245 9.47452 11.55 10.8 11.55H13.2C14.5255 11.55 15.6 12.6245 15.6 13.95V22.35H19.2V9.95555L12 3.55555L4.80001 9.95555ZM13.2 22.35V13.95H10.8V22.35H13.2Z" fill="#25282E"/>
</svg>
