<svg width="24" height="25" viewBox="0 0 24 25" fill="none" xmlns="http://www.w3.org/2000/svg">
<path d="M18 7.61111C18 6.9361 17.4627 6.38889 16.8 6.38889C16.1373 6.38889 15.6 6.9361 15.6 7.61111V10.0556C15.6 10.7306 16.1373 11.2778 16.8 11.2778C17.4627 11.2778 18 10.7306 18 10.0556V7.61111Z" fill="#25282E"/>
<path d="M12 6.38889C12.6627 6.38889 13.2 6.9361 13.2 7.61111L13.2 17.3889C13.2 18.0639 12.6627 18.6111 12 18.6111C11.3373 18.6111 10.8 18.0639 10.8 17.3889L10.8 7.61111C10.8 6.9361 11.3373 6.38889 12 6.38889Z" fill="#25282E"/>
<path d="M8.4 7.61111C8.4 6.9361 7.86274 6.38889 7.2 6.38889C6.53726 6.38889 6 6.9361 6 7.61111L6 14.9444C6 15.6195 6.53726 16.1667 7.2 16.1667C7.86274 16.1667 8.4 15.6195 8.4 14.9444V7.61111Z" fill="#25282E"/>
<path fill-rule="evenodd" clip-rule="evenodd" d="M24 21.0556C24 22.4056 22.9255 23.5 21.6 23.5L2.4 23.5C1.07452 23.5 -9.53674e-07 22.4056 -9.53674e-07 21.0556L-9.53674e-07 3.94444C-9.53674e-07 2.59441 1.07451 1.5 2.4 1.5L21.6 1.5C22.9255 1.5 24 2.59441 24 3.94444L24 21.0556ZM21.6 21.0556L2.4 21.0556L2.4 3.94444L21.6 3.94444L21.6 21.0556Z" fill="#25282E"/>
</svg>
