<svg width="24" height="24" viewBox="0 0 24 24" fill="none" xmlns="http://www.w3.org/2000/svg">
<path d="M1.94824 12C1.94824 11.4477 2.38448 11 2.9226 11H14.2113L11.0029 7.70711C10.6223 7.31658 10.6223 6.68342 11.0029 6.29289C11.3834 5.90237 12.0003 5.90237 12.3808 6.29289L17.2526 11.2929C17.6331 11.6834 17.6331 12.3166 17.2526 12.7071L12.3808 17.7071C12.0003 18.0976 11.3834 18.0976 11.0029 17.7071C10.6223 17.3166 10.6223 16.6834 11.0029 16.2929L14.2113 13H2.9226C2.38448 13 1.94824 12.5523 1.94824 12Z" fill="#25282E"/>
<path d="M13.6406 21C13.6406 20.4477 14.0768 20 14.6149 20H18.5123C19.0505 20 19.4867 19.5523 19.4867 19V5C19.4867 4.44772 19.0505 4 18.5123 4H14.6149C14.0768 4 13.6406 3.55228 13.6406 3C13.6406 2.44772 14.0768 2 14.6149 2H18.5123C20.1267 2 21.4354 3.34315 21.4354 5V19C21.4354 20.6569 20.1267 22 18.5123 22H14.6149C14.0768 22 13.6406 21.5523 13.6406 21Z" fill="#25282E"/>
</svg>
