<svg width="24" height="25" viewBox="0 0 24 25" fill="none" xmlns="http://www.w3.org/2000/svg">
<path fill-rule="evenodd" clip-rule="evenodd" d="M12.9976 3.57054C12.9992 3.54724 13 3.52372 13 3.5C13 2.94772 12.5523 2.5 12 2.5C11.4477 2.5 11 2.94772 11 3.5C11 3.52372 11.0008 3.54724 11.0024 3.57054C7.60896 4.05472 5 6.97268 5 10.5V17.5H4C3.44772 17.5 3 17.9477 3 18.5C3 19.0523 3.44772 19.5 4 19.5H9C9 21.1569 10.3431 22.5 12 22.5C13.6569 22.5 15 21.1569 15 19.5H20C20.5523 19.5 21 19.0523 21 18.5C21 17.9477 20.5523 17.5 20 17.5H19V10.5C19 6.97268 16.391 4.05472 12.9976 3.57054ZM17 10.5V17.5H7V10.5C7 7.73858 9.23858 5.5 12 5.5C14.7614 5.5 17 7.73858 17 10.5ZM12 20.5C11.4477 20.5 11 20.0523 11 19.5H13C13 20.0523 12.5523 20.5 12 20.5Z" fill="#25282E"/>
</svg>
