<svg width="24" height="24" viewBox="0 0 24 24" fill="none" xmlns="http://www.w3.org/2000/svg">
<path fill-rule="evenodd" clip-rule="evenodd" d="M15.6 12C15.6 13.9882 13.9882 15.6 12 15.6C10.0118 15.6 8.4 13.9882 8.4 12C8.4 10.0118 10.0118 8.4 12 8.4C13.9882 8.4 15.6 10.0118 15.6 12ZM13.2 12C13.2 12.6627 12.6627 13.2 12 13.2C11.3373 13.2 10.8 12.6627 10.8 12C10.8 11.3373 11.3373 10.8 12 10.8C12.6627 10.8 13.2 11.3373 13.2 12Z" fill="#25282E"/>
<path fill-rule="evenodd" clip-rule="evenodd" d="M12 0C11.0949 0 10.4734 0.500972 10.0966 1.03231C9.74926 1.522 9.54964 2.11069 9.41733 2.56377C9.35365 2.78184 9.29719 2.99997 9.24817 3.18933L9.23549 3.23831C9.18347 3.43905 9.14129 3.59867 9.10006 3.73176C8.69445 3.87402 8.30258 4.0452 7.92695 4.24279C7.83874 4.18939 7.73793 4.12521 7.61862 4.04842L7.55468 4.00723C7.40776 3.91252 7.23922 3.80387 7.06779 3.69969C6.69369 3.47237 6.17894 3.18499 5.62993 3.05909C5.03592 2.92286 4.2344 2.94853 3.59146 3.59147C2.95342 4.22952 2.92121 5.02864 3.03986 5.617C3.15153 6.17079 3.42038 6.69779 3.63867 7.08817C3.74124 7.27161 3.84825 7.45132 3.9416 7.60809L3.97358 7.66182C4.06019 7.80743 4.131 7.92775 4.1884 8.03215C4.01367 8.37556 3.86085 8.73213 3.73183 9.10001C3.59873 9.14122 3.43912 9.1834 3.23837 9.23542L3.1895 9.24808C3.00012 9.29709 2.78191 9.35358 2.56382 9.41726C2.11073 9.54956 1.52202 9.74918 1.03232 10.0965C0.500963 10.4734 0 11.0948 0 12C0 12.9052 0.500963 13.5266 1.03232 13.9035C1.52202 14.2508 2.11073 14.4504 2.56382 14.5827C2.78196 14.6464 3.00016 14.7029 3.18957 14.7519L3.23837 14.7646C3.43912 14.8166 3.59874 14.8588 3.73183 14.9C3.85878 15.262 4.00878 15.613 4.18001 15.9513C4.1224 16.0502 4.05246 16.1635 3.96738 16.3006L3.95039 16.3279C3.84997 16.4896 3.73313 16.6777 3.62105 16.8719C3.39579 17.2622 3.1176 17.7953 3.00857 18.3662C2.88987 18.9877 2.95769 19.7748 3.59146 20.4085C4.22896 21.046 5.0183 21.1096 5.6463 20.9726C6.21301 20.849 6.73393 20.5516 7.10778 20.3172C7.28975 20.2031 7.46648 20.0843 7.61821 19.9824L7.65628 19.9568C7.76738 19.8822 7.86153 19.8194 7.94438 19.7664C8.3147 19.9601 8.70072 20.1282 9.10006 20.2682C9.14128 20.4013 9.18347 20.5609 9.23549 20.7617L9.24813 20.8105C9.29715 20.9999 9.35364 21.2181 9.41733 21.4362C9.54964 21.8893 9.74926 22.478 10.0966 22.9677C10.4734 23.499 11.0949 24 12 24C12.9052 24 13.5267 23.499 13.9035 22.9677C14.2508 22.478 14.4504 21.8893 14.5827 21.4362C14.6464 21.2181 14.7029 20.9999 14.752 20.8105L14.7646 20.7617C14.8166 20.5609 14.8588 20.4013 14.9 20.2682C15.2994 20.1282 15.6854 19.9601 16.0557 19.7664C16.1385 19.8194 16.2327 19.8822 16.3438 19.9568L16.3819 19.9824C16.5336 20.0844 16.7103 20.2031 16.8923 20.3172C17.2661 20.5516 17.787 20.849 18.3537 20.9726C18.9817 21.1096 19.7711 21.046 20.4086 20.4085C21.0423 19.7747 21.1101 18.9877 20.9914 18.3662C20.8824 17.7953 20.6042 17.2622 20.379 16.8719C20.2669 16.6778 20.1501 16.4897 20.0497 16.328L20.0327 16.3006C19.9476 16.1636 19.8777 16.0503 19.8201 15.9513C19.9913 15.613 20.1413 15.262 20.2682 14.9C20.4013 14.8588 20.5609 14.8166 20.7617 14.7646L20.8106 14.7519C21 14.7029 21.2181 14.6464 21.4362 14.5827C21.8893 14.4504 22.478 14.2508 22.9677 13.9035C23.499 13.5266 24 12.9052 24 12.0001C24 11.0949 23.4991 10.4734 22.9677 10.0965C22.478 9.74918 21.8893 9.54956 21.4362 9.41726C21.2181 9.35356 20.9999 9.29709 20.8105 9.24806L20.7617 9.23542C20.561 9.1834 20.4013 9.14122 20.2682 9.1C20.1413 8.73802 19.9913 8.38698 19.8201 8.04865C19.8777 7.94974 19.9476 7.83642 20.0327 7.69939L20.0497 7.67201C20.1501 7.51034 20.2669 7.32223 20.379 7.12805C20.6042 6.7378 20.8824 6.20467 20.9914 5.63381C21.1101 5.01232 21.0423 4.22528 20.4086 3.5915C19.7711 2.95397 18.9817 2.89041 18.3537 3.02737C17.787 3.15096 17.2661 3.44841 16.8923 3.68283C16.7103 3.7969 16.5336 3.91565 16.3819 4.0176L16.3438 4.04324C16.2327 4.11785 16.1385 4.18065 16.0557 4.23365C15.6854 4.03992 15.2994 3.87182 14.9 3.73176C14.8588 3.59867 14.8166 3.43905 14.7646 3.23831L14.752 3.18952C14.7029 3.00012 14.6464 2.78191 14.5827 2.56377C14.4504 2.11069 14.2508 1.522 13.9035 1.03231C13.5267 0.500972 12.9052 0 12 0ZM10.1823 5.90321C10.7073 5.74699 10.9815 5.34907 11.0998 5.14601C11.2325 4.91811 11.3211 4.66902 11.3829 4.47278C11.4478 4.26706 11.5064 4.04218 11.5587 3.84038L11.57 3.79697C11.6207 3.60119 11.6683 3.41747 11.7211 3.23653C11.82 2.89788 11.9129 2.66058 12 2.50674C12.0872 2.66058 12.1801 2.89789 12.279 3.23653C12.3318 3.41745 12.3793 3.60106 12.43 3.79682L12.4413 3.84038C12.4936 4.04218 12.5523 4.26706 12.6171 4.47278C12.679 4.66902 12.7675 4.91812 12.9003 5.14601C13.0186 5.34907 13.2928 5.74699 13.8177 5.90321C14.3344 6.05698 14.8238 6.27483 15.2769 6.54783C15.7895 6.8567 16.3031 6.73897 16.5231 6.67072C16.773 6.5932 17.0004 6.46766 17.1643 6.36986C17.3387 6.26575 17.521 6.14362 17.6819 6.03558L17.7149 6.01341C17.8724 5.90759 18.0189 5.80917 18.1672 5.71617C18.3017 5.63186 18.4181 5.5649 18.5181 5.51296C18.4649 5.62974 18.3932 5.7675 18.3003 5.92836C18.2082 6.08803 18.1099 6.24632 18.0048 6.41554L17.9937 6.43343C17.89 6.60041 17.7736 6.78812 17.6748 6.96618C17.5813 7.13449 17.4648 7.36169 17.3931 7.60638C17.3325 7.81345 17.2179 8.3161 17.5099 8.82087C17.756 9.24632 17.954 9.70256 18.0968 10.1823C18.253 10.7072 18.651 10.9814 18.854 11.0997C19.0819 11.2325 19.331 11.321 19.5273 11.3829C19.733 11.4478 19.9579 11.5064 20.1597 11.5587L20.2032 11.57C20.3989 11.6207 20.5826 11.6682 20.7635 11.721C21.1022 11.8199 21.3395 11.9128 21.4933 12C21.3395 12.0872 21.1022 12.18 20.7635 12.279C20.5825 12.3318 20.3989 12.3794 20.2031 12.4301L20.1596 12.4413C19.9578 12.4936 19.7329 12.5523 19.5272 12.6171C19.331 12.679 19.0819 12.7675 18.854 12.9003C18.6509 13.0186 18.253 13.2928 18.0968 13.8177C17.954 14.2974 17.756 14.7537 17.5099 15.1791C17.2179 15.6839 17.3325 16.1866 17.3931 16.3936C17.4648 16.6383 17.5813 16.8655 17.6748 17.0338C17.7736 17.2119 17.89 17.3996 17.9937 17.5666L18.0049 17.5846C18.1099 17.7537 18.2082 17.912 18.3003 18.0716C18.3932 18.2325 18.4649 18.3703 18.5182 18.487C18.4181 18.4351 18.3017 18.3681 18.1672 18.2838C18.0189 18.1908 17.8724 18.0924 17.7149 17.9866L17.6819 17.9644C17.521 17.8564 17.3387 17.7343 17.1643 17.6301C17.0004 17.5323 16.773 17.4068 16.5231 17.3293C16.3031 17.261 15.7895 17.1433 15.2769 17.4522C14.8238 17.7252 14.3344 17.943 13.8177 18.0968C13.2928 18.253 13.0186 18.6509 12.9003 18.854C12.7675 19.0819 12.679 19.331 12.6171 19.5272C12.5523 19.7329 12.4936 19.9578 12.4413 20.1596L12.43 20.2032C12.3793 20.3989 12.3318 20.5826 12.279 20.7635C12.1801 21.1021 12.0872 21.3394 12 21.4933C11.9129 21.3394 11.82 21.1021 11.7211 20.7635C11.6683 20.5825 11.6207 20.3988 11.57 20.203L11.5587 20.1596C11.5064 19.9578 11.4478 19.7329 11.3829 19.5272C11.3211 19.331 11.2325 19.0819 11.0998 18.854C10.9815 18.6509 10.7073 18.253 10.1823 18.0968C9.66569 17.943 9.17625 17.7252 8.72319 17.4522C8.21058 17.1433 7.69695 17.261 7.47697 17.3293C7.22708 17.4068 6.99969 17.5323 6.83582 17.6301C6.66138 17.7343 6.47903 17.8564 6.31817 17.9644L6.28514 17.9866C6.12764 18.0924 5.98115 18.1908 5.83284 18.2838C5.69833 18.3682 5.58185 18.4351 5.48182 18.4871C5.53508 18.3703 5.6068 18.2325 5.69965 18.0717C5.79179 17.912 5.89007 17.7538 5.99513 17.5846L6.0063 17.5666C6.10998 17.3996 6.22642 17.2119 6.32527 17.0339C6.41872 16.8655 6.53528 16.6384 6.60693 16.3937C6.66756 16.1866 6.78219 15.6839 6.49018 15.1791C6.24407 14.7537 6.04605 14.2974 5.90328 13.8177C5.74705 13.2928 5.34912 13.0186 5.14606 12.9003C4.91815 12.7675 4.66906 12.679 4.47281 12.6171C4.26709 12.5522 4.04221 12.4936 3.8404 12.4413L3.79697 12.4301C3.60118 12.3794 3.41749 12.3318 3.23654 12.279C2.89785 12.1801 2.66053 12.0872 2.50669 12C2.66053 11.9128 2.89785 11.8199 3.23654 11.721C3.41747 11.6682 3.60109 11.6207 3.79685 11.57L3.8404 11.5587C4.04221 11.5064 4.26709 11.4478 4.47281 11.3829C4.66906 11.321 4.91815 11.2325 5.14606 11.0997C5.34912 10.9814 5.74705 10.7072 5.90328 10.1823C6.04605 9.70257 6.24407 9.24632 6.49018 8.82087C6.77692 8.32519 6.67167 7.82937 6.61564 7.62437C6.54884 7.37996 6.43794 7.15122 6.34712 6.97907C6.25121 6.79725 6.1383 6.60644 6.03624 6.43487L6.00452 6.38156C5.90905 6.22118 5.81907 6.07002 5.73342 5.91684C5.66906 5.80174 5.61433 5.69771 5.56858 5.60409C5.64528 5.64608 5.72941 5.69478 5.82143 5.7507C5.96357 5.83707 6.10316 5.92702 6.25206 6.02297L6.3197 6.06654C6.48514 6.17302 6.67072 6.29162 6.84899 6.39277C7.01683 6.488 7.24593 6.60759 7.49559 6.67997C7.71321 6.74306 8.21974 6.85118 8.72319 6.54783C9.17625 6.27483 9.66569 6.05698 10.1823 5.90321Z" fill="#25282E"/>
</svg>
