<svg width="24" height="25" viewBox="0 0 24 25" fill="none" xmlns="http://www.w3.org/2000/svg">
<path d="M17.1762 8.91347C18.7196 10.0206 20.6102 10.6721 22.6523 10.6721V6.72861C22.2658 6.72869 21.8803 6.68825 21.5023 6.60786V9.71193C19.4604 9.71193 17.57 9.06049 16.0262 7.9534V16.0009C16.0262 20.0266 12.7743 23.2899 8.76309 23.2899C7.26641 23.2899 5.87531 22.8358 4.71973 22.057C6.03864 23.4104 7.87796 24.25 9.91285 24.25C13.9243 24.25 17.1764 20.9867 17.1764 16.9608V8.91347H17.1762V8.91347ZM18.5949 4.93499C17.8061 4.07023 17.2883 2.95267 17.1762 1.71717V1.20996H16.0864C16.3607 2.78028 17.2964 4.12187 18.5949 4.93499ZM7.25681 18.9678C6.81614 18.3879 6.578 17.6786 6.57907 16.9492C6.57907 15.108 8.06647 13.6151 9.90153 13.6151C10.2435 13.615 10.5835 13.6676 10.9094 13.7714V9.73977C10.5285 9.68739 10.1441 9.66515 9.75986 9.6733V12.8113C9.4337 12.7075 9.0936 12.6548 8.75152 12.6551C6.91646 12.6551 5.42914 14.1479 5.42914 15.9893C5.42914 17.2914 6.1726 18.4187 7.25681 18.9678Z" fill="#FF004F"/>
<path d="M16.027 7.95332C17.5707 9.06041 19.4611 9.71185 21.503 9.71185V6.60778C20.3632 6.36414 19.3543 5.7664 18.5956 4.93499C17.2971 4.12179 16.3615 2.7802 16.0872 1.20996H13.2246V16.9606C13.2181 18.7968 11.7332 20.2836 9.90211 20.2836C8.82306 20.2836 7.86443 19.7674 7.25731 18.9678C6.17318 18.4187 5.42972 17.2913 5.42972 15.9894C5.42972 14.1481 6.91704 12.6552 8.7521 12.6552C9.10369 12.6552 9.44256 12.7102 9.76044 12.8114V9.67338C5.8197 9.75509 2.65039 12.9865 2.65039 16.9607C2.65039 18.9446 3.43962 20.7431 4.72055 22.0571C5.87614 22.8358 7.26724 23.29 8.76391 23.29C12.7752 23.29 16.027 20.0265 16.027 16.0009V7.95332H16.027Z" fill="black"/>
<path d="M21.5025 6.6078V5.76848C20.4748 5.77005 19.4672 5.48119 18.5952 4.93493C19.3671 5.78306 20.3835 6.36787 21.5025 6.6078ZM16.0867 1.20998C16.0605 1.05991 16.0404 0.908851 16.0265 0.757214V0.25H12.074V16.0008C12.0677 17.8368 10.5829 19.3236 8.75164 19.3236C8.214 19.3236 7.70638 19.1955 7.25685 18.9679C7.86397 19.7674 8.82259 20.2836 9.90164 20.2836C11.7326 20.2836 13.2177 18.7969 13.2241 16.9607V1.20998H16.0867ZM9.76014 9.67341V8.77989C9.42988 8.73459 9.09691 8.71186 8.76353 8.71202C4.75192 8.71194 1.5 11.9754 1.5 16.0008C1.5 18.5245 2.77806 20.7487 4.72017 22.057C3.43924 20.743 2.65001 18.9444 2.65001 16.9606C2.65001 12.9865 5.81924 9.75511 9.76014 9.67341Z" fill="#00F2EA"/>
</svg>
