<svg width="24" height="25" viewBox="0 0 24 25" fill="none" xmlns="http://www.w3.org/2000/svg">
<path d="M7.54752 22.0003C16.6042 22.0003 21.5578 14.4969 21.5578 7.99003C21.5578 7.77691 21.5578 7.56475 21.5434 7.35355C22.507 6.65651 23.3389 5.79344 24 4.80475C23.1014 5.20315 22.148 5.46431 21.1718 5.57947C22.1998 4.96416 22.9692 3.99625 23.3366 2.85595C22.3701 3.42956 21.3126 3.83378 20.2099 4.05115C19.4675 3.26173 18.4856 2.73899 17.4162 2.56384C16.3468 2.38868 15.2494 2.57087 14.294 3.0822C13.3385 3.59354 12.5782 4.40553 12.1307 5.3925C11.6833 6.37947 11.5735 7.48642 11.8186 8.54203C9.86089 8.44383 7.94576 7.93506 6.19745 7.04876C4.44915 6.16245 2.90676 4.91841 1.6704 3.39739C1.04073 4.48139 0.847872 5.76462 1.1311 6.98581C1.41433 8.20701 2.15234 9.27435 3.19488 9.97051C2.41123 9.94755 1.64465 9.73615 0.96 9.35419V9.41659C0.960311 10.5534 1.35385 11.6552 2.07387 12.535C2.79389 13.4147 3.79606 14.0184 4.9104 14.2435C4.18548 14.4412 3.42487 14.4701 2.68704 14.328C3.00181 15.3063 3.61443 16.1618 4.43924 16.7749C5.26405 17.388 6.25983 17.728 7.28736 17.7475C6.26644 18.5499 5.09731 19.1433 3.84687 19.4935C2.59643 19.8437 1.28921 19.9439 0 19.7884C2.25183 21.2334 4.87192 21.9999 7.54752 21.9964" fill="#1DA1F2"/>
</svg>
