<svg width="24" height="25" viewBox="0 0 24 25" fill="none" xmlns="http://www.w3.org/2000/svg">
<g clip-path="url(#clip0_432_1037)">
<path d="M23.5216 6.4359C23.3859 5.92531 23.1185 5.45932 22.7462 5.08455C22.3738 4.70979 21.9095 4.4394 21.3998 4.30044C19.5234 3.7959 12.0234 3.7959 12.0234 3.7959C12.0234 3.7959 4.52344 3.7959 2.64707 4.30044C2.13737 4.4394 1.6731 4.70979 1.30073 5.08455C0.928354 5.45932 0.660943 5.92531 0.525256 6.4359C0.0234376 8.32044 0.0234375 12.2504 0.0234375 12.2504C0.0234375 12.2504 0.0234376 16.1804 0.525256 18.065C0.660943 18.5756 0.928354 19.0416 1.30073 19.4163C1.6731 19.7911 2.13737 20.0615 2.64707 20.2004C4.52344 20.705 12.0234 20.705 12.0234 20.705C12.0234 20.705 19.5234 20.705 21.3998 20.2004C21.9095 20.0615 22.3738 19.7911 22.7462 19.4163C23.1185 19.0416 23.3859 18.5756 23.5216 18.065C24.0234 16.1804 24.0234 12.2504 24.0234 12.2504C24.0234 12.2504 24.0234 8.32044 23.5216 6.4359Z" fill="#FF0302"/>
<path d="M9.56934 15.8189V8.68164L15.8421 12.2503L9.56934 15.8189Z" fill="#FEFEFE"/>
</g>
<defs>
<clipPath id="clip0_432_1037">
<rect width="24" height="24" fill="white" transform="translate(0 0.25)"/>
</clipPath>
</defs>
</svg>
