<svg width="24" height="24" viewBox="0 0 24 24" fill="none" xmlns="http://www.w3.org/2000/svg">
<path d="M12 17C12.5523 17 13 16.5523 13 16C13 15.4477 12.5523 15 12 15C11.4477 15 11 15.4477 11 16C11 16.5523 11.4477 17 12 17Z" fill="#25282E"/>
<path fill-rule="evenodd" clip-rule="evenodd" d="M7 7V10H6C4.89543 10 4 10.8954 4 12V20C4 21.1046 4.89543 22 6 22H18C19.1046 22 20 21.1046 20 20V12C20 10.8954 19.1046 10 18 10H17V7C17 4.23858 14.7614 2 12 2C9.23858 2 7 4.23858 7 7ZM12 4C10.3431 4 9 5.34315 9 7V10H15V7C15 5.34315 13.6569 4 12 4ZM6 12V20H18V12H6Z" fill="#25282E"/>
</svg>
