<svg width="24" height="24" viewBox="0 0 24 24" fill="none" xmlns="http://www.w3.org/2000/svg">
<path fill-rule="evenodd" clip-rule="evenodd" d="M6 7.8962C7.65685 7.8962 9 6.5705 9 4.93516C9 3.29982 7.65685 1.97412 6 1.97412C4.34315 1.97412 3 3.29982 3 4.93516C3 6.5705 4.34315 7.8962 6 7.8962ZM6 5.92217C6.55228 5.92217 7 5.48027 7 4.93516C7 4.39005 6.55228 3.94815 6 3.94815C5.44772 3.94815 5 4.39005 5 4.93516C5 5.48027 5.44772 5.92217 6 5.92217Z" fill="#DBDBDB"/>
<path fill-rule="evenodd" clip-rule="evenodd" d="M15.1707 12.8313C15.5825 13.9813 16.6938 14.8053 18 14.8053C19.6569 14.8053 21 13.4796 21 11.8443C21 10.2089 19.6569 8.88321 18 8.88321C16.6938 8.88321 15.5825 9.70718 15.1707 10.8572H4C3.44772 10.8572 3 11.2991 3 11.8443C3 12.3894 3.44772 12.8313 4 12.8313H15.1707ZM18 12.8313C18.5523 12.8313 19 12.3894 19 11.8443C19 11.2991 18.5523 10.8572 18 10.8572C17.4477 10.8572 17 11.2991 17 11.8443C17 12.3894 17.4477 12.8313 18 12.8313Z" fill="#DBDBDB"/>
<path fill-rule="evenodd" clip-rule="evenodd" d="M11 21.7144C9.69378 21.7144 8.58254 20.8904 8.17071 19.7404H4C3.44772 19.7404 3 19.2985 3 18.7533C3 18.2082 3.44772 17.7663 4 17.7663H8.17071C8.58254 16.6163 9.69378 15.7923 11 15.7923C12.6569 15.7923 14 17.118 14 18.7533C14 20.3887 12.6569 21.7144 11 21.7144ZM12 18.7533C12 19.2985 11.5523 19.7404 11 19.7404C10.4477 19.7404 10 19.2985 10 18.7533C10 18.2082 10.4477 17.7663 11 17.7663C11.5523 17.7663 12 18.2082 12 18.7533Z" fill="#DBDBDB"/>
<path d="M11 4.93516C11 4.39005 11.4477 3.94815 12 3.94815L20 3.94815C20.5523 3.94815 21 4.39005 21 4.93516C21 5.48027 20.5523 5.92217 20 5.92217L12 5.92217C11.4477 5.92217 11 5.48027 11 4.93516Z" fill="#DBDBDB"/>
<path d="M17 17.7663C16.4477 17.7663 16 18.2082 16 18.7533C16 19.2985 16.4477 19.7404 17 19.7404H20C20.5523 19.7404 21 19.2985 21 18.7533C21 18.2082 20.5523 17.7663 20 17.7663H17Z" fill="#DBDBDB"/>
</svg>
