<svg width="66" height="66" viewBox="0 0 66 66" fill="none" xmlns="http://www.w3.org/2000/svg">
<rect width="66" height="66" rx="24" fill="#303337"/>
<path d="M26.2 35.6842C27.1389 35.6842 27.9 34.883 27.9 33.8947C27.9 32.9064 27.1389 32.1053 26.2 32.1053C25.2611 32.1053 24.5 32.9064 24.5 33.8947C24.5 34.883 25.2611 35.6842 26.2 35.6842Z" fill="#DBDBDB"/>
<path d="M34.7 33.8947C34.7 34.883 33.9389 35.6842 33 35.6842C32.0611 35.6842 31.3 34.883 31.3 33.8947C31.3 32.9064 32.0611 32.1053 33 32.1053C33.9389 32.1053 34.7 32.9064 34.7 33.8947Z" fill="#DBDBDB"/>
<path d="M39.8 35.6842C40.7389 35.6842 41.5 34.883 41.5 33.8947C41.5 32.9064 40.7389 32.1053 39.8 32.1053C38.8611 32.1053 38.1 32.9064 38.1 33.8947C38.1 34.883 38.8611 35.6842 39.8 35.6842Z" fill="#DBDBDB"/>
<path d="M27.9 41.0526C27.9 42.0409 27.1389 42.8421 26.2 42.8421C25.2611 42.8421 24.5 42.0409 24.5 41.0526C24.5 40.0643 25.2611 39.2632 26.2 39.2632C27.1389 39.2632 27.9 40.0643 27.9 41.0526Z" fill="#DBDBDB"/>
<path d="M33 42.8421C33.9389 42.8421 34.7 42.0409 34.7 41.0526C34.7 40.0643 33.9389 39.2632 33 39.2632C32.0611 39.2632 31.3 40.0643 31.3 41.0526C31.3 42.0409 32.0611 42.8421 33 42.8421Z" fill="#DBDBDB"/>
<path fill-rule="evenodd" clip-rule="evenodd" d="M26.2 17.7895C26.2 16.8012 25.4389 16 24.5 16C23.5611 16 22.8 16.8012 22.8 17.7895H19.4C17.5222 17.7895 16 19.3918 16 21.3684V46.4211C16 48.3977 17.5222 50 19.4 50H46.6C48.4778 50 50 48.3977 50 46.4211V21.3684C50 19.3918 48.4778 17.7895 46.6 17.7895H43.2C43.2 16.8012 42.4389 16 41.5 16C40.5611 16 39.8 16.8012 39.8 17.7895H26.2ZM19.4 24.9474V21.3684H46.6V24.9474H19.4ZM19.4 28.5263V46.4211H36.6917L46.6 35.9913V28.5263H19.4ZM46.6 41.0527L41.5 46.4211H46.6V41.0527Z" fill="#DBDBDB"/>
</svg>
