<svg width="550" height="554" viewBox="0 0 550 554" fill="none" xmlns="http://www.w3.org/2000/svg">
<g clip-path="url(#clip0_624_1085)">
<path d="M446.139 365.877H311.845C306.377 365.877 301.945 370.317 301.945 375.795V448.753C301.945 454.23 306.377 458.671 311.845 458.671H446.139C451.607 458.671 456.039 454.23 456.039 448.753V375.795C456.039 370.317 451.607 365.877 446.139 365.877Z" fill="#222427"/>
<path opacity="0.1" d="M446.139 365.877H311.845C306.377 365.877 301.945 370.317 301.945 375.795V448.753C301.945 454.23 306.377 458.671 311.845 458.671H446.139C451.607 458.671 456.039 454.23 456.039 448.753V375.795C456.039 370.317 451.607 365.877 446.139 365.877Z" fill="#FEB062"/>
<path d="M413.593 415.632H401.702C400.978 415.632 400.391 416.22 400.391 416.945V443.349C400.391 444.074 400.978 444.662 401.702 444.662H413.593C414.317 444.662 414.904 444.074 414.904 443.349V416.945C414.904 416.22 414.317 415.632 413.593 415.632Z" fill="#222427"/>
<path d="M442.248 393.055H430.357C429.633 393.055 429.046 393.643 429.046 394.368V443.349C429.046 444.074 429.633 444.662 430.357 444.662H442.248C442.972 444.662 443.559 444.074 443.559 443.349V394.368C443.559 393.643 442.972 393.055 442.248 393.055Z" fill="#222427"/>
<path d="M327.626 415.632H315.735C315.011 415.632 314.424 416.22 314.424 416.945V443.349C314.424 444.074 315.011 444.662 315.735 444.662H327.626C328.35 444.662 328.936 444.074 328.936 443.349V416.945C328.936 416.22 328.35 415.632 327.626 415.632Z" fill="#222427"/>
<path d="M356.281 382.789H344.39C343.666 382.789 343.08 383.377 343.08 384.102V443.349C343.08 444.074 343.666 444.662 344.39 444.662H356.281C357.005 444.662 357.592 444.074 357.592 443.349V384.102C357.592 383.377 357.005 382.789 356.281 382.789Z" fill="#222427"/>
<path d="M384.937 409.125H373.046C372.322 409.125 371.735 409.713 371.735 410.438V443.349C371.735 444.074 372.322 444.662 373.046 444.662H384.937C385.661 444.662 386.247 444.074 386.247 443.349V410.438C386.247 409.713 385.661 409.125 384.937 409.125Z" fill="#222427"/>
<path d="M204.442 309.124H33.9981C27.0586 309.124 21.4331 314.76 21.4331 321.711V414.309C21.4331 421.261 27.0586 426.896 33.9981 426.896H204.442C211.382 426.896 217.007 421.261 217.007 414.309V321.711C217.007 314.76 211.382 309.124 204.442 309.124Z" fill="#222427"/>
<path opacity="0.1" d="M204.442 309.124H33.9981C27.0586 309.124 21.4331 314.76 21.4331 321.711V414.309C21.4331 421.261 27.0586 426.896 33.9981 426.896H204.442C211.382 426.896 217.007 421.261 217.007 414.309V321.711C217.007 314.76 211.382 309.124 204.442 309.124Z" fill="#FEB062"/>
<path d="M163.136 372.273H148.043C147.125 372.273 146.38 373.02 146.38 373.94V407.451C146.38 408.372 147.125 409.118 148.043 409.118H163.136C164.054 409.118 164.799 408.372 164.799 407.451V373.94C164.799 373.02 164.054 372.273 163.136 372.273Z" fill="#222427"/>
<path d="M199.505 343.619H184.413C183.494 343.619 182.749 344.365 182.749 345.286V407.452C182.749 408.372 183.494 409.119 184.413 409.119H199.505C200.424 409.119 201.168 408.372 201.168 407.452V345.286C201.168 344.365 200.424 343.619 199.505 343.619Z" fill="#222427"/>
<path d="M54.0273 372.273H38.935C38.0163 372.273 37.2715 373.02 37.2715 373.94V407.451C37.2715 408.372 38.0163 409.118 38.935 409.118H54.0273C54.946 409.118 55.6908 408.372 55.6908 407.451V373.94C55.6908 373.02 54.946 372.273 54.0273 372.273Z" fill="#222427"/>
<path d="M90.3964 330.59H75.3041C74.3854 330.59 73.6406 331.336 73.6406 332.256V407.451C73.6406 408.372 74.3854 409.118 75.3041 409.118H90.3964C91.3151 409.118 92.0599 408.372 92.0599 407.451V332.256C92.0599 331.336 91.3151 330.59 90.3964 330.59Z" fill="#222427"/>
<path d="M126.767 364.015H111.674C110.756 364.015 110.011 364.761 110.011 365.681V407.451C110.011 408.371 110.756 409.118 111.674 409.118H126.767C127.685 409.118 128.43 408.371 128.43 407.451V365.681C128.43 364.761 127.685 364.015 126.767 364.015Z" fill="#222427"/>
<path d="M527.593 0.722656H331.84C323.87 0.722656 317.409 7.19513 317.409 15.1793V121.527C317.409 129.511 323.87 135.984 331.84 135.984H527.593C535.563 135.984 542.024 129.511 542.024 121.527V15.1793C542.024 7.19513 535.563 0.722656 527.593 0.722656Z" fill="#222427"/>
<path opacity="0.1" d="M527.593 0.722656H331.84C323.87 0.722656 317.409 7.19513 317.409 15.1793V121.527C317.409 129.511 323.87 135.984 331.84 135.984H527.593C535.563 135.984 542.024 129.511 542.024 121.527V15.1793C542.024 7.19513 535.563 0.722656 527.593 0.722656Z" fill="#FEB062"/>
<path d="M480.153 73.25H462.82C461.765 73.25 460.909 74.1069 460.909 75.1639V113.652C460.909 114.709 461.765 115.566 462.82 115.566H480.153C481.208 115.566 482.063 114.709 482.063 113.652V75.1639C482.063 74.1069 481.208 73.25 480.153 73.25Z" fill="#222427"/>
<path d="M521.923 40.3398H504.59C503.535 40.3398 502.679 41.1967 502.679 42.2537V113.652C502.679 114.709 503.535 115.566 504.59 115.566H521.923C522.978 115.566 523.833 114.709 523.833 113.652V42.2537C523.833 41.1967 522.978 40.3398 521.923 40.3398Z" fill="#222427"/>
<path d="M354.843 73.25H337.51C336.454 73.25 335.599 74.1069 335.599 75.1639V113.652C335.599 114.709 336.454 115.566 337.51 115.566H354.843C355.898 115.566 356.753 114.709 356.753 113.652V75.1639C356.753 74.1069 355.898 73.25 354.843 73.25Z" fill="#222427"/>
<path d="M396.613 25.376H379.28C378.225 25.376 377.37 26.2329 377.37 27.2899V113.651C377.37 114.708 378.225 115.565 379.28 115.565H396.613C397.668 115.565 398.524 114.708 398.524 113.651V27.2899C398.524 26.2329 397.668 25.376 396.613 25.376Z" fill="#222427"/>
<path d="M438.383 63.7646H421.05C419.994 63.7646 419.139 64.6215 419.139 65.6785V113.651C419.139 114.708 419.994 115.565 421.05 115.565H438.383C439.438 115.565 440.293 114.708 440.293 113.651V65.6785C440.293 64.6215 439.438 63.7646 438.383 63.7646Z" fill="#222427"/>
<path d="M102.533 112.365H7.03936C3.15163 112.365 0 115.522 0 119.417V171.297C0 175.191 3.15163 178.349 7.03936 178.349H102.533C106.421 178.349 109.573 175.191 109.573 171.297V119.417C109.573 115.522 106.421 112.365 102.533 112.365Z" fill="#222427"/>
<path opacity="0.3" d="M102.533 112.365H7.03936C3.15163 112.365 0 115.522 0 119.417V171.297C0 175.191 3.15163 178.349 7.03936 178.349H102.533C106.421 178.349 109.573 175.191 109.573 171.297V119.417C109.573 115.522 106.421 112.365 102.533 112.365Z" fill="#FEB062"/>
<path d="M79.3911 147.745H70.9352C70.4206 147.745 70.0034 148.163 70.0034 148.679V167.454C70.0034 167.97 70.4206 168.388 70.9352 168.388H79.3911C79.9058 168.388 80.3229 167.97 80.3229 167.454V148.679C80.3229 148.163 79.9058 147.745 79.3911 147.745Z" fill="#222427"/>
<path d="M99.7671 131.691H91.3112C90.7966 131.691 90.3794 132.109 90.3794 132.625V167.455C90.3794 167.97 90.7966 168.388 91.3112 168.388H99.7671C100.282 168.388 100.699 167.97 100.699 167.455V132.625C100.699 132.109 100.282 131.691 99.7671 131.691Z" fill="#222427"/>
<path d="M18.2617 147.745H9.80582C9.2912 147.745 8.87402 148.163 8.87402 148.679V167.454C8.87402 167.97 9.2912 168.388 9.80582 168.388H18.2617C18.7764 168.388 19.1935 167.97 19.1935 167.454V148.679C19.1935 148.163 18.7764 147.745 18.2617 147.745Z" fill="#222427"/>
<path d="M38.6382 124.392H30.1823C29.6677 124.392 29.2505 124.81 29.2505 125.325V167.455C29.2505 167.97 29.6677 168.388 30.1823 168.388H38.6382C39.1528 168.388 39.57 167.97 39.57 167.455V125.325C39.57 124.81 39.1528 124.392 38.6382 124.392Z" fill="#222427"/>
<path d="M59.0147 143.118H50.5588C50.0441 143.118 49.627 143.536 49.627 144.052V167.454C49.627 167.97 50.0441 168.388 50.5588 168.388H59.0147C59.5293 168.388 59.9465 167.97 59.9465 167.454V144.052C59.9465 143.536 59.5293 143.118 59.0147 143.118Z" fill="#222427"/>
<path d="M91.0411 346.24L476.73 346.24C486.201 346.24 493.879 338.548 493.879 329.06L493.879 46.1716C493.879 36.6831 486.201 28.9912 476.73 28.9912L91.0411 28.9912C81.5696 28.9912 73.8914 36.6831 73.8914 46.1716L73.8914 329.06C73.8914 338.548 81.5696 346.24 91.0411 346.24Z" fill="#222427"/>
<path d="M73.3193 329.06V46.1719C73.3246 41.4652 75.1934 36.9527 78.5156 33.6245C81.8379 30.2964 86.3423 28.4243 91.0406 28.4189H476.729C481.428 28.4243 485.932 30.2964 489.254 33.6245C492.577 36.9527 494.445 41.4652 494.451 46.1719V329.06C494.445 333.767 492.577 338.28 489.254 341.608C485.932 344.936 481.428 346.808 476.729 346.813H91.0406C86.3423 346.808 81.8379 344.936 78.5156 341.608C75.1934 338.28 73.3246 333.767 73.3193 329.06ZM91.0406 29.5643C86.6455 29.5695 82.4318 31.3208 79.3239 34.4343C76.216 37.5477 74.4678 41.7689 74.4626 46.1719V329.06C74.4676 333.463 76.2158 337.685 79.3237 340.798C82.4316 343.912 86.6454 345.663 91.0406 345.668H476.729C481.125 345.663 485.338 343.912 488.446 340.798C491.554 337.685 493.302 333.463 493.307 329.06V46.1719C493.302 41.7689 491.554 37.5475 488.446 34.4341C485.338 31.3206 481.125 29.5693 476.729 29.5643H91.0406Z" fill="#767676"/>
<path d="M73.8916 46.1706V63.458H493.877V46.1706C493.877 41.6141 492.07 37.2442 488.854 34.0222C485.638 30.8003 481.276 28.9902 476.728 28.9902H91.0412C86.4929 28.9902 82.1308 30.8003 78.9146 34.0222C75.6984 37.2442 73.8916 41.6141 73.8916 46.1706Z" fill="#E9E9E9"/>
<path d="M471.187 79.8848H307.54C303.523 79.8848 300.267 83.1469 300.267 87.1709V203.143C300.267 207.167 303.523 210.429 307.54 210.429H471.187C475.204 210.429 478.46 207.167 478.46 203.143V87.1709C478.46 83.1469 475.204 79.8848 471.187 79.8848Z" fill="#222427"/>
<path opacity="0.15" d="M471.187 79.8848H307.54C303.523 79.8848 300.267 83.1469 300.267 87.1709V203.143C300.267 207.167 303.523 210.429 307.54 210.429H471.187C475.204 210.429 478.46 207.167 478.46 203.143V87.1709C478.46 83.1469 475.204 79.8848 471.187 79.8848Z" fill="#FEB062"/>
<path d="M332.252 96.1748H318.109C317.452 96.1748 316.919 96.7084 316.919 97.3666V192.948C316.919 193.606 317.452 194.139 318.109 194.139H332.252C332.909 194.139 333.441 193.606 333.441 192.948V97.3666C333.441 96.7084 332.909 96.1748 332.252 96.1748Z" fill="#DBDBDB"/>
<path opacity="0.6" d="M316.919 144.195H333.44V192.947C333.44 193.263 333.314 193.567 333.091 193.79C332.868 194.014 332.566 194.139 332.25 194.139H318.109C317.793 194.139 317.49 194.014 317.267 193.79C317.044 193.567 316.919 193.263 316.919 192.947V144.195Z" fill="#FEB062"/>
<path d="M364.343 96.1748H350.2C349.543 96.1748 349.01 96.7084 349.01 97.3666V192.948C349.01 193.606 349.543 194.139 350.2 194.139H364.343C365 194.139 365.533 193.606 365.533 192.948V97.3666C365.533 96.7084 365 96.1748 364.343 96.1748Z" fill="#DBDBDB"/>
<path opacity="0.6" d="M349.01 130.618H365.531V192.947C365.531 193.263 365.406 193.566 365.183 193.79C364.96 194.013 364.657 194.139 364.341 194.139H350.2C349.884 194.139 349.582 194.013 349.359 193.79C349.136 193.566 349.01 193.263 349.01 192.947V130.618Z" fill="#FEB062"/>
<path d="M460.619 96.1748H446.475C445.818 96.1748 445.286 96.7084 445.286 97.3666V192.948C445.286 193.606 445.818 194.139 446.475 194.139H460.619C461.276 194.139 461.808 193.606 461.808 192.948V97.3666C461.808 96.7084 461.276 96.1748 460.619 96.1748Z" fill="#DBDBDB"/>
<path opacity="0.6" d="M445.286 116.92H461.806V192.949C461.806 193.265 461.681 193.568 461.458 193.791C461.235 194.015 460.932 194.14 460.617 194.14H446.476C446.16 194.14 445.858 194.015 445.635 193.791C445.412 193.568 445.286 193.265 445.286 192.949V116.92H445.286Z" fill="#FEB062"/>
<path d="M396.435 96.1748H382.292C381.635 96.1748 381.103 96.7084 381.103 97.3666V192.948C381.103 193.606 381.635 194.139 382.292 194.139H396.435C397.092 194.139 397.625 193.606 397.625 192.948V97.3666C397.625 96.7084 397.092 96.1748 396.435 96.1748Z" fill="#DBDBDB"/>
<path opacity="0.6" d="M381.103 166.156H397.623V192.948C397.623 193.264 397.498 193.567 397.275 193.791C397.052 194.014 396.749 194.14 396.434 194.14H382.292C381.977 194.14 381.674 194.014 381.451 193.791C381.228 193.567 381.103 193.264 381.103 192.948V166.156Z" fill="#FEB062"/>
<path d="M428.527 96.1748H414.384C413.727 96.1748 413.194 96.7084 413.194 97.3666V192.948C413.194 193.606 413.727 194.139 414.384 194.139H428.527C429.184 194.139 429.717 193.606 429.717 192.948V97.3666C429.717 96.7084 429.184 96.1748 428.527 96.1748Z" fill="#DBDBDB"/>
<path opacity="0.6" d="M413.192 149.037H429.713V192.947C429.713 193.263 429.588 193.566 429.365 193.789C429.142 194.013 428.839 194.138 428.524 194.138H414.384C414.227 194.138 414.073 194.107 413.928 194.048C413.784 193.988 413.653 193.9 413.543 193.789C413.432 193.679 413.344 193.547 413.285 193.403C413.225 193.258 413.194 193.103 413.194 192.947V149.037H413.192Z" fill="#FEB062"/>
<path opacity="0.15" d="M468.048 223.207H308.71C302.96 223.207 298.298 227.877 298.298 233.637V320.072C298.298 325.832 302.96 330.502 308.71 330.502H468.048C473.799 330.502 478.46 325.832 478.46 320.072V233.637C478.46 227.877 473.799 223.207 468.048 223.207Z" fill="#FEB062"/>
<path d="M406.068 250.008C408.206 250.008 409.938 248.272 409.938 246.131C409.938 243.99 408.206 242.254 406.068 242.254C403.931 242.254 402.198 243.99 402.198 246.131C402.198 248.272 403.931 250.008 406.068 250.008Z" fill="#FEB062"/>
<path d="M406.068 269.772C408.206 269.772 409.938 268.036 409.938 265.895C409.938 263.753 408.206 262.018 406.068 262.018C403.931 262.018 402.198 263.753 402.198 265.895C402.198 268.036 403.931 269.772 406.068 269.772Z" fill="#151515"/>
<path d="M406.068 289.535C408.206 289.535 409.938 287.799 409.938 285.658C409.938 283.517 408.206 281.781 406.068 281.781C403.931 281.781 402.198 283.517 402.198 285.658C402.198 287.799 403.931 289.535 406.068 289.535Z" fill="#222427"/>
<path opacity="0.5" d="M406.068 309.299C408.206 309.299 409.938 307.563 409.938 305.422C409.938 303.281 408.206 301.545 406.068 301.545C403.931 301.545 402.198 303.281 402.198 305.422C402.198 307.563 403.931 309.299 406.068 309.299Z" fill="#FEB062"/>
<path d="M459.776 246.129C459.776 246.711 459.545 247.268 459.135 247.68C458.724 248.091 458.167 248.322 457.587 248.322H420.387C419.869 248.332 419.364 248.163 418.956 247.844C418.548 247.525 418.262 247.075 418.145 246.57C418.08 246.251 418.087 245.921 418.165 245.605C418.243 245.289 418.39 244.994 418.595 244.742C418.801 244.49 419.06 244.287 419.354 244.147C419.648 244.008 419.969 243.935 420.294 243.936H457.587C457.874 243.935 458.159 243.992 458.425 244.102C458.69 244.213 458.932 244.374 459.135 244.578C459.338 244.781 459.5 245.023 459.61 245.289C459.72 245.556 459.776 245.841 459.776 246.129Z" fill="#222427"/>
<path d="M459.776 265.894C459.776 266.476 459.545 267.034 459.135 267.445C458.724 267.856 458.167 268.087 457.587 268.087H420.409C420.105 268.092 419.804 268.035 419.523 267.921C419.241 267.807 418.985 267.637 418.771 267.422C418.556 267.207 418.386 266.951 418.272 266.67C418.157 266.388 418.101 266.086 418.105 265.782C418.134 265.22 418.377 264.691 418.785 264.304C419.192 263.917 419.732 263.701 420.294 263.701H457.587C457.874 263.701 458.159 263.758 458.424 263.868C458.69 263.978 458.931 264.14 459.135 264.343C459.338 264.547 459.499 264.789 459.609 265.055C459.719 265.321 459.776 265.606 459.776 265.894Z" fill="#222427"/>
<path d="M459.776 285.659C459.776 286.24 459.545 286.798 459.135 287.21C458.724 287.621 458.167 287.852 457.586 287.852H420.068C419.546 287.852 419.046 287.644 418.677 287.275C418.308 286.905 418.101 286.404 418.101 285.882V285.436C418.101 284.913 418.308 284.412 418.677 284.043C419.046 283.673 419.546 283.466 420.068 283.466H457.586C457.874 283.466 458.159 283.522 458.424 283.633C458.69 283.743 458.931 283.904 459.135 284.108C459.338 284.311 459.499 284.553 459.609 284.819C459.719 285.085 459.776 285.371 459.776 285.659Z" fill="#222427"/>
<path d="M459.776 305.423C459.776 306.005 459.546 306.563 459.135 306.974C458.724 307.385 458.167 307.616 457.587 307.616H420.395C419.877 307.626 419.371 307.458 418.962 307.139C418.552 306.821 418.264 306.371 418.145 305.866C418.08 305.547 418.087 305.217 418.165 304.901C418.242 304.585 418.389 304.29 418.595 304.038C418.801 303.786 419.059 303.583 419.353 303.443C419.647 303.304 419.968 303.231 420.293 303.231H457.586C457.873 303.231 458.158 303.288 458.423 303.398C458.689 303.508 458.931 303.669 459.134 303.873C459.337 304.076 459.499 304.318 459.609 304.584C459.719 304.85 459.776 305.135 459.776 305.423Z" fill="#222427"/>
<path d="M333.453 275.777C333.454 280.503 334.918 285.112 337.643 288.97C340.368 292.828 344.22 295.745 348.668 297.318L342.412 312.604C333.808 309.355 326.614 303.185 322.084 295.169C317.554 287.153 315.975 277.799 317.622 268.737C319.269 259.674 324.037 251.478 331.097 245.575C338.157 239.673 347.06 236.439 356.255 236.438V252.939C350.208 252.938 344.409 255.344 340.133 259.627C335.857 263.91 333.454 269.719 333.453 275.777Z" fill="#FEB062"/>
<path d="M395.528 275.777H379.056C379.056 269.719 376.654 263.909 372.378 259.625C368.102 255.341 362.302 252.935 356.255 252.935V236.434C366.671 236.434 376.66 240.579 384.025 247.957C391.39 255.335 395.528 265.342 395.528 275.777Z" fill="#151515"/>
<path d="M395.528 275.776C395.527 284.691 392.505 293.341 386.957 300.311C381.409 307.281 373.663 312.157 364.988 314.142L362.197 297.831C367.036 296.522 371.309 293.652 374.357 289.665C377.404 285.679 379.056 280.798 379.057 275.776H395.528Z" fill="#222427"/>
<path opacity="0.5" d="M364.987 314.142C357.473 315.848 349.625 315.312 342.412 312.601L348.668 297.317C353.023 298.849 357.738 299.028 362.197 297.833L364.987 314.142Z" fill="#FEB062"/>
<path opacity="0.15" d="M275.437 79.8848H99.5793C93.8964 79.8848 89.2896 84.4999 89.2896 90.193V320.194C89.2896 325.887 93.8964 330.502 99.5793 330.502H275.437C281.12 330.502 285.727 325.887 285.727 320.194V90.193C285.727 84.4999 281.12 79.8848 275.437 79.8848Z" fill="#FEB062"/>
<path d="M240.656 177.696C240.656 189.132 237.271 200.311 230.929 209.819C224.587 219.328 215.573 226.739 205.027 231.115C194.48 235.492 182.875 236.637 171.679 234.406C160.483 232.175 150.199 226.668 142.127 218.582C134.055 210.495 128.558 200.193 126.331 188.977C124.104 177.761 125.247 166.135 129.615 155.57C133.984 145.004 141.381 135.974 150.873 129.621C160.364 123.267 171.523 119.876 182.939 119.876V177.696H240.656Z" fill="#DBDBDB"/>
<path opacity="0.6" d="M247.732 170.185H190.018V112.365C205.325 112.366 220.005 118.458 230.828 129.301C241.652 140.144 247.732 154.851 247.732 170.185Z" fill="#FEB062"/>
<path opacity="0.6" d="M123.09 268.317C125.227 268.317 126.96 266.581 126.96 264.44C126.96 262.298 125.227 260.562 123.09 260.562C120.952 260.562 119.22 262.298 119.22 264.44C119.22 266.581 120.952 268.317 123.09 268.317Z" fill="#FEB062"/>
<path d="M123.09 288.08C125.227 288.08 126.96 286.344 126.96 284.203C126.96 282.062 125.227 280.326 123.09 280.326C120.952 280.326 119.22 282.062 119.22 284.203C119.22 286.344 120.952 288.08 123.09 288.08Z" fill="#DBDBDB"/>
<path opacity="0.6" d="M255.685 264.441C255.685 265.023 255.455 265.581 255.044 265.992C254.633 266.403 254.076 266.634 253.496 266.634H137.408C136.891 266.644 136.385 266.475 135.977 266.156C135.569 265.837 135.283 265.387 135.166 264.881C135.101 264.562 135.108 264.233 135.186 263.917C135.264 263.601 135.411 263.306 135.617 263.054C135.822 262.801 136.082 262.598 136.375 262.459C136.669 262.319 136.99 262.247 137.315 262.247H253.496C253.783 262.247 254.068 262.304 254.334 262.414C254.599 262.524 254.841 262.686 255.044 262.89C255.248 263.093 255.409 263.335 255.519 263.601C255.629 263.868 255.685 264.153 255.685 264.441Z" fill="#FEB062"/>
<path d="M255.685 284.203C255.685 284.785 255.454 285.343 255.044 285.754C254.633 286.165 254.076 286.396 253.495 286.396H137.43C137.126 286.401 136.825 286.345 136.544 286.23C136.262 286.116 136.006 285.946 135.791 285.732C135.577 285.517 135.407 285.261 135.292 284.979C135.178 284.697 135.121 284.395 135.125 284.091C135.155 283.529 135.398 283 135.806 282.613C136.213 282.226 136.753 282.01 137.315 282.01H253.495C253.783 282.01 254.068 282.066 254.333 282.177C254.599 282.287 254.84 282.449 255.044 282.652C255.247 282.856 255.408 283.098 255.518 283.364C255.628 283.63 255.685 283.915 255.685 284.203Z" fill="#222427"/>
<path d="M72.5174 491.541C72.4556 491.541 72.3945 491.529 72.3375 491.505C72.2805 491.482 72.2287 491.447 72.1852 491.403C71.5227 490.74 70.444 478.571 67.5371 442.34C66.3475 427.514 65.2236 413.511 64.4039 405.001C64.3467 404.393 64.11 404.322 64.0329 404.299C62.9107 403.96 59.4973 406.657 57.592 409.018C57.5532 409.066 57.5053 409.106 57.4511 409.135C57.3969 409.165 57.3374 409.183 57.276 409.19C57.2146 409.197 57.1525 409.191 57.0933 409.173C57.0341 409.156 56.9789 409.127 56.9309 409.088C56.8829 409.049 56.843 409.001 56.8135 408.947C56.784 408.892 56.7655 408.833 56.759 408.771C56.7525 408.71 56.7581 408.648 56.7756 408.588C56.7931 408.529 56.8221 408.474 56.8609 408.426C58.1185 406.864 62.2281 402.772 64.3032 403.397C64.6153 403.505 64.8845 403.71 65.0712 403.982C65.2579 404.255 65.352 404.58 65.3397 404.911C66.16 413.428 67.2833 427.435 68.474 442.264C70.2404 464.281 72.2412 489.224 72.8992 490.796C72.9492 490.866 72.9789 490.949 72.9851 491.035C72.9913 491.121 72.9737 491.207 72.9343 491.284C72.8949 491.361 72.8351 491.425 72.7616 491.471C72.6881 491.516 72.6036 491.54 72.5174 491.54V491.541Z" fill="#4E4E4E"/>
<path d="M63.1976 420.618C70.9953 414.356 73.5798 404.61 68.9703 398.849C64.3607 393.088 54.3025 393.494 46.5048 399.756C38.7071 406.018 36.1226 415.764 40.7321 421.525C45.3417 427.286 55.3999 426.88 63.1976 420.618Z" fill="#0CBC8B"/>
<path opacity="0.2" d="M63.1976 420.618C70.9953 414.356 73.5798 404.61 68.9703 398.849C64.3607 393.088 54.3025 393.494 46.5048 399.756C38.7071 406.018 36.1226 415.764 40.7321 421.525C45.3417 427.286 55.3999 426.88 63.1976 420.618Z" fill="#222427"/>
<path d="M42.9167 422.99C42.8721 422.989 42.8285 422.977 42.7909 422.953C42.7534 422.929 42.7233 422.895 42.7044 422.854C42.6855 422.814 42.6784 422.769 42.684 422.725C42.6896 422.68 42.7077 422.639 42.7361 422.604L64.9591 395.757C64.9989 395.709 65.0562 395.679 65.1182 395.673C65.1803 395.667 65.2421 395.686 65.2901 395.726C65.3381 395.766 65.3683 395.823 65.3741 395.885C65.3799 395.948 65.3608 396.01 65.321 396.058L43.0979 422.905C43.0758 422.931 43.0481 422.953 43.0168 422.968C42.9855 422.982 42.9513 422.99 42.9167 422.99Z" fill="#222427"/>
<path d="M77.3645 485.786C77.2896 485.786 77.2158 485.768 77.1492 485.733C77.0827 485.699 77.0254 485.649 76.982 485.588C76.9386 485.527 76.9104 485.456 76.8998 485.382C76.8892 485.307 76.8964 485.232 76.9209 485.161L85.267 461.111C85.5125 460.404 85.9312 459.771 86.4847 459.268C87.0382 458.765 87.7088 458.41 88.435 458.234C89.1612 458.059 89.9198 458.068 90.6413 458.263C91.3627 458.457 92.0239 458.83 92.5642 459.347L96.9774 463.57C97.0648 463.657 97.1147 463.775 97.1163 463.898C97.118 464.022 97.0712 464.141 96.9861 464.23C96.901 464.319 96.7844 464.371 96.6613 464.375C96.5382 464.379 96.4185 464.334 96.328 464.251L91.9148 460.028C91.4883 459.62 90.9664 459.325 90.3968 459.172C89.8273 459.018 89.2284 459.01 88.655 459.149C88.0817 459.287 87.5523 459.568 87.1153 459.965C86.6784 460.362 86.3479 460.862 86.1542 461.42L77.8081 485.473C77.7755 485.565 77.7154 485.644 77.636 485.7C77.5565 485.756 77.4617 485.786 77.3645 485.786Z" fill="#4E4E4E"/>
<path d="M109.307 476.884C115.085 472.302 114.742 462.223 108.539 454.373C102.337 446.523 92.6242 443.874 86.8453 448.457C81.0665 453.039 81.41 463.118 87.6125 470.968C93.815 478.818 103.528 481.467 109.307 476.884Z" fill="#0CBC8B"/>
<path d="M68.725 490.008C68.6194 490.008 68.5168 489.972 68.4338 489.906C68.3509 489.841 68.2924 489.749 68.2677 489.646L54.2622 430.969C54.1667 430.569 53.9629 430.203 53.6732 429.911C53.3835 429.619 53.0191 429.414 52.6201 429.316C52.2212 429.219 51.8031 429.233 51.412 429.358C51.0208 429.484 50.6716 429.714 50.4029 430.025L46.0846 435.024C46.0449 435.073 45.9958 435.113 45.9403 435.143C45.8847 435.172 45.8239 435.19 45.7613 435.195C45.6987 435.201 45.6357 435.194 45.576 435.174C45.5162 435.155 45.461 435.124 45.4135 435.082C45.366 435.041 45.3272 434.991 45.2994 434.935C45.2717 434.878 45.2555 434.817 45.2518 434.754C45.2481 434.691 45.257 434.628 45.278 434.569C45.299 434.51 45.3317 434.455 45.3741 434.409L49.6924 429.409C50.0743 428.967 50.5705 428.64 51.1263 428.462C51.6821 428.284 52.2761 428.264 52.8429 428.402C53.4097 428.541 53.9274 428.833 54.3391 429.247C54.7507 429.662 55.0404 430.181 55.1762 430.75L69.1818 489.428C69.1962 489.488 69.1986 489.55 69.1889 489.611C69.1792 489.672 69.1576 489.731 69.1253 489.783C69.093 489.836 69.0507 489.882 69.0008 489.918C68.9508 489.954 68.8942 489.98 68.8342 489.994C68.7985 490.003 68.7618 490.008 68.725 490.008Z" fill="#4E4E4E"/>
<path d="M63.5558 448.063C65.2587 438.198 60.752 429.18 53.4897 427.922C46.2274 426.664 38.9596 433.642 37.2567 443.507C35.5538 453.372 40.0606 462.389 47.3229 463.647C54.5852 464.905 61.8529 457.928 63.5558 448.063Z" fill="#0CBC8B"/>
<path d="M72.5178 491.542C72.4987 491.542 72.4796 491.54 72.4606 491.538C72.3369 491.523 72.2244 491.459 72.1477 491.361C72.0709 491.262 72.0363 491.137 72.0513 491.014L80.9965 418.254C81.0939 417.462 81.4178 416.714 81.9292 416.102C82.4405 415.489 83.1177 415.037 83.8791 414.801C84.6406 414.565 85.454 414.554 86.2215 414.769C86.989 414.985 87.678 415.418 88.2057 416.017L98.4303 427.618C98.4712 427.664 98.5025 427.718 98.5226 427.776C98.5427 427.835 98.5511 427.897 98.5473 427.958C98.5435 428.02 98.5276 428.08 98.5005 428.136C98.4734 428.192 98.4357 428.241 98.3894 428.282C98.3432 428.323 98.2893 428.355 98.231 428.375C98.1726 428.395 98.1109 428.403 98.0493 428.399C97.9877 428.396 97.9274 428.38 97.8719 428.352C97.8165 428.325 97.7669 428.288 97.726 428.241L87.5014 416.64C87.0936 416.178 86.5612 415.843 85.968 415.676C85.3749 415.509 84.7463 415.518 84.1578 415.7C83.5693 415.883 83.0459 416.232 82.6506 416.705C82.2553 417.179 82.0049 417.756 81.9295 418.369L72.9837 491.128C72.9697 491.242 72.9146 491.347 72.8288 491.423C72.743 491.499 72.6324 491.541 72.5178 491.542Z" fill="#4E4E4E"/>
<path d="M108.916 434.064C112.483 427.604 108.286 418.438 99.5408 413.592C90.7958 408.746 80.8147 410.055 77.2473 416.516C73.68 422.976 77.8773 432.142 86.6223 436.988C95.3673 441.834 105.348 440.525 108.916 434.064Z" fill="#0CBC8B"/>
<path opacity="0.2" d="M109.307 476.884C115.085 472.302 114.742 462.223 108.539 454.373C102.337 446.523 92.6242 443.874 86.8453 448.457C81.0665 453.039 81.41 463.118 87.6125 470.968C93.815 478.818 103.528 481.467 109.307 476.884Z" fill="#222427"/>
<path opacity="0.5" d="M63.5558 448.063C65.2587 438.198 60.752 429.18 53.4897 427.922C46.2274 426.664 38.9596 433.642 37.2567 443.507C35.5538 453.372 40.0606 462.389 47.3229 463.647C54.5852 464.905 61.8529 457.928 63.5558 448.063Z" fill="#222427"/>
<path opacity="0.5" d="M108.916 434.064C112.483 427.604 108.286 418.438 99.5408 413.592C90.7958 408.746 80.8147 410.055 77.2473 416.516C73.68 422.976 77.8773 432.142 86.6223 436.988C95.3673 441.834 105.348 440.525 108.916 434.064Z" fill="#222427"/>
<path d="M83.9588 553.277H61.0755L57.2837 479.932H87.7506L83.9588 553.277Z" fill="#767676"/>
<path opacity="0.3" d="M83.9588 553.277H61.0755L57.2837 479.932H87.7506L83.9588 553.277Z" fill="#222427"/>
<path d="M109.309 477.118C109.273 477.118 109.238 477.11 109.206 477.095C109.174 477.079 109.146 477.057 109.124 477.029L86.6627 448.601C86.6435 448.577 86.6293 448.549 86.6208 448.52C86.6124 448.49 86.6098 448.459 86.6134 448.428C86.6169 448.397 86.6264 448.368 86.6414 448.341C86.6564 448.314 86.6766 448.29 86.7007 448.271C86.7249 448.252 86.7526 448.237 86.7823 448.229C86.812 448.22 86.843 448.218 86.8737 448.221C86.9043 448.225 86.934 448.234 86.961 448.249C86.9879 448.264 87.0117 448.285 87.0309 448.309L109.493 476.737C109.531 476.786 109.549 476.848 109.542 476.91C109.534 476.972 109.503 477.028 109.454 477.067C109.413 477.1 109.362 477.118 109.309 477.118Z" fill="#222427"/>
<path d="M107.423 436.343C107.373 436.343 107.324 436.327 107.284 436.297L78.5414 415.272C78.5155 415.254 78.4934 415.232 78.4765 415.205C78.4596 415.179 78.4481 415.149 78.4428 415.118C78.4375 415.087 78.4385 415.055 78.4456 415.024C78.4528 414.994 78.466 414.965 78.4845 414.939C78.503 414.914 78.5264 414.893 78.5534 414.876C78.5803 414.86 78.6102 414.85 78.6413 414.845C78.6724 414.841 78.704 414.843 78.7344 414.851C78.7648 414.859 78.7932 414.873 78.8181 414.892L107.561 435.917C107.602 435.946 107.631 435.988 107.647 436.035C107.662 436.082 107.662 436.133 107.646 436.18C107.631 436.228 107.601 436.269 107.561 436.298C107.521 436.327 107.472 436.343 107.423 436.343Z" fill="#222427"/>
<path d="M46.1574 463.34C46.1367 463.34 46.1162 463.337 46.0962 463.332C46.0364 463.316 45.9854 463.277 45.9543 463.223C45.9231 463.169 45.9143 463.106 45.9299 463.045L55.0798 428.702C55.0964 428.642 55.1356 428.592 55.1889 428.561C55.2423 428.529 55.3057 428.52 55.3656 428.535C55.4255 428.551 55.4766 428.59 55.5078 428.644C55.539 428.698 55.5477 428.762 55.532 428.822L46.3838 463.165C46.3705 463.215 46.3412 463.259 46.3002 463.291C46.2593 463.323 46.2091 463.34 46.1574 463.34Z" fill="#222427"/>
<path d="M513.042 553.276H44.0457C43.9395 553.276 43.8378 553.234 43.7627 553.159C43.6877 553.084 43.6455 552.982 43.6455 552.875C43.6455 552.769 43.6877 552.667 43.7627 552.592C43.8378 552.517 43.9395 552.475 44.0457 552.475H513.042C513.148 552.475 513.25 552.517 513.325 552.592C513.4 552.667 513.442 552.769 513.442 552.875C513.442 552.982 513.4 553.084 513.325 553.159C513.25 553.234 513.148 553.276 513.042 553.276Z" fill="#767676"/>
<path d="M163.365 527.578C163.365 527.578 165.946 540.982 178.471 541.731C190.996 542.48 188.281 552.475 188.281 552.475H140.413V528.513L163.365 527.578Z" fill="#FEB062"/>
<path d="M137.167 283.086C137.167 283.086 140.746 279.057 140.715 288.196C140.596 322.287 138.3 536.133 138.3 536.133L169.756 535.868L188.811 281.7L137.167 283.086Z" fill="#151515"/>
<path d="M217.078 527.578C217.078 527.578 219.659 540.982 232.186 541.728C244.712 542.475 241.996 552.472 241.996 552.472H194.126V528.513L217.078 527.578Z" fill="#FEB062"/>
<path d="M223.162 285.733C223.162 285.733 227.092 402.247 226.683 407.942L222.988 535.248L192.052 535.821L187.064 403.335C187.064 403.335 183.794 366.79 174.98 332.854C170.47 315.437 167.756 297.603 166.88 279.631L223.162 285.733Z" fill="#151515"/>
<path d="M182.351 368.341L184.93 328.821C184.93 328.821 187.58 345.251 187.58 359.412C187.58 366.334 186.157 393.739 186.157 393.739L182.351 368.341Z" fill="#1E1E1E"/>
<path d="M136.825 283.082L136.722 283.088C136.722 283.088 136.797 281.101 136.825 283.082Z" fill="#983333"/>
<path d="M136.953 283.082L136.851 283.088C136.851 283.088 136.925 281.101 136.953 283.082Z" fill="#983333"/>
<path d="M309.322 188.511C309.133 188.135 308.831 187.827 308.46 187.63C308.088 187.433 307.665 187.356 307.248 187.411C307.252 187.374 307.244 187.336 307.225 187.304C307.206 187.279 307.18 187.26 307.151 187.248C307.122 187.236 307.09 187.232 307.058 187.236L308.465 186.226C308.886 185.937 309.189 185.506 309.317 185.011C309.445 184.516 309.39 183.991 309.161 183.534C308.922 183.09 308.526 182.75 308.051 182.582C307.575 182.414 307.054 182.428 306.589 182.623C306.593 182.603 306.579 182.584 306.576 182.566L307.154 182.151C307.55 181.877 307.839 181.475 307.972 181.013C308.106 180.55 308.076 180.056 307.887 179.613C307.763 179.338 307.58 179.094 307.35 178.898C307.121 178.703 306.851 178.561 306.56 178.482C306.269 178.404 305.964 178.391 305.667 178.445C305.371 178.499 305.09 178.618 304.845 178.793L303.511 179.752C303.507 179.744 303.511 179.734 303.506 179.727C303.501 179.72 303.486 179.717 303.479 179.709C303.785 179.363 303.965 178.924 303.989 178.463C304.014 178.002 303.881 177.546 303.612 177.171C302.984 176.156 301.53 176.364 300.667 176.983L292.817 182.415L294.22 180.048C294.502 179.593 294.601 179.047 294.498 178.521C294.394 177.995 294.095 177.528 293.662 177.214C293.432 177.06 293.173 176.955 292.901 176.904C292.63 176.854 292.35 176.859 292.081 176.92C291.811 176.981 291.557 177.097 291.333 177.26C291.11 177.423 290.922 177.629 290.78 177.867L283.12 190.788C282.221 192.304 281.948 194.111 282.358 195.826C282.768 197.54 283.829 199.027 285.316 199.971C287.041 201.064 289.052 201.618 291.092 201.559C293.133 201.5 295.109 200.832 296.768 199.641L308.622 191.128C309.016 190.835 309.3 190.417 309.427 189.942C309.554 189.466 309.517 188.962 309.322 188.511Z" fill="#E98862"/>
<g opacity="0.25">
<path d="M295.743 185.119C295.772 185.159 295.815 185.186 295.863 185.194C295.912 185.203 295.961 185.192 296.002 185.163L303.461 179.988C303.481 179.974 303.498 179.956 303.511 179.935C303.525 179.915 303.534 179.892 303.538 179.867C303.543 179.843 303.542 179.818 303.537 179.794C303.532 179.77 303.522 179.747 303.508 179.726C303.494 179.706 303.476 179.689 303.455 179.675C303.435 179.662 303.411 179.653 303.387 179.649C303.363 179.644 303.338 179.645 303.314 179.65C303.29 179.655 303.267 179.665 303.247 179.679L295.788 184.854C295.747 184.883 295.719 184.926 295.71 184.975C295.701 185.024 295.712 185.075 295.74 185.116L295.743 185.119Z" fill="#0C0C0C"/>
</g>
<g opacity="0.25">
<path d="M297.931 188.478C297.959 188.518 298.003 188.545 298.051 188.553C298.099 188.561 298.149 188.55 298.189 188.522L306.514 182.747C306.554 182.718 306.582 182.674 306.591 182.625C306.6 182.576 306.589 182.526 306.56 182.485C306.531 182.445 306.488 182.418 306.439 182.409C306.391 182.401 306.341 182.411 306.299 182.437L297.975 188.213C297.934 188.241 297.906 188.285 297.898 188.334C297.889 188.383 297.9 188.434 297.928 188.475L297.931 188.478Z" fill="#0C0C0C"/>
</g>
<g opacity="0.25">
<path d="M300.279 192.128C300.308 192.168 300.351 192.195 300.4 192.203C300.448 192.211 300.497 192.2 300.538 192.173L307.178 187.565C307.219 187.537 307.247 187.493 307.256 187.444C307.265 187.395 307.254 187.345 307.225 187.304C307.197 187.263 307.154 187.235 307.105 187.226C307.056 187.217 307.005 187.228 306.964 187.256L300.324 191.863C300.283 191.892 300.255 191.935 300.246 191.984C300.237 192.033 300.248 192.084 300.276 192.125L300.279 192.128Z" fill="#0C0C0C"/>
</g>
<path d="M278.6 187.846L256.101 226.233L228.648 190.159L205.847 210.751L244.783 261.268L245.038 261.627C246.596 263.766 248.672 265.471 251.071 266.583C253.469 267.696 256.111 268.178 258.747 267.984C261.383 267.791 263.926 266.929 266.138 265.478C268.349 264.028 270.155 262.038 271.386 259.695L303.381 201.652L278.6 187.846Z" fill="#FEB062"/>
<path d="M253.895 230.85C253.846 230.85 253.798 230.838 253.755 230.814C253.712 230.79 253.676 230.755 253.651 230.713C253.625 230.671 253.61 230.624 253.609 230.575C253.607 230.525 253.618 230.477 253.64 230.433L255.846 226.103C255.88 226.035 255.94 225.984 256.013 225.961C256.085 225.938 256.163 225.944 256.231 225.979C256.298 226.013 256.349 226.073 256.372 226.146C256.396 226.218 256.389 226.297 256.355 226.364L254.149 230.694C254.125 230.741 254.089 230.78 254.044 230.808C253.999 230.835 253.947 230.85 253.895 230.85Z" fill="#0C0C0C"/>
<path d="M227.063 226.014L226.376 238.139L226.947 238.171L227.634 226.046L227.063 226.014Z" fill="#0C0C0C"/>
<path d="M154.564 138.266C154.564 138.266 153.51 151.762 150.42 156.627C141.524 170.632 138.811 186.473 147.46 194.865C156.108 203.257 211.883 204.023 216.329 184.998C220.071 168.985 212.457 167.17 210.753 153.902C209.982 147.899 207.815 135.307 207.815 135.307" fill="#1E1E1E"/>
<path d="M202.13 181.959C202.034 181.946 200.965 199.707 180.369 198.159C166.111 197.088 161.027 181.934 160.7 181.934C162.237 181.607 164.826 181.132 165.509 180.765C167.754 179.557 170.532 178.299 171.256 173.932C171.673 171.412 170.965 158.535 171.183 155.987L193.07 160.881C192.764 166.261 190.623 178.732 198.125 180.939C199.374 181.304 200.718 181.64 202.13 181.959Z" fill="#E98862"/>
<path opacity="0.52" d="M193.377 175.842C193.034 174.735 192.813 173.594 192.718 172.439C192.477 169.803 192.525 167.149 192.861 164.524C188.413 163.923 184.222 162.083 180.765 159.215C180.358 160.719 178.123 167.29 178.742 168.717C179.912 171.419 185.409 175.842 193.377 175.842Z" fill="#0C0C0C"/>
<path d="M190.475 170.253C181.837 170.988 170.713 167.402 168.534 155.864L166.567 145.453C164.387 133.916 168.669 123.416 179.513 121.36C190.357 119.304 200.23 127.12 202.409 138.658L203.28 143.267C204.117 147.694 205.888 168.939 190.475 170.253Z" fill="#E98862"/>
<path d="M200.19 143.769C200.941 143.769 201.549 143.159 201.549 142.407C201.549 141.655 200.941 141.045 200.19 141.045C199.439 141.045 198.831 141.655 198.831 142.407C198.831 143.159 199.439 143.769 200.19 143.769Z" fill="#0C0C0C"/>
<path d="M186.264 145.633C187.014 145.633 187.623 145.023 187.623 144.271C187.623 143.519 187.014 142.909 186.264 142.909C185.513 142.909 184.904 143.519 184.904 144.271C184.904 145.023 185.513 145.633 186.264 145.633Z" fill="#0C0C0C"/>
<path opacity="0.52" d="M193.905 154.257L193.926 154.254C194.366 154.167 194.8 154.057 195.227 153.922C195.864 153.716 196.699 153.377 196.591 152.8C196.467 152.142 193.329 145.39 192.972 144.622C192.956 144.589 192.935 144.559 192.908 144.534C192.881 144.509 192.849 144.489 192.815 144.476C192.78 144.464 192.744 144.458 192.707 144.459C192.67 144.461 192.634 144.469 192.601 144.485C192.568 144.501 192.538 144.523 192.513 144.55C192.488 144.577 192.469 144.609 192.456 144.643C192.444 144.678 192.438 144.715 192.44 144.752C192.442 144.788 192.451 144.824 192.467 144.858C193.805 147.734 195.96 152.461 196.043 152.903C195.972 153.109 194.913 153.498 193.823 153.705C193.751 153.717 193.687 153.758 193.645 153.817C193.602 153.876 193.585 153.949 193.595 154.021C193.606 154.093 193.645 154.158 193.702 154.202C193.76 154.246 193.833 154.265 193.905 154.256V154.257Z" fill="#0C0C0C"/>
<path opacity="0.52" d="M192.3 159.236C194.069 159.006 195.759 158.363 197.234 157.358C197.296 157.318 197.339 157.255 197.354 157.182C197.37 157.11 197.356 157.034 197.315 156.972C197.275 156.91 197.212 156.867 197.139 156.852C197.067 156.836 196.992 156.851 196.93 156.891C193.738 158.974 190.566 159.312 187.757 157.865C187.7 157.834 187.642 157.806 187.582 157.781C187.513 157.756 187.436 157.759 187.369 157.791C187.302 157.822 187.251 157.879 187.226 157.949C187.2 158.018 187.204 158.095 187.235 158.162C187.267 158.229 187.324 158.281 187.393 158.306C187.415 158.315 187.45 158.335 187.502 158.363C188.979 159.126 190.65 159.43 192.3 159.236Z" fill="#0C0C0C"/>
<path d="M157.891 149.081L167.612 147.296C174.974 144.311 177.201 131.544 177.201 131.544C177.201 131.544 186.143 140.276 207.814 135.309C207.814 135.309 203.469 105.033 171.453 113.834C161.13 116.673 153.72 127.094 154.644 141.022C155.291 150.786 157.891 149.081 157.891 149.081Z" fill="#1E1E1E"/>
<path d="M169.872 159.251C166.577 159.876 163.238 156.85 162.612 153.549C161.986 150.247 164.316 147.921 167.611 147.296L169.726 149.186L172.703 158.714L169.872 159.251Z" fill="#E98862"/>
<path d="M194.959 139.102C195.92 138.48 197.03 138.128 198.174 138.085C198.737 138.059 199.3 138.119 199.845 138.262C200.385 138.401 200.906 138.607 201.394 138.876C201.463 138.91 201.515 138.97 201.54 139.043C201.565 139.115 201.561 139.195 201.528 139.264C201.494 139.334 201.435 139.387 201.363 139.413C201.29 139.438 201.211 139.434 201.141 139.401L201.121 139.392C200.669 139.169 200.191 139.005 199.699 138.902C199.212 138.797 198.713 138.767 198.217 138.813C197.234 138.895 196.29 139.237 195.481 139.803L195.455 139.822C195.409 139.856 195.356 139.88 195.3 139.894C195.244 139.907 195.186 139.91 195.129 139.901C195.073 139.892 195.018 139.872 194.969 139.842C194.92 139.812 194.878 139.772 194.844 139.726C194.81 139.679 194.786 139.626 194.772 139.57C194.759 139.514 194.757 139.456 194.766 139.399C194.775 139.343 194.795 139.288 194.825 139.239C194.855 139.19 194.894 139.147 194.94 139.113L194.959 139.102Z" fill="#0C0C0C"/>
<path d="M186.289 141.146C185.331 140.911 184.327 140.934 183.381 141.213C182.902 141.35 182.447 141.559 182.031 141.832C181.609 142.107 181.223 142.434 180.882 142.806L180.867 142.821C180.813 142.875 180.741 142.905 180.666 142.907C180.59 142.908 180.517 142.88 180.462 142.829C180.407 142.777 180.374 142.706 180.37 142.63C180.366 142.555 180.392 142.481 180.441 142.424C180.8 141.996 181.21 141.615 181.664 141.29C182.121 140.96 182.624 140.7 183.158 140.52C184.241 140.147 185.403 140.073 186.524 140.305C186.637 140.329 186.737 140.398 186.8 140.496C186.863 140.594 186.885 140.713 186.86 140.827C186.836 140.94 186.767 141.04 186.67 141.103C186.572 141.167 186.453 141.188 186.34 141.164L186.322 141.159L186.289 141.146Z" fill="#0C0C0C"/>
<path opacity="0.52" d="M192.676 161.856C192.997 161.819 193.313 161.755 193.623 161.665C193.694 161.645 193.754 161.597 193.79 161.532C193.826 161.467 193.834 161.391 193.814 161.32C193.794 161.249 193.746 161.189 193.681 161.153C193.616 161.117 193.54 161.108 193.469 161.129C191.605 161.666 190.545 160.957 190.501 160.924C190.441 160.881 190.366 160.864 190.293 160.877C190.22 160.89 190.155 160.932 190.112 160.992C190.07 161.053 190.053 161.128 190.066 161.201C190.079 161.274 190.12 161.339 190.181 161.382C190.933 161.824 191.815 161.991 192.676 161.856Z" fill="#0C0C0C"/>
<path d="M167.635 147.173L167.538 146.903C179.854 142.474 176.842 130.366 176.811 130.244L177.087 130.171C177.12 130.295 180.2 142.654 167.635 147.173Z" fill="#0C0C0C"/>
<path opacity="0.1" d="M185.121 155.059C186.543 154.906 187.604 153.935 187.492 152.89C187.38 151.845 186.136 151.123 184.715 151.276C183.293 151.429 182.232 152.401 182.344 153.445C182.456 154.49 183.7 155.213 185.121 155.059Z" fill="#0C0C0C"/>
<path opacity="0.1" d="M200.218 151.108C200.332 152.151 201.576 152.873 202.998 152.722C203.244 152.695 203.487 152.643 203.722 152.566C203.802 151.324 203.819 150.13 203.796 149.023C203.403 148.92 202.994 148.891 202.59 148.938C201.168 149.089 200.107 150.06 200.218 151.108Z" fill="#0C0C0C"/>
<path d="M227.719 221.06C227.071 228.694 223.915 276.329 223.291 285.733H140.76C140.274 277.251 134.664 240.162 132.823 223.575C131.065 207.748 127.616 199.823 130.144 195.144C134.275 187.497 145.563 183.077 153.26 182.033C157.96 181.396 165.028 180.939 165.028 180.939C165.028 180.939 165.627 193.069 179.899 193.744C199.326 194.66 198.029 180.939 198.125 180.939C201.273 180.939 219.253 182.935 223.651 185.547C235.636 192.658 229.096 204.883 227.719 221.06Z" fill="#FEB062"/>
<path d="M281.29 226.393L273.334 265.128C273.174 265.915 272.748 266.622 272.13 267.133C271.511 267.644 270.737 267.926 269.935 267.934L215.156 268.402C214.633 268.406 214.116 268.293 213.643 268.072C213.169 267.85 212.752 267.525 212.42 267.121C212.088 266.716 211.85 266.243 211.725 265.735C211.599 265.226 211.589 264.697 211.694 264.184L219.649 225.448C219.811 224.661 220.237 223.954 220.856 223.444C221.475 222.934 222.25 222.652 223.052 222.645L277.831 222.178C278.353 222.174 278.869 222.287 279.342 222.509C279.815 222.73 280.233 223.055 280.564 223.459C280.896 223.863 281.133 224.336 281.259 224.844C281.384 225.352 281.395 225.881 281.29 226.393Z" fill="#464646"/>
<path d="M230.21 253.907C230.239 254.417 230.083 254.921 229.771 255.325C229.459 255.729 229.012 256.006 228.512 256.106L226.825 256.479C226.855 256.489 226.883 256.506 226.905 256.529C226.927 256.552 226.942 256.58 226.951 256.61C226.955 256.646 226.947 256.683 226.928 256.713C227.334 256.828 227.693 257.065 227.958 257.394C228.222 257.722 228.378 258.125 228.403 258.546C228.405 259.037 228.243 259.514 227.941 259.901C227.639 260.287 227.216 260.561 226.74 260.676L212.5 263.843C211.772 264.007 211.028 264.09 210.282 264.09C208.62 264.089 206.982 263.684 205.512 262.909C204.041 262.134 202.78 261.012 201.838 259.64C200.84 258.188 200.446 256.404 200.74 254.666C201.035 252.928 201.995 251.374 203.416 250.334L215.529 241.463C215.796 241.268 216.106 241.14 216.433 241.091L215.318 246.514L215.615 246.445L215.678 246.434L224.967 244.538C226.002 244.309 227.42 244.687 227.603 245.867C227.701 246.319 227.643 246.79 227.44 247.205C227.237 247.62 226.899 247.954 226.482 248.152C226.488 248.158 226.499 248.163 226.499 248.175C226.499 248.186 226.494 248.192 226.494 248.203L228.1 247.848C228.394 247.783 228.699 247.784 228.992 247.851C229.286 247.918 229.561 248.049 229.798 248.235C230.034 248.422 230.227 248.658 230.361 248.928C230.496 249.198 230.569 249.494 230.575 249.796C230.575 250.277 230.409 250.743 230.105 251.116C229.801 251.489 229.377 251.744 228.906 251.84L228.214 251.995C228.209 252.018 228.214 252.04 228.203 252.058C228.707 252.061 229.192 252.253 229.562 252.595C229.933 252.937 230.164 253.405 230.21 253.907Z" fill="#E98862"/>
<g opacity="0.25">
<path d="M217.247 250.084C217.258 250.132 217.287 250.173 217.328 250.2C217.369 250.226 217.419 250.236 217.467 250.226L226.355 248.399C226.38 248.394 226.402 248.385 226.423 248.371C226.443 248.357 226.461 248.339 226.474 248.319C226.488 248.298 226.497 248.275 226.502 248.251C226.507 248.227 226.506 248.202 226.501 248.178C226.496 248.153 226.487 248.13 226.473 248.11C226.459 248.089 226.442 248.072 226.421 248.058C226.4 248.045 226.377 248.035 226.353 248.031C226.329 248.026 226.304 248.026 226.28 248.031L217.392 249.857C217.343 249.867 217.3 249.896 217.273 249.938C217.245 249.979 217.236 250.03 217.245 250.079L217.247 250.084Z" fill="#0C0C0C"/>
</g>
<g opacity="0.25">
<path d="M217.943 254.033C217.954 254.08 217.983 254.122 218.024 254.149C218.065 254.175 218.115 254.184 218.163 254.175L228.083 252.137C228.131 252.127 228.174 252.098 228.201 252.056C228.229 252.015 228.239 251.964 228.229 251.915C228.217 251.867 228.188 251.825 228.147 251.798C228.106 251.771 228.056 251.76 228.007 251.768L218.087 253.806C218.063 253.811 218.04 253.821 218.019 253.835C217.999 253.849 217.981 253.866 217.968 253.887C217.954 253.907 217.945 253.931 217.94 253.955C217.935 253.979 217.935 254.004 217.94 254.028L217.943 254.033Z" fill="#0C0C0C"/>
</g>
<g opacity="0.25">
<path d="M218.671 258.313C218.683 258.361 218.712 258.402 218.753 258.429C218.794 258.455 218.844 258.465 218.892 258.455L226.804 256.829C226.829 256.824 226.851 256.814 226.872 256.801C226.892 256.787 226.91 256.769 226.923 256.748C226.937 256.728 226.946 256.705 226.951 256.681C226.956 256.656 226.955 256.631 226.95 256.607C226.945 256.583 226.936 256.56 226.922 256.54C226.908 256.519 226.89 256.502 226.87 256.488C226.849 256.474 226.826 256.465 226.802 256.46C226.778 256.456 226.753 256.456 226.729 256.461L218.817 258.086C218.768 258.096 218.725 258.125 218.698 258.167C218.67 258.209 218.66 258.259 218.67 258.308L218.671 258.313Z" fill="#0C0C0C"/>
</g>
<path d="M211.618 269.488L134.362 283.474C131.951 283.736 129.513 283.436 127.238 282.596C124.963 281.755 122.913 280.398 121.249 278.631C119.585 276.864 118.353 274.735 117.649 272.411C116.944 270.087 116.787 267.63 117.189 265.235L128.001 200.833C128.342 198.796 129.08 196.846 130.173 195.094C131.266 193.343 132.694 191.824 134.373 190.625C136.052 189.426 137.951 188.571 139.961 188.108C141.97 187.644 144.051 187.582 146.085 187.925C148.118 188.268 150.064 189.008 151.812 190.105C153.559 191.202 155.074 192.632 156.27 194.316C157.465 195.999 158.317 197.902 158.778 199.915C159.239 201.929 159.3 204.014 158.956 206.05L151.582 250.384L208.222 243.258L211.618 269.488Z" fill="#FEB062"/>
<path d="M134.361 283.761C134.29 283.76 134.221 283.734 134.168 283.685C134.116 283.637 134.083 283.571 134.077 283.5C134.07 283.428 134.091 283.357 134.134 283.301C134.177 283.244 134.24 283.205 134.311 283.192L211.299 269.255L207.975 243.578L151.617 250.668C151.573 250.674 151.528 250.67 151.486 250.655C151.444 250.64 151.406 250.615 151.375 250.583C151.344 250.551 151.321 250.512 151.308 250.469C151.295 250.427 151.292 250.381 151.299 250.337L155.987 222.002C155.992 221.965 156.005 221.929 156.025 221.897C156.045 221.865 156.071 221.837 156.101 221.815C156.132 221.794 156.167 221.778 156.204 221.77C156.24 221.761 156.278 221.76 156.315 221.767C156.352 221.773 156.388 221.787 156.42 221.806C156.452 221.826 156.479 221.852 156.501 221.883C156.523 221.913 156.539 221.948 156.547 221.985C156.556 222.021 156.557 222.059 156.551 222.096L151.925 250.052L208.185 242.974C208.26 242.965 208.336 242.985 208.395 243.032C208.455 243.078 208.494 243.146 208.504 243.221L211.901 269.45C211.91 269.523 211.891 269.596 211.848 269.656C211.805 269.715 211.74 269.755 211.668 269.768L134.412 283.756C134.395 283.759 134.378 283.76 134.361 283.761Z" fill="#0C0C0C"/>
<path d="M151.537 250.101L146.568 250.898L146.658 251.464L151.628 250.667L151.537 250.101Z" fill="#0C0C0C"/>
<path d="M536.712 317.558H367.643C360.62 317.558 354.927 323.261 354.927 330.296V388.288C354.927 395.324 360.62 401.027 367.643 401.027H536.712C543.735 401.027 549.428 395.324 549.428 388.288V330.296C549.428 323.261 543.735 317.558 536.712 317.558Z" fill="#222427"/>
<path opacity="0.4" d="M536.712 317.558H367.643C360.62 317.558 354.927 323.261 354.927 330.296V388.288C354.927 395.324 360.62 401.027 367.643 401.027H536.712C543.735 401.027 549.428 395.324 549.428 388.288V330.296C549.428 323.261 543.735 317.558 536.712 317.558Z" fill="#FEB062"/>
<path d="M536.712 401.597H367.643C364.12 401.593 360.743 400.189 358.252 397.694C355.761 395.198 354.36 391.815 354.355 388.286V330.299C354.36 326.77 355.761 323.386 358.252 320.891C360.743 318.395 364.12 316.991 367.643 316.987H536.712C540.235 316.991 543.612 318.395 546.103 320.891C548.594 323.386 549.996 326.77 550 330.299V388.288C549.995 391.817 548.594 395.199 546.103 397.694C543.612 400.189 540.235 401.593 536.712 401.597ZM367.643 318.13C364.423 318.134 361.336 319.417 359.059 321.699C356.782 323.98 355.502 327.073 355.499 330.299V388.288C355.503 391.513 356.784 394.605 359.061 396.885C361.337 399.165 364.424 400.448 367.643 400.452H536.712C539.932 400.448 543.019 399.165 545.296 396.884C547.572 394.604 548.853 391.511 548.856 388.286V330.299C548.853 327.073 547.572 323.981 545.296 321.7C543.019 319.419 539.932 318.136 536.712 318.133L367.643 318.13Z" fill="#767676"/>
<path d="M372.368 383.242C372.214 383.242 372.063 383.2 371.931 383.121C371.798 383.043 371.689 382.93 371.616 382.794C371.542 382.659 371.506 382.506 371.511 382.352C371.517 382.198 371.564 382.048 371.647 381.918C371.833 381.632 390.518 353.01 420.212 353.01C435.728 353.01 445.129 359.008 454.221 364.807C462.636 370.177 470.585 375.248 482.886 375.248C508.035 375.248 528.294 338.659 528.495 338.29C528.604 338.09 528.788 337.942 529.007 337.877C529.225 337.813 529.46 337.839 529.659 337.948C529.859 338.057 530.007 338.242 530.071 338.46C530.135 338.679 530.109 338.914 530 339.114C529.157 340.66 509.042 376.968 482.886 376.968C470.086 376.968 461.932 371.766 453.299 366.259C444.415 360.589 435.228 354.729 420.212 354.729C391.467 354.729 373.271 382.566 373.09 382.848C373.013 382.969 372.906 383.068 372.78 383.137C372.653 383.206 372.512 383.242 372.368 383.242Z" fill="#222427"/>
<path d="M529.488 342.065C531.342 342.065 532.844 340.56 532.844 338.703C532.844 336.847 531.342 335.342 529.488 335.342C527.635 335.342 526.133 336.847 526.133 338.703C526.133 340.56 527.635 342.065 529.488 342.065Z" fill="#222427"/>
</g>
<defs>
<clipPath id="clip0_624_1085">
<rect width="550" height="552.554" fill="white" transform="translate(0 0.722656)"/>
</clipPath>
</defs>
</svg>
