<svg width="741" height="718" viewBox="0 0 741 718" fill="none" xmlns="http://www.w3.org/2000/svg">
<path d="M511.117 671.949C612.121 671.949 694 664.39 694 655.065C694 645.74 612.121 638.181 511.117 638.181C410.114 638.181 328.234 645.74 328.234 655.065C328.234 664.39 410.114 671.949 511.117 671.949Z" fill="#222427"/>
<path opacity="0.1" d="M511.117 671.949C612.121 671.949 694 664.39 694 655.065C694 645.74 612.121 638.181 511.117 638.181C410.114 638.181 328.234 645.74 328.234 655.065C328.234 664.39 410.114 671.949 511.117 671.949Z" fill="#DBDBDB"/>
<path d="M207.523 403.982H149.229V420.953H207.523V403.982Z" fill="#DBDBDB"/>
<path opacity="0.05" d="M164.695 403.982H157.057V420.953H164.695V403.982Z" fill="#DBDBDB"/>
<path d="M200.075 407.671H168.314V417.728H200.075V407.671Z" fill="#222427"/>
<path d="M254.02 406.198L199.855 382.527L193.066 398.079L247.231 421.749L254.02 406.198Z" fill="#DBDBDB"/>
<path opacity="0.05" d="M254.02 406.198L199.855 382.527L193.066 398.079L247.231 421.749L254.02 406.198Z" fill="#DBDBDB"/>
<path d="M246.746 403.019L239.649 399.917L232.86 415.469L239.957 418.571L246.746 403.019Z" fill="#222427"/>
<path d="M234.811 401.829L205.3 388.933L201.277 398.149L230.788 411.045L234.811 401.829Z" fill="#222427"/>
<path opacity="0.05" d="M254.123 618.967H239.474V628.755H254.123V618.967Z" fill="#DBDBDB"/>
<path opacity="0.05" d="M104.348 618.967H89.698V628.755H104.348V618.967Z" fill="#DBDBDB"/>
<path d="M267.552 421.75H76.2695V618.636H267.552V421.75Z" fill="#DBDBDB"/>
<path opacity="0.03" d="M267.552 421.75H76.2695V618.636H267.552V421.75Z" fill="#DBDBDB"/>
<path d="M302.999 421.75H111.717V618.636H302.999V421.75Z" fill="#DBDBDB"/>
<path opacity="0.05" d="M289.57 618.967H274.92V628.755H289.57V618.967Z" fill="#DBDBDB"/>
<path opacity="0.05" d="M139.795 618.967H125.145V628.755H139.795V618.967Z" fill="#DBDBDB"/>
<path opacity="0.7" d="M295.82 430.972H118.898V468.798H295.82V430.972Z" fill="#222427"/>
<path opacity="0.7" d="M295.82 478.056H118.898V515.882H295.82V478.056Z" fill="#222427"/>
<path opacity="0.7" d="M295.82 525.14H118.898V562.966H295.82V525.14Z" fill="#222427"/>
<path opacity="0.05" d="M207.359 455.177C210.281 455.177 212.649 452.807 212.649 449.884C212.649 446.961 210.281 444.592 207.359 444.592C204.438 444.592 202.069 446.961 202.069 449.884C202.069 452.807 204.438 455.177 207.359 455.177Z" fill="#DBDBDB"/>
<path opacity="0.05" d="M207.359 502.261C210.281 502.261 212.649 499.891 212.649 496.968C212.649 494.045 210.281 491.676 207.359 491.676C204.438 491.676 202.069 494.045 202.069 496.968C202.069 499.891 204.438 502.261 207.359 502.261Z" fill="#DBDBDB"/>
<path opacity="0.05" d="M207.359 549.346C210.281 549.346 212.649 546.976 212.649 544.053C212.649 541.13 210.281 538.761 207.359 538.761C204.438 538.761 202.069 541.13 202.069 544.053C202.069 546.976 204.438 549.346 207.359 549.346Z" fill="#DBDBDB"/>
<path opacity="0.7" d="M295.82 573.285H118.898V611.111H295.82V573.285Z" fill="#222427"/>
<path opacity="0.05" d="M207.359 597.491C210.28 597.491 212.649 595.121 212.649 592.198C212.649 589.275 210.28 586.905 207.359 586.905C204.437 586.905 202.069 589.275 202.069 592.198C202.069 595.121 204.437 597.491 207.359 597.491Z" fill="#DBDBDB"/>
<path d="M144.171 226.331H257.278V79.0317H144.171V226.331Z" fill="#DBDBDB"/>
<path d="M144.171 79.0312H140.502V226.331H144.171V79.0312Z" fill="#DBDBDB"/>
<path opacity="0.05" d="M144.171 79.0312H140.502V226.331H144.171V79.0312Z" fill="#DBDBDB"/>
<path opacity="0.05" d="M164.776 199.498H236.675V105.863L164.776 105.863V199.498Z" fill="#DBDBDB"/>
<path opacity="0.03" d="M164.776 199.498H168.523V105.863H164.776V199.498Z" fill="#DBDBDB"/>
<path d="M51.6682 355.955H144.171V262.553H51.6682L51.6682 355.955Z" fill="#DBDBDB"/>
<path opacity="0.05" d="M68.5193 338.94H127.321L127.321 279.568H68.5193V338.94Z" fill="#DBDBDB"/>
<path d="M51.6693 262.554H48V355.955H51.6693V262.554Z" fill="#DBDBDB"/>
<path opacity="0.05" d="M51.6693 262.554H48V355.955H51.6693V262.554Z" fill="#DBDBDB"/>
<path opacity="0.03" d="M68.5194 338.94H72.2664L72.2664 279.568H68.5194V338.94Z" fill="#DBDBDB"/>
<path d="M615.736 78.6816H379.701V314.842H615.736V78.6816Z" fill="#DBDBDB"/>
<path d="M379.701 78.6816H376.995V314.842H379.701V78.6816Z" fill="#DBDBDB"/>
<path opacity="0.05" d="M379.701 78.6816H376.995V314.842H379.701V78.6816Z" fill="#DBDBDB"/>
<path opacity="0.05" d="M436.881 241.416V179.628H487.467V215.525H565.825V279.085H599.128V314.842H565.825H559.409H391.055V241.416H436.881Z" fill="#DBDBDB"/>
<path opacity="0.34" d="M480.973 186.336H444.136V193.044H480.973V186.336Z" fill="#1B1B1B"/>
<path opacity="0.34" d="M480.973 200.238H444.136V206.947H480.973V200.238Z" fill="#1B1B1B"/>
<path opacity="0.34" d="M480.973 214.141H444.136V220.849H480.973V214.141Z" fill="#1B1B1B"/>
<path opacity="0.34" d="M404.377 247.927H397.587V254.635H404.377V247.927Z" fill="#1B1B1B"/>
<path opacity="0.34" d="M404.377 261.829H397.587V268.538H404.377V261.829Z" fill="#1B1B1B"/>
<path opacity="0.34" d="M404.377 275.73H397.587V282.439H404.377V275.73Z" fill="#1B1B1B"/>
<path opacity="0.34" d="M416.938 247.927H410.148V254.635H416.938V247.927Z" fill="#1B1B1B"/>
<path opacity="0.34" d="M416.938 261.829H410.148V268.538H416.938V261.829Z" fill="#1B1B1B"/>
<path opacity="0.34" d="M416.938 275.73H410.148V282.439H416.938V275.73Z" fill="#1B1B1B"/>
<path opacity="0.34" d="M429.16 247.927H422.37V254.635H429.16V247.927Z" fill="#1B1B1B"/>
<path opacity="0.34" d="M429.16 261.829H422.37V268.538H429.16V261.829Z" fill="#1B1B1B"/>
<path opacity="0.34" d="M429.16 275.73H422.37V282.439H429.16V275.73Z" fill="#1B1B1B"/>
<path d="M379.701 195.436H427.195V78.6807H431.123V195.436H559.41V78.6807H563.337V195.436H615.736V199.366H563.337V314.841H559.41V199.366H431.123V314.841H427.195V199.366H379.701V195.436Z" fill="#222427"/>
<path d="M625.139 314.557H370.298V322.41H625.139V314.557Z" fill="#DBDBDB"/>
<path opacity="0.1" d="M625.139 314.557H370.298V322.41H625.139V314.557Z" fill="#DBDBDB"/>
<path opacity="0.1" d="M370.297 314.557H366.618V322.41H370.297V314.557Z" fill="#DBDBDB"/>
<path opacity="0.1" d="M370.297 314.557H366.618V322.41H370.297V314.557Z" fill="#DBDBDB"/>
<path d="M575.262 355.014C539.126 355.014 509.832 364.877 509.832 377.045V403.272H640.692V377.045C640.692 364.877 611.398 355.014 575.262 355.014Z" fill="#FEB062"/>
<path opacity="0.49" d="M575.262 355.014C539.126 355.014 509.832 364.877 509.832 377.045V403.272H640.692V377.045C640.692 364.877 611.398 355.014 575.262 355.014Z" fill="#222427"/>
<path opacity="0.49" d="M622.867 377.048V403.271H509.831V377.048C509.831 365.895 534.433 356.68 566.349 355.224C598.268 356.68 622.867 365.895 622.867 377.048Z" fill="#222427"/>
<path d="M640.691 658.118H642.887L640.691 400.946L638.514 403.143L640.066 582.785L562.549 584.103L560.986 403.125L558.808 403.143L560.373 584.14L513.579 584.936L512.008 403.125L509.831 400.965L512.027 658.118L514.185 658.1L513.597 587.115L560.391 586.319L560.986 658.118L563.163 658.1L562.568 586.282L640.085 584.964L640.691 658.118Z" fill="#DBDBDB"/>
<path d="M443.332 619.615C443.332 619.615 439.441 639.796 420.555 640.921C401.67 642.045 405.765 657.098 405.765 657.098H477.935V621.022L443.332 619.615Z" fill="#FEB062"/>
<path d="M484.507 558.915C484.507 558.915 489.919 578.742 473.47 588.092C457.02 597.442 467.336 609.14 467.336 609.14L532.093 577.264L516.177 544.894L484.507 558.915Z" fill="#FEB062"/>
<path d="M477.656 572.019L428.861 387.813C425.16 367.463 430.732 358.642 439.318 350.073C454.403 335.019 516.91 302.977 516.91 302.977L591.9 302.772C611.785 302.772 631.331 322.39 631.331 342.284C631.331 362.178 611.117 379.05 591.233 379.05L498.89 388.271L523.922 556.936L477.656 572.019Z" fill="#191919"/>
<path d="M523.921 556.934L514.067 490.533L464.143 521.004L477.656 572.019L523.921 556.934Z" fill="#0C0C0C"/>
<path d="M535.237 340.254C535.237 340.254 503.714 347.283 472.493 378.52C453.564 397.459 455.116 431.732 457.956 497.651L488.964 451.826L522.974 390.453L535.237 340.254Z" fill="#0C0C0C"/>
<path d="M644.385 302.752L593.458 302.512L593.439 303.183H578.018C578.018 303.183 539.389 338.745 508.291 361.155C485.671 377.454 471.871 392.994 470.677 409.932C467.766 451.219 434.936 627.304 434.936 627.304L484.345 634.79L527.705 424.354C527.705 424.354 595.502 393.08 611.184 382.199C625.951 371.952 636.382 367.99 641.269 356.807C649.709 337.491 644.385 302.752 644.385 302.752Z" fill="#191919"/>
<path d="M587.251 315.586L504.634 316.681L550.978 344.375L589.54 324.451C590.469 323.952 591.204 323.155 591.627 322.189C592.05 321.222 592.136 320.142 591.872 319.12C591.609 318.098 591.01 317.195 590.172 316.554C589.334 315.913 588.305 315.573 587.251 315.586V315.586Z" fill="#DBDBDB"/>
<path opacity="0.2" d="M587.251 315.586L504.634 316.681L550.978 344.375L589.54 324.451C590.469 323.952 591.204 323.155 591.627 322.189C592.05 321.222 592.136 320.142 591.872 319.12C591.609 318.098 591.01 317.195 590.172 316.554C589.334 315.913 588.305 315.573 587.251 315.586V315.586Z" fill="#222427"/>
<path d="M505.107 167.293L481.739 243.049L434.933 304.363L462.275 335.766L517.959 273.582C520.525 271.554 522.531 268.905 523.79 265.886L524.658 263.785L556.822 185.921L505.107 167.293Z" fill="#FEB062"/>
<path d="M541.106 86.8802C541.106 86.8802 531.689 79.7643 529.357 63.3978C527.55 50.725 539.234 58.9351 539.234 58.9351C539.234 58.9351 538.022 49.797 544.677 50.7039C551.332 51.6108 555.055 61.21 555.055 61.21" fill="#0C0C0C"/>
<path d="M579.069 51.7734C579.069 51.7734 612.085 55.3147 600.149 100.078L597.228 100.274L591.298 100.672" fill="#0C0C0C"/>
<path d="M546.636 146.826C546.781 146.807 548.392 173.547 579.439 171.218C600.936 169.607 608.6 146.788 609.092 146.788C606.775 146.295 603.91 145.547 602.772 145.291C600.291 144.715 598.045 143.397 596.331 141.512C594.617 139.627 593.517 137.265 593.178 134.739C592.55 130.949 593.614 111.556 593.288 107.721L560.295 115.089C560.756 123.19 563.983 141.968 552.675 145.291C550.791 145.84 548.764 146.348 546.636 146.826Z" fill="#E98862"/>
<path opacity="0.52" d="M559.832 137.617C560.349 135.95 560.682 134.232 560.825 132.492C561.187 128.524 561.114 124.528 560.607 120.575C567.314 119.671 573.633 116.902 578.845 112.584C579.459 114.848 582.828 124.741 581.893 126.888C580.131 130.955 571.844 137.617 559.832 137.617Z" fill="#0C0C0C"/>
<path d="M566.643 132.324C579.66 131.156 595.241 122.927 595.466 105.247L595.668 89.2942C595.893 71.6149 586.794 57.1646 570.157 56.9525C553.52 56.7412 540.901 70.9149 540.676 88.5949L540.587 95.6571C540.598 98.0825 540.775 100.504 541.116 102.906C541.969 109.259 543.293 118.919 547.602 125.453C551.671 131.622 558.326 133.07 566.643 132.324Z" fill="#E98862"/>
<path opacity="0.52" d="M560.603 116.164C557.917 116.285 555.239 115.774 552.786 114.67C552.686 114.625 552.608 114.542 552.568 114.44C552.528 114.337 552.53 114.223 552.573 114.122C552.616 114.021 552.697 113.941 552.799 113.899C552.9 113.856 553.014 113.856 553.116 113.897C558.4 116.151 563.198 115.822 566.99 112.943C567.067 112.882 567.146 112.826 567.228 112.773C567.324 112.728 567.433 112.721 567.533 112.753C567.634 112.784 567.719 112.853 567.771 112.944C567.824 113.035 567.84 113.143 567.817 113.246C567.794 113.349 567.733 113.439 567.646 113.5C567.616 113.518 567.567 113.557 567.501 113.609C565.507 115.129 563.105 116.018 560.603 116.164V116.164Z" fill="#0C0C0C"/>
<path opacity="0.52" d="M560.726 120.147C560.241 120.177 559.754 120.165 559.27 120.112C559.215 120.106 559.162 120.089 559.114 120.063C559.065 120.037 559.023 120.001 558.988 119.958C558.953 119.915 558.928 119.866 558.912 119.813C558.896 119.76 558.891 119.705 558.897 119.65C558.903 119.595 558.919 119.542 558.946 119.494C558.972 119.445 559.008 119.402 559.051 119.368C559.094 119.333 559.143 119.307 559.196 119.292C559.248 119.276 559.304 119.271 559.359 119.277C562.266 119.585 563.654 118.253 563.713 118.196C563.792 118.117 563.898 118.072 564.01 118.072C564.121 118.072 564.228 118.116 564.307 118.195C564.386 118.274 564.43 118.38 564.43 118.492C564.43 118.603 564.386 118.71 564.307 118.789C563.306 119.642 562.041 120.122 560.726 120.147Z" fill="#0C0C0C"/>
<path d="M546.171 99.0571C547.302 99.0571 548.22 98.1391 548.22 97.0066C548.22 95.8741 547.302 94.9561 546.171 94.9561C545.039 94.9561 544.121 95.8741 544.121 97.0066C544.121 98.1391 545.039 99.0571 546.171 99.0571Z" fill="#0C0C0C"/>
<path d="M566.193 97.8003C567.325 97.8003 568.242 96.8822 568.242 95.7498C568.242 94.6173 567.325 93.6992 566.193 93.6992C565.061 93.6992 564.143 94.6173 564.143 95.7498C564.143 96.8822 565.061 97.8003 566.193 97.8003Z" fill="#0C0C0C"/>
<path d="M594.364 110.624C599.42 110.688 603.587 105.328 603.653 100.269C603.719 95.2106 599.654 92.3686 594.597 92.3047L591.949 95.6608L590.018 110.569L594.364 110.624Z" fill="#E98862"/>
<path d="M589.333 102.491C589.333 102.491 587.626 77.4743 580.043 75.9292C574.994 74.9003 562.749 82.067 551.406 79.9024C546.445 78.9585 541.734 80.1842 541.255 82.5295C541.065 83.4582 537.974 70.113 545.744 59.9881C551.931 51.9283 572.177 49.6483 581.388 52.2914C606.892 59.612 595.638 93.4015 595.638 93.4015L594.501 102.026L589.333 102.491Z" fill="#0C0C0C"/>
<g opacity="0.52">
<path d="M557.546 110.26C557.535 110.261 557.525 110.261 557.514 110.26C555.885 110.244 553.153 110.034 553.164 108.815C553.176 107.805 556.05 96.9252 556.378 95.6879C556.406 95.5814 556.475 95.4905 556.57 95.4351C556.666 95.3798 556.779 95.3645 556.885 95.3928C556.992 95.421 557.083 95.4903 557.138 95.5856C557.193 95.6808 557.208 95.7942 557.18 95.9007C555.903 100.719 554.002 108.137 553.994 108.825C554.152 109.116 555.835 109.415 557.521 109.432C557.628 109.435 557.729 109.478 557.805 109.553C557.88 109.628 557.924 109.729 557.927 109.835C557.931 109.942 557.893 110.045 557.822 110.125C557.751 110.204 557.652 110.253 557.546 110.262V110.26Z" fill="#0C0C0C"/>
</g>
<path d="M551.987 85.8879C550.275 85.4163 548.467 85.4163 546.754 85.8879C545.913 86.1142 545.111 86.4657 544.374 86.9305C543.646 87.3858 542.978 87.9313 542.386 88.5541C542.277 88.6651 542.215 88.8138 542.212 88.9695C542.21 89.1251 542.268 89.2757 542.374 89.3898C542.479 89.5039 542.625 89.5728 542.78 89.5821C542.936 89.5915 543.089 89.5406 543.207 89.44L543.244 89.408C543.792 88.9003 544.402 88.4638 545.059 88.109C545.703 87.7558 546.397 87.5022 547.118 87.3568C548.535 87.0593 550.007 87.1417 551.383 87.5957L551.44 87.616C551.665 87.6886 551.91 87.6705 552.122 87.5655C552.334 87.4605 552.497 87.2769 552.575 87.0537C552.654 86.8305 552.643 86.5853 552.544 86.3703C552.445 86.1553 552.266 85.9874 552.045 85.9024L551.987 85.8879Z" fill="#0C0C0C"/>
<path d="M564.112 86.9167C565.415 86.2833 566.862 86.0055 568.307 86.1115C569.04 86.1591 569.762 86.3177 570.447 86.582C571.145 86.8467 571.806 87.198 572.416 87.6276L572.455 87.6537C572.586 87.7382 572.745 87.7687 572.898 87.7391C573.051 87.7094 573.187 87.6218 573.277 87.4945C573.366 87.3672 573.404 87.2101 573.381 87.0559C573.358 86.9017 573.276 86.7623 573.153 86.6669C572.484 86.1285 571.749 85.677 570.966 85.3229C570.174 84.9605 569.332 84.7191 568.468 84.607C566.709 84.367 564.917 84.6071 563.282 85.3018C563.173 85.3495 563.074 85.4183 562.991 85.5043C562.907 85.5903 562.842 85.6919 562.798 85.8031C562.755 85.9144 562.733 86.0332 562.735 86.1527C562.737 86.2723 562.763 86.3903 562.811 86.4999C562.907 86.7214 563.087 86.8955 563.312 86.984C563.423 87.0279 563.542 87.0493 563.661 87.0473C563.78 87.0452 563.898 87.0196 564.008 86.9719L564.059 86.9479L564.112 86.9167Z" fill="#0C0C0C"/>
<path d="M563.282 60.102C564.433 54.5907 562.332 49.4887 558.59 48.7064C554.847 47.924 550.88 51.7576 549.73 57.269C548.579 62.7803 550.68 67.8822 554.422 68.6646C558.165 69.4469 562.131 65.6133 563.282 60.102Z" fill="#0C0C0C"/>
<path d="M508.057 205.598C509.035 217.094 515.967 288.818 516.911 302.978H644.329C645.062 290.207 648.349 234.361 651.125 209.383C653.776 185.55 657.49 174.705 654.437 167.3C649.054 154.237 631.918 148.404 620.314 146.832C613.228 145.872 602.571 145.185 602.571 145.185C602.571 145.185 601.669 163.448 580.153 164.465C550.862 165.845 552.819 145.185 552.674 145.185C547.928 145.185 522.1 148.637 515.642 152.849C506.52 158.797 503.824 166.904 503.717 174.352C503.595 182.929 506.95 192.558 508.057 205.598Z" fill="#FEB062"/>
<path d="M514.518 274.714C514.427 274.714 514.339 274.681 514.272 274.619C514.205 274.558 514.163 274.474 514.155 274.383L509.327 219.141C509.319 219.045 509.349 218.949 509.411 218.875C509.472 218.802 509.561 218.755 509.657 218.747C509.704 218.742 509.753 218.747 509.798 218.761C509.844 218.775 509.887 218.798 509.923 218.829C509.96 218.86 509.99 218.898 510.012 218.94C510.034 218.983 510.047 219.03 510.05 219.077L514.878 274.32C514.886 274.416 514.856 274.511 514.794 274.584C514.732 274.658 514.644 274.704 514.548 274.713C514.538 274.714 514.528 274.714 514.518 274.714V274.714Z" fill="#0C0C0C"/>
<path d="M523.758 306.802L541.254 292.6L538.31 293.433C537.354 293.683 536.339 293.56 535.47 293.09C534.601 292.62 533.943 291.837 533.629 290.9C533.483 290.411 533.439 289.898 533.499 289.391C533.558 288.884 533.72 288.394 533.975 287.952C534.23 287.51 534.572 287.125 534.981 286.819C535.39 286.514 535.856 286.295 536.352 286.176L573.107 277.231L576.27 288.945C577.253 292.583 577.127 296.432 575.909 299.998C574.692 303.564 572.437 306.684 569.435 308.96L555.816 319.243C555.119 319.791 554.255 320.08 553.369 320.063C552.483 320.046 551.63 319.724 550.954 319.15C550.354 318.619 549.94 317.91 549.772 317.126C549.604 316.342 549.691 315.525 550.02 314.794C549.961 314.776 549.908 314.743 549.866 314.698C549.829 314.654 549.804 314.602 549.793 314.545C549.781 314.489 549.784 314.431 549.8 314.376L547.291 316.277C546.516 316.89 545.537 317.185 544.553 317.103C543.568 317.022 542.652 316.569 541.988 315.837C541.418 315.162 541.104 314.307 541.102 313.423C541.099 312.54 541.408 311.683 541.975 311.005C541.935 310.999 541.897 310.986 541.862 310.966L540.831 311.748C540.134 312.295 539.27 312.585 538.384 312.568C537.498 312.551 536.645 312.228 535.969 311.655C535.242 311.01 534.792 310.109 534.714 309.14C534.637 308.171 534.937 307.209 535.553 306.457C535.538 306.436 535.526 306.413 535.516 306.389L528.23 312.303C527.869 312.596 527.453 312.816 527.008 312.948C526.562 313.081 526.094 313.124 525.632 313.076C525.169 313.028 524.72 312.889 524.311 312.667C523.903 312.445 523.541 312.145 523.248 311.784C522.955 311.422 522.736 311.007 522.604 310.561C522.471 310.115 522.428 309.647 522.476 309.184C522.524 308.721 522.663 308.272 522.885 307.863C523.106 307.454 523.406 307.093 523.767 306.799L523.758 306.802Z" fill="#E98862"/>
<path opacity="0.2" d="M535.952 306.6C535.991 306.587 536.026 306.566 536.058 306.54L543.068 300.713C543.104 300.683 543.133 300.647 543.155 300.606C543.177 300.565 543.19 300.52 543.194 300.474C543.198 300.428 543.193 300.381 543.18 300.337C543.166 300.293 543.143 300.252 543.114 300.216C543.084 300.18 543.048 300.151 543.007 300.129C542.966 300.108 542.921 300.095 542.875 300.09C542.829 300.086 542.782 300.091 542.738 300.105C542.694 300.119 542.653 300.141 542.617 300.171L535.607 305.997C535.544 306.05 535.501 306.124 535.486 306.205C535.471 306.287 535.486 306.371 535.527 306.443C535.568 306.515 535.633 306.57 535.711 306.599C535.789 306.628 535.874 306.628 535.952 306.6Z" fill="#1E1E1E"/>
<path opacity="0.2" d="M542.13 311.001C542.167 310.988 542.202 310.968 542.233 310.942L547.779 306.406C547.851 306.346 547.897 306.261 547.906 306.168C547.916 306.075 547.888 305.981 547.829 305.909C547.77 305.836 547.684 305.79 547.591 305.781C547.498 305.772 547.405 305.8 547.332 305.859L541.787 310.396C541.722 310.448 541.679 310.522 541.663 310.604C541.648 310.686 541.662 310.771 541.703 310.843C541.744 310.916 541.809 310.971 541.887 311C541.965 311.029 542.051 311.03 542.13 311.001V311.001Z" fill="#1E1E1E"/>
<path opacity="0.2" d="M550.246 314.805C550.287 314.791 550.324 314.769 550.357 314.741L552.926 312.537C552.961 312.507 552.99 312.47 553.011 312.429C553.031 312.388 553.044 312.343 553.048 312.296C553.051 312.25 553.046 312.204 553.031 312.16C553.017 312.116 552.994 312.075 552.964 312.04C552.934 312.005 552.897 311.976 552.856 311.955C552.814 311.934 552.769 311.922 552.723 311.918C552.677 311.914 552.631 311.92 552.587 311.934C552.543 311.949 552.502 311.972 552.467 312.002L549.898 314.206C549.836 314.259 549.794 314.333 549.781 314.414C549.767 314.496 549.782 314.579 549.823 314.65C549.865 314.721 549.93 314.776 550.007 314.804C550.084 314.832 550.169 314.833 550.246 314.805V314.805Z" fill="#1E1E1E"/>
<path d="M678.389 272.016L678.255 271.42L654.997 168.5L608.986 178.907L627.139 259.243L554.423 277.12L563.372 318.173L660.275 299.68C660.493 299.638 660.816 299.572 661.036 299.522C663.981 298.856 666.765 297.616 669.231 295.874C671.697 294.131 673.795 291.919 675.406 289.365C677.018 286.811 678.11 283.964 678.622 280.988C679.134 278.011 679.055 274.962 678.389 272.016V272.016Z" fill="#FEB062"/>
<path d="M554.067 277.198C554.048 277.106 554.065 277.01 554.115 276.93C554.165 276.851 554.244 276.794 554.335 276.771L626.728 258.981L614.957 206.966C614.944 206.918 614.941 206.869 614.947 206.82C614.954 206.771 614.97 206.724 614.995 206.682C615.02 206.64 615.054 206.603 615.094 206.574C615.133 206.545 615.179 206.525 615.227 206.514C615.274 206.503 615.324 206.502 615.372 206.511C615.421 206.52 615.467 206.538 615.508 206.566C615.549 206.593 615.584 206.628 615.611 206.669C615.638 206.711 615.656 206.757 615.664 206.805L627.514 259.169C627.536 259.262 627.52 259.36 627.47 259.442C627.42 259.523 627.34 259.582 627.247 259.604L554.849 277.394C554.849 277.394 555.334 279.511 555.471 280.226C555.482 280.319 555.455 280.412 555.397 280.486C555.339 280.559 555.254 280.607 555.161 280.617C555.068 280.628 554.975 280.601 554.901 280.543C554.828 280.485 554.781 280.4 554.77 280.307C554.603 279.524 554.067 277.198 554.067 277.198Z" fill="#0C0C0C"/>
<path d="M556.905 334.525L528.946 248.537C528.455 247.026 527.498 245.709 526.213 244.775C524.928 243.842 523.381 243.339 521.793 243.339H407.888C406.7 243.339 405.53 243.62 404.472 244.159C403.414 244.699 402.499 245.481 401.801 246.442C401.103 247.404 400.643 248.516 400.458 249.69C400.272 250.863 400.367 252.064 400.734 253.194L428.694 339.182C429.185 340.693 430.142 342.009 431.427 342.943C432.712 343.877 434.259 344.38 435.847 344.38H549.751C550.939 344.38 552.109 344.099 553.167 343.559C554.225 343.02 555.14 342.237 555.838 341.276C556.535 340.315 556.996 339.202 557.181 338.029C557.367 336.856 557.272 335.655 556.905 334.525V334.525Z" fill="#DBDBDB"/>
<path opacity="0.2" d="M556.905 334.525L528.946 248.537C528.455 247.026 527.498 245.709 526.213 244.775C524.928 243.842 523.381 243.339 521.793 243.339H407.888C406.7 243.339 405.53 243.62 404.472 244.159C403.414 244.699 402.499 245.481 401.801 246.442C401.103 247.404 400.643 248.516 400.458 249.69C400.272 250.863 400.367 252.064 400.734 253.194L428.694 339.182C429.185 340.693 430.142 342.009 431.427 342.943C432.712 343.877 434.259 344.38 435.847 344.38H549.751C550.939 344.38 552.109 344.099 553.167 343.559C554.225 343.02 555.14 342.237 555.838 341.276C556.535 340.315 556.996 339.202 557.181 338.029C557.367 336.856 557.272 335.655 556.905 334.525V334.525Z" fill="#222427"/>
<path d="M475.539 305.812C482.136 305.812 487.485 300.461 487.485 293.86C487.485 287.259 482.136 281.907 475.539 281.907C468.941 281.907 463.593 287.259 463.593 293.86C463.593 300.461 468.941 305.812 475.539 305.812Z" fill="#222427"/>
<path d="M363.079 55.0869H137.005C126.532 55.0869 118.042 63.5819 118.042 74.0609V348.654C118.042 359.133 126.532 367.628 137.005 367.628H363.079C373.552 367.628 382.043 359.133 382.043 348.654V74.0609C382.043 63.5819 373.552 55.0869 363.079 55.0869Z" fill="#DBDBDB"/>
<path d="M371.434 46.7266H145.36C134.887 46.7266 126.396 55.2215 126.396 65.7005V340.293C126.396 350.773 134.887 359.267 145.36 359.267H371.434C381.907 359.267 390.397 350.773 390.397 340.293V65.7005C390.397 55.2215 381.907 46.7266 371.434 46.7266Z" fill="#222427"/>
<path d="M371.434 359.993H145.361C140.14 359.987 135.136 357.91 131.444 354.216C127.753 350.523 125.677 345.515 125.671 340.292V65.7001C125.677 60.4771 127.753 55.4696 131.444 51.7764C135.136 48.0832 140.141 46.0058 145.361 46H371.434C376.654 46.006 381.659 48.0834 385.35 51.7766C389.041 55.4699 391.117 60.4772 391.123 65.7001V340.292C391.117 345.515 389.041 350.523 385.35 354.216C381.659 357.91 376.654 359.987 371.434 359.993V359.993ZM145.361 47.4522C140.525 47.4576 135.89 49.3819 132.47 52.8028C129.051 56.2238 127.128 60.8621 127.123 65.7001V340.292C127.128 345.13 129.051 349.769 132.47 353.19C135.89 356.61 140.525 358.535 145.361 358.54H371.434C376.269 358.535 380.905 356.61 384.324 353.189C387.743 349.768 389.666 345.13 389.671 340.292V65.7001C389.666 60.8622 387.743 56.2239 384.324 52.8029C380.905 49.3819 376.269 47.4576 371.434 47.4522H145.361Z" fill="#DBDBDB"/>
<path d="M123.352 398.558C149.356 398.558 170.435 377.468 170.435 351.451C170.435 325.434 149.356 304.343 123.352 304.343C97.3493 304.343 76.2695 325.434 76.2695 351.451C76.2695 377.468 97.3493 398.558 123.352 398.558Z" fill="#DBDBDB"/>
<path d="M113.579 345.302C112.959 345.302 112.364 345.056 111.926 344.618C111.488 344.179 111.241 343.584 111.241 342.964V331.644C111.241 325.384 116.675 320.29 123.353 320.29C130.031 320.29 135.464 325.384 135.464 331.644V342.187C135.47 342.498 135.414 342.806 135.299 343.095C135.184 343.383 135.012 343.646 134.795 343.868C134.577 344.089 134.318 344.265 134.031 344.385C133.745 344.505 133.438 344.567 133.127 344.567C132.817 344.567 132.51 344.505 132.223 344.385C131.937 344.265 131.677 344.089 131.46 343.868C131.242 343.646 131.071 343.383 130.956 343.095C130.841 342.806 130.785 342.498 130.79 342.187V331.644C130.79 327.962 127.452 324.967 123.353 324.967C119.254 324.967 115.916 327.962 115.916 331.644V342.966C115.915 343.586 115.669 344.18 115.231 344.618C114.792 345.056 114.198 345.302 113.579 345.302V345.302Z" fill="#222427"/>
<path d="M138.263 341.008H108.442C106.703 341.008 105.293 342.418 105.293 344.158V372.263C105.293 374.003 106.703 375.414 108.442 375.414H138.263C140.002 375.414 141.412 374.003 141.412 372.263V344.158C141.412 342.418 140.002 341.008 138.263 341.008Z" fill="#222427"/>
<path d="M120.383 355.427C120.383 355.985 120.539 356.531 120.834 357.004C121.13 357.477 121.552 357.857 122.052 358.101V362.665C122.052 363.009 122.189 363.339 122.432 363.582C122.675 363.826 123.005 363.962 123.349 363.962C123.692 363.962 124.022 363.826 124.265 363.582C124.508 363.339 124.645 363.009 124.645 362.665V358.101C125.122 357.869 125.528 357.514 125.821 357.073C126.115 356.631 126.285 356.118 126.313 355.589C126.342 355.059 126.228 354.531 125.984 354.061C125.74 353.59 125.374 353.193 124.925 352.911C124.476 352.63 123.959 352.474 123.429 352.459C122.899 352.445 122.375 352.573 121.911 352.829C121.447 353.086 121.061 353.463 120.791 353.919C120.522 354.376 120.38 354.897 120.38 355.427H120.383Z" fill="#DBDBDB"/>
<path d="M351.693 202.675H165.104C160.65 202.675 157.039 206.288 157.039 210.744V236.916C157.039 241.372 160.65 244.985 165.104 244.985H351.693C356.147 244.985 359.758 241.372 359.758 236.916V210.744C359.758 206.288 356.147 202.675 351.693 202.675Z" fill="#222427"/>
<path d="M351.693 245.711H165.104C162.774 245.708 160.539 244.781 158.891 243.132C157.243 241.483 156.316 239.247 156.313 236.915V210.744C156.316 208.412 157.243 206.177 158.891 204.528C160.539 202.879 162.774 201.951 165.104 201.948H351.693C354.024 201.951 356.258 202.879 357.906 204.528C359.554 206.177 360.481 208.412 360.484 210.744V236.915C360.481 239.247 359.554 241.483 357.906 243.132C356.258 244.781 354.023 245.708 351.693 245.711ZM165.104 203.4C163.158 203.403 161.293 204.177 159.917 205.554C158.541 206.931 157.767 208.797 157.765 210.744V236.915C157.767 238.862 158.541 240.729 159.917 242.106C161.293 243.482 163.158 244.257 165.104 244.259H351.693C353.639 244.257 355.504 243.482 356.88 242.106C358.256 240.729 359.03 238.862 359.033 236.915V210.744C359.031 208.797 358.257 206.931 356.881 205.554C355.505 204.177 353.639 203.403 351.693 203.4H165.104Z" fill="#DBDBDB"/>
<path d="M351.693 263.141H165.104C160.65 263.141 157.039 266.753 157.039 271.21V297.382C157.039 301.838 160.65 305.451 165.104 305.451H351.693C356.147 305.451 359.758 301.838 359.758 297.382V271.21C359.758 266.753 356.147 263.141 351.693 263.141Z" fill="#222427"/>
<path d="M351.693 306.176H165.104C162.773 306.173 160.538 305.245 158.89 303.596C157.242 301.947 156.316 299.711 156.313 297.378V271.209C156.316 268.878 157.243 266.642 158.891 264.993C160.539 263.344 162.774 262.417 165.104 262.414H351.693C354.023 262.417 356.258 263.344 357.906 264.993C359.554 266.642 360.481 268.877 360.484 271.209V297.378C360.482 299.711 359.555 301.947 357.907 303.596C356.259 305.246 354.024 306.173 351.693 306.176ZM165.104 263.866C163.158 263.868 161.293 264.643 159.917 266.019C158.541 267.396 157.767 269.263 157.765 271.209V297.378C157.767 299.325 158.541 301.192 159.917 302.568C161.293 303.945 163.158 304.719 165.104 304.722H351.693C353.639 304.72 355.504 303.945 356.881 302.569C358.257 301.192 359.031 299.325 359.033 297.378V271.209C359.031 269.262 358.257 267.396 356.881 266.019C355.504 264.642 353.639 263.868 351.693 263.866H165.104Z" fill="#DBDBDB"/>
<path d="M258.397 171.203C282.323 171.203 301.718 151.798 301.718 127.859C301.718 103.921 282.323 84.5146 258.397 84.5146C234.471 84.5146 215.075 103.921 215.075 127.859C215.075 151.798 234.471 171.203 258.397 171.203Z" fill="#222427"/>
<path d="M258.397 171.929C249.686 171.929 241.17 169.344 233.926 164.502C226.682 159.659 221.037 152.776 217.703 144.724C214.369 136.671 213.497 127.81 215.196 119.261C216.896 110.712 221.091 102.859 227.251 96.6961C233.411 90.5327 241.26 86.3354 249.804 84.6349C258.348 82.9344 267.205 83.8072 275.253 87.1428C283.302 90.4784 290.181 96.127 295.021 103.374C299.861 110.622 302.445 119.142 302.445 127.859C302.431 139.543 297.787 150.745 289.529 159.007C281.271 167.269 270.075 171.916 258.397 171.929V171.929ZM258.397 85.2403C249.973 85.2403 241.737 87.7398 234.732 92.4228C227.728 97.1058 222.268 103.762 219.044 111.549C215.82 119.337 214.976 127.906 216.62 136.173C218.264 144.44 222.32 152.034 228.278 157.994C234.235 163.955 241.825 168.014 250.087 169.658C258.35 171.302 266.915 170.458 274.698 167.233C282.481 164.007 289.134 158.545 293.814 151.536C298.495 144.528 300.993 136.288 300.993 127.859C300.98 116.559 296.489 105.727 288.503 97.7369C280.518 89.7472 269.691 85.253 258.397 85.2403V85.2403Z" fill="#DBDBDB"/>
<path opacity="0.5" d="M300.757 127.858C300.77 137.891 297.212 147.6 290.72 155.246C286.722 150.583 281.763 146.84 276.184 144.274C270.604 141.708 264.536 140.38 258.395 140.382C252.255 140.383 246.187 141.713 240.608 144.281C235.029 146.848 230.072 150.593 226.076 155.258C221.668 150.053 218.581 143.86 217.077 137.206C215.574 130.552 215.698 123.633 217.439 117.037C219.18 110.441 222.487 104.363 227.078 99.3191C231.67 94.2755 237.41 90.4153 243.812 88.0666C250.213 85.7179 257.087 84.95 263.849 85.8283C270.611 86.7065 277.061 89.2049 282.651 93.1111C288.241 97.0173 292.806 102.216 295.959 108.265C299.111 114.315 300.757 121.036 300.757 127.858V127.858Z" fill="#FEB062"/>
<path d="M290.72 155.247C286.744 159.944 281.794 163.719 276.212 166.308C270.631 168.897 264.553 170.239 258.401 170.24C252.248 170.241 246.17 168.902 240.587 166.314C235.005 163.727 230.053 159.954 226.075 155.258C230.072 150.593 235.029 146.849 240.608 144.281C246.187 141.713 252.254 140.383 258.395 140.382C264.536 140.381 270.604 141.709 276.184 144.274C281.763 146.84 286.722 150.583 290.72 155.247V155.247Z" fill="#222427"/>
<path d="M258.398 132.474C267.855 132.474 275.52 124.804 275.52 115.343C275.52 105.882 267.855 98.2119 258.398 98.2119C248.942 98.2119 241.276 105.882 241.276 115.343C241.276 124.804 248.942 132.474 258.398 132.474Z" fill="#222427"/>
<g opacity="0.4">
<path d="M172.745 289.449C175.59 289.449 177.895 287.142 177.895 284.296C177.895 281.45 175.59 279.144 172.745 279.144C169.901 279.144 167.596 281.45 167.596 284.296C167.596 287.142 169.901 289.449 172.745 289.449Z" fill="#DBDBDB"/>
<path d="M188.854 289.449C191.698 289.449 194.004 287.142 194.004 284.296C194.004 281.45 191.698 279.144 188.854 279.144C186.01 279.144 183.704 281.45 183.704 284.296C183.704 287.142 186.01 289.449 188.854 289.449Z" fill="#DBDBDB"/>
<path d="M204.963 289.449C207.808 289.449 210.113 287.142 210.113 284.296C210.113 281.45 207.808 279.144 204.963 279.144C202.119 279.144 199.814 281.45 199.814 284.296C199.814 287.142 202.119 289.449 204.963 289.449Z" fill="#DBDBDB"/>
<path d="M221.072 289.449C223.916 289.449 226.222 287.142 226.222 284.296C226.222 281.45 223.916 279.144 221.072 279.144C218.228 279.144 215.922 281.45 215.922 284.296C215.922 287.142 218.228 289.449 221.072 289.449Z" fill="#DBDBDB"/>
<path d="M237.181 289.449C240.025 289.449 242.331 287.142 242.331 284.296C242.331 281.45 240.025 279.144 237.181 279.144C234.337 279.144 232.031 281.45 232.031 284.296C232.031 287.142 234.337 289.449 237.181 289.449Z" fill="#DBDBDB"/>
<path d="M253.289 289.449C256.134 289.449 258.439 287.142 258.439 284.296C258.439 281.45 256.134 279.144 253.289 279.144C250.445 279.144 248.14 281.45 248.14 284.296C248.14 287.142 250.445 289.449 253.289 289.449Z" fill="#DBDBDB"/>
<path d="M269.398 289.449C272.242 289.449 274.548 287.142 274.548 284.296C274.548 281.45 272.242 279.144 269.398 279.144C266.554 279.144 264.248 281.45 264.248 284.296C264.248 287.142 266.554 289.449 269.398 289.449Z" fill="#DBDBDB"/>
</g>
<g opacity="0.3">
<path d="M177.852 223.519V225.261H171.239V223.519H177.852Z" fill="#FBFBFB"/>
<path d="M186.071 223.519V225.261H179.458V223.519H186.071Z" fill="#FBFBFB"/>
<path d="M194.29 223.519V225.261H187.676V223.519H194.29Z" fill="#FBFBFB"/>
<path d="M202.508 223.519V225.261H195.894V223.519H202.508Z" fill="#FBFBFB"/>
<path d="M210.727 223.519V225.261H204.112V223.519H210.727Z" fill="#FBFBFB"/>
<path d="M225.559 233.351C224.088 234.107 222.449 234.477 220.796 234.425C216.404 234.425 212.682 231.21 212.682 226.066C212.682 220.547 216.512 215.778 222.455 215.778C227.115 215.778 230.248 219.046 230.248 223.521C230.248 227.54 227.998 229.897 225.481 229.897C224.411 229.897 223.42 229.171 223.5 227.54H223.392C223.046 228.246 222.509 228.841 221.842 229.258C221.175 229.674 220.405 229.896 219.619 229.897C218.066 229.897 216.727 228.638 216.727 226.522C216.724 225.687 216.886 224.86 217.204 224.088C217.522 223.317 217.989 222.615 218.579 222.025C219.169 221.435 219.87 220.967 220.641 220.649C221.412 220.331 222.239 220.169 223.073 220.172C224.057 220.158 225.033 220.349 225.938 220.735L225.027 225.584C224.626 227.617 224.948 228.561 225.831 228.585C227.197 228.611 228.723 226.789 228.723 223.682C228.723 219.797 226.393 217.011 222.243 217.011C217.878 217.011 214.21 220.467 214.21 225.905C214.21 230.38 217.129 233.139 221.092 233.139C222.497 233.172 223.887 232.849 225.135 232.201L225.559 233.351ZM224.086 221.777C223.651 221.65 223.2 221.587 222.747 221.59C220.391 221.59 218.49 223.813 218.49 226.412C218.49 227.591 219.079 228.445 220.257 228.445C221.81 228.445 223.229 226.463 223.523 224.802L224.086 221.777Z" fill="#FBFBFB"/>
<path d="M238.675 223.519V225.261H232.062V223.519H238.675Z" fill="#FBFBFB"/>
<path d="M246.894 223.519V225.261H240.28V223.519H246.894Z" fill="#FBFBFB"/>
<path d="M255.113 223.519V225.261H248.499V223.519H255.113Z" fill="#FBFBFB"/>
</g>
</svg>
