<svg width="513" height="491" viewBox="0 0 513 491" fill="none" xmlns="http://www.w3.org/2000/svg">
<g clip-path="url(#clip0_671_1480)">
<path d="M158.777 342.076L426.245 342.076C431.955 342.076 436.584 337.447 436.584 331.737L436.584 16.8228C436.584 11.1128 431.955 6.48398 426.245 6.48398L158.777 6.48398C153.067 6.48398 148.439 11.1128 148.439 16.8228L148.439 331.737C148.439 337.447 153.067 342.076 158.777 342.076Z" fill="white"/>
<path d="M147.803 331.738V16.8217C147.806 13.9121 148.963 11.1227 151.021 9.06537C153.078 7.00805 155.868 5.85085 158.777 5.84766H426.244C429.154 5.85085 431.943 7.00805 434.001 9.06537C436.058 11.1227 437.216 13.9121 437.219 16.8217V331.738C437.216 334.648 436.058 337.437 434.001 339.495C431.943 341.552 429.154 342.709 426.244 342.713H158.777C155.868 342.709 153.078 341.552 151.021 339.495C148.963 337.437 147.806 334.648 147.803 331.738V331.738ZM158.777 7.11998C156.205 7.12284 153.739 8.14595 151.92 9.96485C150.101 11.7838 149.077 14.2499 149.074 16.8223V331.738C149.077 334.311 150.101 336.777 151.92 338.596C153.739 340.415 156.205 341.438 158.777 341.441H426.244C428.817 341.438 431.283 340.415 433.102 338.596C434.921 336.777 435.944 334.311 435.947 331.738V16.8217C435.944 14.2493 434.921 11.7831 433.102 9.96422C431.283 8.14531 428.817 7.12221 426.244 7.11934L158.777 7.11998Z" fill="#292A2E"/>
<path d="M213.507 490.089C213.416 490.089 213.326 490.07 213.243 490.032C213.16 489.994 213.086 489.939 213.026 489.87C212.967 489.801 212.922 489.72 212.897 489.632C212.871 489.545 212.865 489.453 212.878 489.362L234.141 342.62C234.152 342.536 234.179 342.455 234.222 342.382C234.264 342.309 234.32 342.245 234.387 342.194C234.455 342.143 234.531 342.106 234.613 342.085C234.695 342.064 234.78 342.059 234.863 342.071C234.947 342.083 235.027 342.112 235.1 342.155C235.172 342.199 235.235 342.256 235.285 342.324C235.335 342.392 235.371 342.47 235.39 342.552C235.41 342.634 235.413 342.719 235.4 342.802L214.133 489.545C214.111 489.695 214.036 489.833 213.921 489.933C213.806 490.033 213.659 490.088 213.507 490.089Z" fill="#292A2E"/>
<path d="M371.517 490.09C371.364 490.089 371.217 490.034 371.102 489.934C370.986 489.834 370.911 489.696 370.889 489.545L349.624 342.801C349.603 342.636 349.648 342.469 349.749 342.336C349.85 342.203 349.999 342.115 350.164 342.092C350.329 342.068 350.497 342.109 350.631 342.208C350.765 342.307 350.856 342.454 350.883 342.619L372.15 489.363C372.163 489.454 372.156 489.546 372.13 489.633C372.105 489.721 372.061 489.802 372.001 489.871C371.941 489.94 371.867 489.995 371.784 490.033C371.701 490.071 371.611 490.09 371.52 490.09L371.517 490.09Z" fill="#292A2E"/>
<g opacity="0.1">
<path d="M177.53 168.239L407.493 168.239C411.535 168.239 414.812 164.962 414.812 160.919V38.0546C414.812 34.0119 411.535 30.7347 407.493 30.7347L177.53 30.7347C173.488 30.7347 170.211 34.0119 170.211 38.0546L170.211 160.919C170.211 164.962 173.488 168.239 177.53 168.239Z" fill="#FEB062"/>
</g>
<g opacity="0.1">
<path d="M169.952 310.316V191.96C169.955 189.929 170.762 187.982 172.199 186.546C173.635 185.11 175.582 184.302 177.613 184.3H406.774C408.805 184.302 410.752 185.11 412.188 186.546C413.624 187.982 414.431 189.929 414.434 191.96V310.316C414.431 312.347 413.624 314.294 412.187 315.73C410.751 317.166 408.804 317.974 406.773 317.976H177.613C175.582 317.974 173.634 317.166 172.198 315.73C170.762 314.294 169.954 312.347 169.952 310.316V310.316Z" fill="#FEB062"/>
</g>
<path d="M385.135 300.508H389.684C390.368 300.508 390.923 299.953 390.923 299.269V212.386C390.923 211.702 390.368 211.147 389.684 211.147H385.135C384.451 211.147 383.896 211.702 383.896 212.386V299.269C383.896 299.953 384.451 300.508 385.135 300.508Z" fill="white"/>
<path opacity="0.3" d="M392.163 300.508H396.711C397.395 300.508 397.95 299.953 397.95 299.269V240.453C397.95 239.768 397.395 239.213 396.711 239.213H392.163C391.478 239.213 390.923 239.768 390.923 240.453V299.269C390.923 299.953 391.478 300.508 392.163 300.508Z" fill="#FEB062"/>
<path d="M328.899 300.507H333.447C334.132 300.507 334.687 299.952 334.687 299.268V290.439C334.687 289.754 334.132 289.2 333.447 289.2H328.899C328.215 289.2 327.66 289.754 327.66 290.439V299.268C327.66 299.952 328.215 300.507 328.899 300.507Z" fill="white"/>
<path opacity="0.3" d="M335.926 300.507H340.475C341.159 300.507 341.714 299.952 341.714 299.268V235.405C341.714 234.721 341.159 234.166 340.475 234.166H335.926C335.242 234.166 334.687 234.721 334.687 235.405V299.268C334.687 299.952 335.242 300.507 335.926 300.507Z" fill="#FEB062"/>
<path d="M357.017 300.507H361.565C362.25 300.507 362.805 299.952 362.805 299.268V248.258C362.805 247.573 362.25 247.018 361.565 247.018H357.017C356.333 247.018 355.778 247.573 355.778 248.258V299.268C355.778 299.952 356.333 300.507 357.017 300.507Z" fill="white"/>
<path opacity="0.3" d="M364.044 300.507H368.592C369.276 300.507 369.831 299.952 369.831 299.268V266.739C369.831 266.055 369.276 265.5 368.592 265.5H364.044C363.359 265.5 362.804 266.055 362.804 266.739V299.268C362.804 299.952 363.359 300.507 364.044 300.507Z" fill="#FEB062"/>
<path d="M244.548 300.507H249.096C249.78 300.507 250.335 299.952 250.335 299.268V229.668C250.335 228.983 249.78 228.428 249.096 228.428H244.548C243.863 228.428 243.308 228.983 243.308 229.668V299.268C243.308 299.952 243.863 300.507 244.548 300.507Z" fill="white"/>
<path opacity="0.3" d="M251.575 300.508H256.123C256.807 300.508 257.362 299.953 257.362 299.269V256.205C257.362 255.521 256.807 254.966 256.123 254.966H251.575C250.89 254.966 250.336 255.521 250.336 256.205V299.269C250.336 299.953 250.89 300.508 251.575 300.508Z" fill="#FEB062"/>
<path d="M300.782 300.507H305.33C306.014 300.507 306.569 299.952 306.569 299.268V240.911C306.569 240.227 306.014 239.672 305.33 239.672H300.782C300.097 239.672 299.543 240.227 299.543 240.911V299.268C299.543 299.952 300.097 300.507 300.782 300.507Z" fill="white"/>
<path opacity="0.3" d="M307.809 300.507H312.357C313.042 300.507 313.597 299.952 313.597 299.268V247.799C313.597 247.114 313.042 246.559 312.357 246.559H307.809C307.125 246.559 306.57 247.114 306.57 247.799V299.268C306.57 299.952 307.125 300.507 307.809 300.507Z" fill="#FEB062"/>
<path d="M272.666 300.508H277.214C277.898 300.508 278.453 299.953 278.453 299.269V212.386C278.453 211.702 277.898 211.147 277.214 211.147H272.666C271.981 211.147 271.426 211.702 271.426 212.386V299.269C271.426 299.953 271.981 300.508 272.666 300.508Z" fill="white"/>
<path opacity="0.3" d="M279.693 300.508H284.241C284.926 300.508 285.48 299.953 285.48 299.269V216.691C285.48 216.006 284.926 215.452 284.241 215.452H279.693C279.009 215.452 278.454 216.006 278.454 216.691V299.269C278.454 299.953 279.009 300.508 279.693 300.508Z" fill="#FEB062"/>
<path d="M216.431 300.508H220.979C221.664 300.508 222.219 299.953 222.219 299.269V212.386C222.219 211.702 221.664 211.147 220.979 211.147H216.431C215.747 211.147 215.192 211.702 215.192 212.386V299.269C215.192 299.953 215.747 300.508 216.431 300.508Z" fill="white"/>
<path opacity="0.3" d="M223.459 300.508H228.007C228.691 300.508 229.246 299.953 229.246 299.269V240.453C229.246 239.768 228.691 239.213 228.007 239.213H223.459C222.774 239.213 222.219 239.768 222.219 240.453V299.269C222.219 299.953 222.774 300.508 223.459 300.508Z" fill="#FEB062"/>
<path d="M188.314 300.507H192.862C193.547 300.507 194.102 299.952 194.102 299.268V248.258C194.102 247.573 193.547 247.018 192.862 247.018H188.314C187.63 247.018 187.075 247.573 187.075 248.258V299.268C187.075 299.952 187.63 300.507 188.314 300.507Z" fill="white"/>
<path opacity="0.3" d="M195.341 300.507H199.89C200.574 300.507 201.129 299.952 201.129 299.268V266.739C201.129 266.055 200.574 265.5 199.89 265.5H195.341C194.657 265.5 194.102 266.055 194.102 266.739V299.268C194.102 299.952 194.657 300.507 195.341 300.507Z" fill="#FEB062"/>
<path opacity="0.2" d="M398.011 74.8627V150.927C398.011 151.251 397.883 151.561 397.654 151.79C397.425 152.019 397.115 152.147 396.792 152.147H188.231C187.908 152.147 187.598 152.019 187.369 151.79C187.14 151.561 187.012 151.251 187.012 150.927V110.546C187.012 110.332 187.068 110.122 187.175 109.936C187.282 109.751 187.436 109.597 187.622 109.489L224.547 88.1696C224.736 88.061 224.949 88.0046 225.167 88.0063C225.384 88.008 225.597 88.0677 225.784 88.1792L242.406 98.1136C242.614 98.238 242.854 98.2977 243.096 98.285C243.338 98.2723 243.571 98.1879 243.765 98.0424L261.219 84.9402C261.397 84.8064 261.608 84.7237 261.83 84.7013C262.051 84.6789 262.274 84.7175 262.475 84.813L284.015 95.0577C284.245 95.1673 284.504 95.2021 284.755 95.1571C285.006 95.1122 285.236 94.9898 285.414 94.8072L309.329 70.2529C309.535 70.0404 309.812 69.9103 310.107 69.8869C310.403 69.8635 310.696 69.9484 310.934 70.1257L326.462 81.7534C326.687 81.922 326.963 82.0078 327.244 81.9962C327.525 81.9846 327.793 81.8764 328.004 81.6898L338.164 72.6608C338.369 72.4785 338.629 72.3706 338.903 72.3545C339.177 72.3385 339.448 72.4153 339.673 72.5724L354.092 82.6378C354.3 82.7823 354.547 82.8589 354.799 82.8571C355.052 82.8552 355.298 82.7751 355.503 82.6276L380.436 64.6835C380.628 64.5454 380.855 64.4658 381.091 64.4545C381.328 64.4432 381.562 64.5007 381.766 64.6199L397.408 73.8072C397.592 73.915 397.745 74.0692 397.85 74.2544C397.956 74.4396 398.012 74.6494 398.011 74.8627V74.8627Z" fill="#FEB062"/>
<path opacity="0.61" d="M187.72 109.498C187.827 109.498 187.932 109.47 188.024 109.416L225.064 88.0302L242.699 98.5693C242.803 98.6313 242.923 98.661 243.044 98.6547C243.165 98.6484 243.282 98.6062 243.378 98.5337L261.782 84.7181L284.444 95.4963C284.56 95.5507 284.689 95.5677 284.815 95.5449C284.94 95.5221 285.055 95.4606 285.144 95.3691L310.04 69.8044L326.794 82.3496C326.906 82.4339 327.044 82.4768 327.185 82.471C327.325 82.4652 327.459 82.4111 327.564 82.3178L338.829 72.3045L354.353 83.1444C354.457 83.2166 354.581 83.2549 354.707 83.254C354.833 83.2531 354.956 83.213 355.059 83.1393L381.017 64.4608L397.008 73.8522C397.077 73.8928 397.154 73.9194 397.233 73.9305C397.313 73.9416 397.393 73.937 397.471 73.9169C397.548 73.8968 397.621 73.8616 397.685 73.8134C397.749 73.7651 397.803 73.7047 397.844 73.6357C397.884 73.5666 397.911 73.4902 397.922 73.4109C397.933 73.3315 397.928 73.2508 397.908 73.1732C397.888 73.0957 397.853 73.0229 397.805 72.9589C397.757 72.8949 397.696 72.8411 397.627 72.8005L381.292 63.2069C381.19 63.1471 381.073 63.1182 380.955 63.1237C380.837 63.1292 380.723 63.169 380.627 63.238L354.697 81.8962L339.132 71.0316C339.02 70.9529 338.884 70.9144 338.747 70.9223C338.61 70.9303 338.48 70.9842 338.378 71.0754L327.123 81.0773L310.337 68.5092C310.219 68.4204 310.072 68.3778 309.924 68.3895C309.776 68.4013 309.638 68.4664 309.535 68.5728L284.57 94.2087L261.969 83.4591C261.869 83.4113 261.757 83.392 261.646 83.4032C261.536 83.4144 261.43 83.4557 261.341 83.5227L242.969 97.3142L225.379 86.8011C225.286 86.7455 225.179 86.7158 225.071 86.715C224.962 86.7142 224.855 86.7424 224.761 86.7967L187.41 108.361C187.294 108.429 187.203 108.532 187.152 108.656C187.1 108.781 187.092 108.918 187.126 109.048C187.161 109.178 187.238 109.292 187.345 109.374C187.451 109.456 187.582 109.5 187.716 109.5L187.72 109.498Z" fill="#FEB062"/>
<path d="M52.1053 461.814C52.1053 461.814 54.9761 476.693 68.9093 477.525C82.8426 478.357 79.821 489.454 79.821 489.454H26.5762V462.852L52.1053 461.814Z" fill="#FEB062"/>
<path d="M22.9658 190.354C22.9658 190.354 26.9475 185.88 26.9125 196.027C26.7809 233.878 24.2267 471.311 24.2267 471.311L59.2146 471.017L80.4092 188.815L22.9658 190.354Z" fill="#262626"/>
<path d="M111.85 461.814C111.85 461.814 114.721 476.693 128.654 477.525C142.588 478.357 139.566 489.454 139.566 489.454H86.3213V462.852L111.85 461.814Z" fill="#FEB062"/>
<path d="M118.617 193.293C118.617 193.293 122.988 322.659 122.534 328.982L118.424 470.33L84.0144 470.966L78.4654 323.868C78.4654 323.868 74.8283 283.291 65.0243 245.612C60.0083 226.274 56.9897 206.473 56.0156 186.519V186.519L118.617 193.293Z" fill="#262626"/>
<path d="M73.2227 285.013L76.0916 241.134C76.0916 241.134 79.0387 259.376 79.0387 275.099C79.0387 282.784 77.4561 313.212 77.4561 313.212L73.2227 285.013Z" fill="#0A0A0A"/>
<path d="M22.5852 190.349L22.4707 190.356C22.4707 190.356 22.5534 188.149 22.5852 190.349Z" fill="#333333"/>
<path d="M22.7287 190.349L22.6143 190.356C22.6143 190.356 22.6969 188.149 22.7287 190.349Z" fill="#333333"/>
<path d="M214.452 85.3489C214.241 84.9315 213.906 84.5898 213.493 84.3711C213.08 84.1524 212.609 84.0675 212.145 84.128C212.149 84.1001 212.147 84.0716 212.137 84.0449C212.128 84.0183 212.112 83.9944 212.091 83.9752C212.071 83.956 212.046 83.9422 212.018 83.935C211.991 83.9277 211.962 83.9272 211.935 83.9335L213.499 82.8125C213.967 82.4921 214.304 82.0128 214.446 81.4634C214.589 80.914 214.527 80.3316 214.273 79.824C214.007 79.3306 213.567 78.9538 213.038 78.7668C212.509 78.5799 211.93 78.5961 211.412 78.8124C211.416 78.7908 211.401 78.7692 211.398 78.7488L212.04 78.2878C212.48 77.9841 212.801 77.5377 212.95 77.0243C213.098 76.511 213.065 75.962 212.856 75.4704C212.718 75.1648 212.514 74.8936 212.258 74.6764C212.003 74.4592 211.703 74.3013 211.379 74.2142C211.055 74.1271 210.716 74.113 210.386 74.1727C210.057 74.2325 209.744 74.3647 209.472 74.5599L207.988 75.6236C207.984 75.6147 207.988 75.6046 207.982 75.5963C207.977 75.588 207.96 75.5848 207.952 75.5759C208.293 75.1929 208.493 74.7053 208.52 74.1933C208.547 73.6813 208.399 73.1754 208.101 72.7585C207.401 71.6318 205.784 71.862 204.825 72.5493L196.093 78.5809L197.654 75.953C197.968 75.4475 198.079 74.8415 197.964 74.2574C197.849 73.6733 197.516 73.1548 197.033 72.8068C196.777 72.6358 196.489 72.5186 196.187 72.4624C195.885 72.4062 195.574 72.4122 195.274 72.4801C194.974 72.5479 194.692 72.6761 194.443 72.8569C194.194 73.0378 193.985 73.2673 193.828 73.5317L185.308 87.8782C184.308 89.5612 184.004 91.5677 184.46 93.4713C184.916 95.3749 186.097 97.0256 187.751 98.0727C189.669 99.2874 191.906 99.9015 194.175 99.8363C196.444 99.7712 198.643 99.0298 200.488 97.7071L213.674 88.2559C214.112 87.93 214.428 87.4655 214.569 86.9378C214.71 86.4101 214.669 85.8502 214.452 85.3489V85.3489Z" fill="#E98862"/>
<g opacity="0.25">
<path d="M199.348 81.5832C199.38 81.6272 199.428 81.6568 199.482 81.6659C199.535 81.6749 199.59 81.6626 199.635 81.6315L207.932 75.8854C207.954 75.8698 207.973 75.8499 207.988 75.8268C208.003 75.8038 208.013 75.778 208.018 75.751C208.023 75.724 208.023 75.6964 208.017 75.6696C208.011 75.6428 208 75.6174 207.984 75.5948C207.969 75.5723 207.949 75.553 207.926 75.5382C207.903 75.5233 207.877 75.5131 207.85 75.5082C207.823 75.5033 207.795 75.5038 207.769 75.5096C207.742 75.5154 207.716 75.5264 207.694 75.542L199.397 81.2882C199.352 81.3198 199.321 81.3681 199.311 81.4225C199.301 81.477 199.313 81.5332 199.345 81.5787L199.348 81.5832Z" fill="#0C0C0C"/>
</g>
<g opacity="0.25">
<path d="M201.781 85.3113C201.813 85.3555 201.861 85.3854 201.915 85.3946C201.969 85.4037 202.024 85.3914 202.069 85.3603L211.328 78.9471C211.373 78.9154 211.404 78.8671 211.414 78.8126C211.424 78.7582 211.412 78.702 211.38 78.6566C211.347 78.6125 211.299 78.5826 211.245 78.5728C211.191 78.563 211.136 78.5741 211.09 78.6038L201.831 85.0169C201.786 85.0485 201.754 85.0968 201.745 85.1513C201.735 85.2058 201.747 85.2619 201.778 85.3075L201.781 85.3113Z" fill="#0C0C0C"/>
</g>
<g opacity="0.25">
<path d="M204.394 89.3655C204.426 89.4095 204.474 89.4392 204.528 89.4483C204.582 89.4573 204.637 89.4449 204.682 89.4138L212.067 84.2985C212.113 84.2669 212.144 84.2186 212.154 84.1641C212.164 84.1096 212.151 84.0534 212.12 84.0079C212.088 83.9624 212.04 83.9312 211.985 83.9213C211.931 83.9114 211.875 83.9236 211.829 83.9551L204.443 89.0705C204.398 89.1021 204.367 89.1504 204.357 89.2049C204.347 89.2593 204.359 89.3155 204.391 89.3611L204.394 89.3655Z" fill="#0C0C0C"/>
</g>
<path d="M180.28 84.6084L155.254 127.23L124.718 87.1772L99.3584 110.04L142.666 166.129L142.95 166.528C144.684 168.902 146.993 170.796 149.661 172.03C152.329 173.265 155.267 173.801 158.199 173.586C161.13 173.372 163.959 172.414 166.419 170.804C168.879 169.194 170.888 166.984 172.257 164.383L207.844 99.9373L180.28 84.6084Z" fill="#FEB062"/>
<path d="M152.801 132.355C152.75 132.355 152.701 132.343 152.656 132.32C152.619 132.301 152.586 132.275 152.558 132.244C152.531 132.212 152.511 132.175 152.498 132.135C152.485 132.095 152.48 132.054 152.483 132.012C152.487 131.97 152.498 131.93 152.517 131.893L154.971 127.086C154.99 127.048 155.016 127.015 155.048 126.988C155.08 126.961 155.117 126.94 155.156 126.928C155.196 126.915 155.238 126.91 155.279 126.913C155.321 126.916 155.362 126.928 155.399 126.947C155.436 126.966 155.469 126.992 155.496 127.024C155.523 127.056 155.544 127.092 155.557 127.132C155.57 127.172 155.575 127.214 155.571 127.255C155.568 127.297 155.557 127.338 155.538 127.375L153.084 132.182C153.057 132.234 153.017 132.278 152.967 132.308C152.917 132.339 152.859 132.355 152.801 132.355V132.355Z" fill="#0C0C0C"/>
<path d="M122.955 126.987L122.191 140.449L122.826 140.485L123.59 127.023L122.955 126.987Z" fill="#0C0C0C"/>
<path d="M42.3169 29.5608C42.3169 29.5608 41.1444 44.5451 37.7077 49.9466C27.8139 65.4974 24.7956 83.0848 34.4159 92.4031C44.0362 101.721 106.075 102.567 111.017 81.4482C115.18 63.6681 106.711 61.6531 104.815 46.9219C103.957 40.2576 101.548 26.2754 101.548 26.2754" fill="#0A0A0A"/>
<path d="M95.224 78.0719C95.1172 78.0579 93.9288 97.7779 71.02 96.0586C55.1608 94.8702 49.5063 78.0439 49.1426 78.0439C50.8524 77.6808 53.7321 77.1537 54.4913 76.7468C56.9882 75.4051 60.0784 74.0088 60.8834 69.1592C61.3476 66.3615 60.5604 52.0639 60.8027 49.2363L85.1465 54.6696C84.8064 60.6427 82.4258 74.4895 90.7699 76.9401C92.1586 77.3451 93.6541 77.7183 95.224 78.0719Z" fill="#E98862"/>
<path opacity="0.52" d="M85.4882 71.2814C85.1069 70.0525 84.8613 68.7855 84.7557 67.5032C84.4879 64.5769 84.5412 61.63 84.9146 58.7152C79.9667 58.0475 75.3053 56.0052 71.4602 52.8203C71.0081 54.49 68.522 61.7857 69.2106 63.3715C70.5115 66.3701 76.6258 71.2814 85.4882 71.2814Z" fill="#0C0C0C"/>
<path d="M82.2613 65.0742C72.6538 65.8919 60.2803 61.909 57.8564 49.0987L55.6685 37.5397C53.244 24.7293 58.0071 13.0711 70.0691 10.7885C82.1304 8.50579 93.1114 17.1844 95.5358 29.9948L96.5042 35.112C97.4345 40.0277 99.4043 63.6156 82.2613 65.0742Z" fill="#E98862"/>
<path d="M93.0658 35.6706C93.9008 35.6706 94.5778 34.9936 94.5778 34.1585C94.5778 33.3234 93.9008 32.6465 93.0658 32.6465C92.2307 32.6465 91.5537 33.3234 91.5537 34.1585C91.5537 34.9936 92.2307 35.6706 93.0658 35.6706Z" fill="#0C0C0C"/>
<path d="M77.5765 37.7399C78.4116 37.7399 79.0885 37.0629 79.0885 36.2279C79.0885 35.3928 78.4116 34.7158 77.5765 34.7158C76.7414 34.7158 76.0645 35.3928 76.0645 36.2279C76.0645 37.0629 76.7414 37.7399 77.5765 37.7399Z" fill="#0C0C0C"/>
<path d="M86.0771 47.3125H86.1006C86.5892 47.2163 87.0721 47.0932 87.5471 46.9437C88.2561 46.7155 89.1857 46.3384 89.0643 45.6975C88.9263 44.9675 85.4368 37.4709 85.0387 36.6182C85.004 36.5438 84.9411 36.4862 84.8639 36.4581C84.7867 36.43 84.7015 36.4338 84.627 36.4685C84.5526 36.5032 84.495 36.5661 84.4669 36.6433C84.4388 36.7206 84.4426 36.8058 84.4773 36.8802C85.9658 40.0728 88.3629 45.3217 88.4551 45.8132C88.3757 46.0408 87.1981 46.4738 85.9855 46.7034C85.9059 46.7173 85.8349 46.7618 85.7876 46.8273C85.7404 46.8929 85.7206 46.9743 85.7326 47.0542C85.7445 47.1341 85.7872 47.2062 85.8516 47.2551C85.916 47.3039 85.9969 47.3257 86.0771 47.3157V47.3125Z" fill="#0C0C0C"/>
<path d="M84.2911 52.8439C86.2584 52.5883 88.1382 51.8742 89.779 50.759C89.8479 50.7142 89.8962 50.6439 89.9133 50.5635C89.9303 50.4832 89.9147 50.3993 89.87 50.3304C89.8252 50.2615 89.7549 50.2133 89.6745 50.1962C89.5941 50.1791 89.5103 50.1947 89.4414 50.2395C85.8902 52.5533 82.3619 52.9272 79.238 51.3204C79.1748 51.2863 79.1099 51.2555 79.0435 51.2282C78.9664 51.2011 78.8817 51.2055 78.8079 51.2405C78.7341 51.2754 78.6771 51.3382 78.6493 51.415C78.6215 51.4919 78.6252 51.5766 78.6597 51.6507C78.6941 51.7248 78.7564 51.7823 78.833 51.8107C78.8578 51.8208 78.8966 51.8425 78.9551 51.8743C80.5976 52.7214 82.4555 53.059 84.2911 52.8439V52.8439Z" fill="#0C0C0C"/>
<path d="M46.0192 41.5688L56.8285 39.5863C65.0169 36.2729 67.4935 22.0967 67.4935 22.0967C67.4935 22.0967 77.4432 31.7914 101.547 26.2787C101.547 26.2787 96.7149 -7.33655 61.1039 2.43448C49.6212 5.58636 41.3801 17.1575 42.4101 32.6219C43.1261 43.4611 46.0192 41.5688 46.0192 41.5688Z" fill="#0A0A0A"/>
<path d="M59.3438 52.8598C55.6788 53.5535 51.9649 50.1944 51.2686 46.5287C50.5724 42.8631 53.1641 40.2796 56.8297 39.5859L59.1823 41.6842L62.4951 52.2634L59.3438 52.8598Z" fill="#E98862"/>
<path d="M87.2472 30.4889C88.3164 29.7988 89.5515 29.4087 90.8232 29.3596C91.4492 29.332 92.0759 29.3982 92.6824 29.5561C93.2828 29.7104 93.8615 29.9397 94.4049 30.2383C94.4814 30.2761 94.54 30.3425 94.5679 30.4232C94.5957 30.5039 94.5905 30.5923 94.5535 30.6692C94.5164 30.7461 94.4504 30.8053 94.37 30.8338C94.2895 30.8623 94.201 30.8578 94.1238 30.8214L94.1009 30.8106C93.5988 30.564 93.0678 30.3813 92.5202 30.267C91.9788 30.1511 91.4229 30.1179 90.8715 30.1684C89.7779 30.2599 88.7279 30.6392 87.8283 31.2678L87.7991 31.2888C87.7474 31.3263 87.6888 31.3534 87.6267 31.3683C87.5646 31.3832 87.5001 31.3858 87.437 31.3758C87.3739 31.3658 87.3133 31.3435 87.2588 31.3101C87.2043 31.2768 87.157 31.233 87.1194 31.1813C87.0818 31.1296 87.0548 31.071 87.0398 31.0089C87.0249 30.9468 87.0224 30.8823 87.0323 30.8192C87.0423 30.7561 87.0646 30.6955 87.098 30.641C87.1314 30.5865 87.1752 30.5392 87.2268 30.5016L87.2472 30.4889Z" fill="#0C0C0C"/>
<path d="M77.6043 32.7587C76.5384 32.4982 75.4226 32.5239 74.3698 32.8331C73.8374 32.9855 73.331 33.2174 72.8679 33.521C72.3984 33.8263 71.9692 34.1894 71.5905 34.602L71.5733 34.6191C71.514 34.6786 71.434 34.7127 71.35 34.7142C71.2661 34.7157 71.1848 34.6846 71.1234 34.6273C71.062 34.57 71.0253 34.4911 71.0209 34.4073C71.0166 34.3234 71.0451 34.2411 71.1003 34.1779C71.4989 33.7029 71.9559 33.2801 72.4603 32.9195C72.9682 32.5525 73.5285 32.2642 74.1224 32.0643C75.3262 31.6506 76.619 31.568 77.8656 31.8252C77.9921 31.8524 78.1026 31.9287 78.1729 32.0373C78.2431 32.1459 78.2673 32.278 78.2401 32.4045C78.213 32.531 78.1367 32.6415 78.0281 32.7117C77.9195 32.782 77.7874 32.8062 77.6609 32.779L77.6412 32.7746L77.6043 32.7587Z" fill="#0C0C0C"/>
<path d="M84.7096 55.7514C85.066 55.7107 85.4182 55.6399 85.7626 55.5397C85.8022 55.529 85.8393 55.5104 85.8717 55.4852C85.9041 55.46 85.9312 55.4286 85.9514 55.3928C85.9715 55.3571 85.9844 55.3176 85.9891 55.2769C85.9939 55.2361 85.9905 55.1948 85.9792 55.1553C85.9679 55.1158 85.9488 55.079 85.9231 55.047C85.8974 55.015 85.8656 54.9884 85.8295 54.9688C85.7934 54.9492 85.7538 54.9369 85.713 54.9328C85.6721 54.9286 85.6308 54.9326 85.5916 54.9445C83.5181 55.541 82.3392 54.7506 82.2903 54.7163C82.2228 54.6691 82.1394 54.6506 82.0583 54.6649C81.9772 54.6792 81.9051 54.7251 81.8579 54.7926C81.8107 54.86 81.7922 54.9435 81.8065 55.0246C81.8208 55.1057 81.8667 55.1777 81.9342 55.225C82.7709 55.7154 83.7514 55.9014 84.7096 55.7514V55.7514Z" fill="#0C0C0C"/>
<path d="M56.8555 39.4492L56.748 39.1497C70.4473 34.2314 67.097 20.7878 67.0621 20.6524L67.3692 20.5723C67.4054 20.7096 70.832 34.4311 56.8555 39.4492Z" fill="#0C0C0C"/>
<path opacity="0.1" d="M76.3559 48.2557C77.9376 48.0856 79.1186 47.0071 78.9937 45.8468C78.8689 44.6866 77.4855 43.884 75.9039 44.0542C74.3222 44.2244 73.1412 45.3029 73.2661 46.4631C73.3909 47.6233 74.7743 48.4259 76.3559 48.2557Z" fill="#0C0C0C"/>
<path opacity="0.1" d="M93.0977 43.8173C93.2249 44.9759 94.6085 45.777 96.1905 45.6092C96.4638 45.5795 96.7333 45.5218 96.9948 45.4368C97.0838 44.0583 97.1035 42.7313 97.0775 41.5022C96.6402 41.3878 96.1854 41.3559 95.7365 41.4081C94.1545 41.576 92.9744 42.6544 93.0977 43.8173Z" fill="#0C0C0C"/>
<path d="M123.686 121.484C122.965 129.961 119.455 182.849 118.761 193.291H26.9631C26.4226 183.873 20.1824 142.693 18.1344 124.277C16.1792 106.704 12.3431 97.9054 15.1548 92.7099C19.7494 84.2189 32.3048 79.3127 40.8658 78.1536C46.0937 77.4459 53.9559 76.9385 53.9559 76.9385C53.9559 76.9385 54.6216 90.4056 70.4961 91.1553C92.1053 92.1727 90.6625 76.9385 90.7694 76.9385C94.2703 76.9385 114.269 79.1544 119.162 82.0545C132.494 89.9497 125.218 103.52 123.686 121.484Z" fill="#FEB062"/>
<path d="M183.272 127.405L174.424 170.413C174.244 171.287 173.77 172.072 173.081 172.638C172.393 173.204 171.531 173.517 170.639 173.525L109.709 174.044C109.128 174.049 108.553 173.924 108.026 173.678C107.499 173.432 107.035 173.071 106.665 172.622C106.296 172.173 106.032 171.647 105.892 171.083C105.753 170.519 105.741 169.93 105.858 169.361L114.707 126.352C114.887 125.479 115.36 124.694 116.049 124.128C116.738 123.562 117.6 123.248 118.491 123.241L179.421 122.722C180.003 122.717 180.578 122.842 181.104 123.088C181.631 123.334 182.096 123.695 182.465 124.144C182.834 124.593 183.098 125.119 183.238 125.683C183.378 126.247 183.389 126.835 183.272 127.405Z" fill="#292A2E"/>
<path d="M126.456 157.954C126.489 158.521 126.316 159.08 125.969 159.528C125.622 159.977 125.124 160.285 124.568 160.396L122.692 160.81C122.726 160.821 122.756 160.84 122.78 160.865C122.805 160.891 122.823 160.922 122.832 160.956C122.837 160.996 122.828 161.036 122.807 161.07C123.258 161.197 123.658 161.461 123.952 161.826C124.246 162.19 124.419 162.638 124.447 163.105C124.45 163.65 124.269 164.18 123.933 164.609C123.597 165.038 123.126 165.342 122.597 165.47L106.758 168.987C105.948 169.169 105.121 169.26 104.291 169.26C102.442 169.26 100.621 168.81 98.9854 167.949C97.3493 167.088 95.9471 165.843 94.8995 164.32C93.7888 162.708 93.3506 160.727 93.6784 158.797C94.0061 156.867 95.0739 155.142 96.6544 153.987L110.128 144.138C110.424 143.921 110.769 143.779 111.133 143.725L109.893 149.746L110.223 149.67L110.293 149.657L120.626 147.552C121.777 147.298 123.354 147.718 123.557 149.028C123.666 149.529 123.602 150.053 123.376 150.513C123.15 150.974 122.774 151.344 122.311 151.565C122.317 151.571 122.33 151.577 122.33 151.59C122.33 151.603 122.323 151.609 122.323 151.622L124.11 151.228C124.437 151.155 124.776 151.156 125.102 151.23C125.429 151.305 125.735 151.45 125.998 151.657C126.262 151.864 126.476 152.127 126.625 152.426C126.775 152.726 126.856 153.055 126.863 153.389C126.863 153.924 126.678 154.442 126.34 154.856C126.002 155.269 125.531 155.553 125.007 155.659L124.237 155.831C124.231 155.857 124.237 155.882 124.225 155.901C124.785 155.905 125.324 156.118 125.736 156.497C126.149 156.877 126.406 157.396 126.456 157.954Z" fill="#E98862"/>
<g opacity="0.25">
<path d="M112.038 153.709C112.05 153.762 112.083 153.808 112.128 153.838C112.174 153.867 112.23 153.877 112.283 153.867L122.169 151.84C122.197 151.835 122.224 151.825 122.248 151.81C122.272 151.795 122.292 151.775 122.308 151.752C122.324 151.729 122.335 151.703 122.341 151.675C122.347 151.647 122.347 151.619 122.341 151.591C122.335 151.563 122.324 151.537 122.308 151.514C122.292 151.491 122.271 151.471 122.248 151.456C122.224 151.441 122.197 151.431 122.169 151.426C122.141 151.422 122.113 151.423 122.085 151.43L112.199 153.458C112.145 153.469 112.097 153.501 112.067 153.547C112.036 153.594 112.025 153.65 112.036 153.704L112.038 153.709Z" fill="#0C0C0C"/>
</g>
<g opacity="0.25">
<path d="M112.811 158.093C112.823 158.146 112.856 158.193 112.902 158.222C112.948 158.252 113.003 158.262 113.057 158.251L124.09 155.989C124.144 155.977 124.191 155.945 124.222 155.899C124.252 155.853 124.263 155.796 124.253 155.742C124.24 155.689 124.207 155.642 124.161 155.612C124.115 155.582 124.06 155.57 124.006 155.579L112.973 157.842C112.918 157.853 112.871 157.886 112.84 157.932C112.81 157.978 112.799 158.035 112.81 158.089L112.811 158.093Z" fill="#0C0C0C"/>
</g>
<g opacity="0.25">
<path d="M113.622 162.848C113.634 162.901 113.667 162.947 113.712 162.976C113.758 163.006 113.814 163.016 113.867 163.005L122.668 161.201C122.696 161.196 122.722 161.186 122.746 161.171C122.77 161.156 122.791 161.137 122.807 161.113C122.823 161.09 122.834 161.064 122.84 161.036C122.845 161.009 122.845 160.98 122.84 160.952C122.834 160.925 122.823 160.898 122.807 160.875C122.791 160.852 122.77 160.832 122.746 160.817C122.722 160.802 122.696 160.792 122.668 160.788C122.64 160.783 122.611 160.785 122.584 160.791L113.783 162.597C113.756 162.602 113.731 162.613 113.708 162.628C113.685 162.643 113.666 162.663 113.651 162.686C113.636 162.709 113.625 162.734 113.62 162.761C113.615 162.788 113.615 162.816 113.62 162.843L113.622 162.848Z" fill="#0C0C0C"/>
</g>
<path d="M105.777 175.255L19.846 190.783C17.1645 191.075 14.4518 190.742 11.9208 189.809C9.38985 188.876 7.10942 187.37 5.25849 185.408C3.40756 183.446 2.03649 181.082 1.25288 178.501C0.469268 175.92 0.294429 173.192 0.742083 170.532L12.7716 99.027C13.5397 94.4612 16.0902 90.3875 19.8618 87.7021C23.6335 85.0168 28.3175 83.9397 32.8833 84.7078C37.4491 85.476 41.5228 88.0264 44.2082 91.7981C46.8935 95.5698 47.9706 100.254 47.2025 104.82L39.0001 154.043L101.999 146.134L105.777 175.255Z" fill="#FEB062"/>
<path d="M19.8456 191.1C19.7662 191.1 19.6898 191.07 19.6313 191.017C19.5729 190.963 19.5366 190.889 19.5296 190.81C19.5226 190.731 19.5453 190.653 19.5935 190.589C19.6416 190.526 19.7115 190.484 19.7896 190.469L105.423 174.994L101.726 146.486L39.0391 154.358C38.99 154.365 38.94 154.36 38.8932 154.343C38.8465 154.327 38.8043 154.299 38.7702 154.263C38.7358 154.228 38.7102 154.184 38.6955 154.137C38.6809 154.09 38.6775 154.039 38.6856 153.991L43.8995 122.531C43.9063 122.49 43.9212 122.45 43.9432 122.415C43.9653 122.379 43.9941 122.348 44.028 122.324C44.062 122.3 44.1004 122.282 44.1411 122.273C44.1818 122.263 44.2239 122.262 44.2651 122.269C44.3064 122.276 44.3459 122.291 44.3815 122.313C44.417 122.335 44.4478 122.364 44.4721 122.398C44.4965 122.432 44.5139 122.47 44.5233 122.511C44.5327 122.552 44.534 122.594 44.5271 122.635L39.3825 153.674L101.96 145.815C102.043 145.804 102.127 145.827 102.194 145.879C102.26 145.93 102.304 146.006 102.314 146.089L106.093 175.211C106.103 175.291 106.082 175.373 106.034 175.439C105.986 175.505 105.914 175.55 105.834 175.565L19.9028 191.096C19.8838 191.099 19.8647 191.1 19.8456 191.1V191.1Z" fill="#0C0C0C"/>
<path d="M38.9504 153.728L33.4229 154.613L33.5235 155.242L39.051 154.357L38.9504 153.728Z" fill="#0C0C0C"/>
<path d="M489.968 490.346H6.45876C6.34072 490.346 6.22751 490.299 6.14404 490.216C6.06057 490.132 6.01367 490.019 6.01367 489.901C6.01367 489.783 6.06057 489.67 6.14404 489.586C6.22751 489.503 6.34072 489.456 6.45876 489.456H489.968C490.026 489.456 490.084 489.468 490.138 489.49C490.192 489.512 490.241 489.545 490.282 489.586C490.324 489.628 490.356 489.677 490.379 489.731C490.401 489.785 490.413 489.843 490.413 489.901C490.413 489.96 490.401 490.017 490.379 490.071C490.356 490.125 490.324 490.175 490.282 490.216C490.241 490.257 490.192 490.29 490.138 490.312C490.084 490.335 490.026 490.346 489.968 490.346V490.346Z" fill="#292A2E"/>
<path d="M466.996 421.798C466.928 421.798 466.86 421.784 466.797 421.758C466.733 421.732 466.676 421.693 466.627 421.645C465.891 420.908 464.69 407.397 461.457 367.169C460.134 350.709 458.884 335.162 457.972 325.712C457.908 325.037 457.646 324.959 457.559 324.933C456.311 324.556 452.515 327.55 450.395 330.172C450.308 330.279 450.182 330.348 450.044 330.363C449.906 330.377 449.768 330.337 449.66 330.249C449.552 330.162 449.483 330.036 449.469 329.898C449.454 329.76 449.495 329.622 449.582 329.514C450.981 327.781 455.552 323.237 457.86 323.932C458.207 324.051 458.507 324.279 458.715 324.581C458.922 324.884 459.027 325.245 459.013 325.612C459.925 335.069 461.175 350.62 462.499 367.085C464.464 391.531 466.689 419.224 467.421 420.969C467.477 421.048 467.51 421.139 467.517 421.235C467.524 421.331 467.504 421.427 467.46 421.512C467.416 421.597 467.35 421.669 467.268 421.719C467.186 421.769 467.092 421.796 466.996 421.796V421.798Z" fill="#494949"/>
<path d="M456.629 343.05C465.302 336.098 468.177 325.277 463.05 318.88C457.923 312.484 446.735 312.935 438.062 319.887C429.389 326.84 426.514 337.661 431.641 344.057C436.768 350.453 447.956 350.003 456.629 343.05Z" fill="#0CBC8B"/>
<path opacity="0.2" d="M456.629 343.05C465.302 336.098 468.177 325.277 463.05 318.88C457.923 312.484 446.735 312.935 438.062 319.887C429.389 326.84 426.514 337.661 431.641 344.057C436.768 350.453 447.956 350.003 456.629 343.05Z" fill="white"/>
<path d="M434.072 345.685C434.023 345.685 433.974 345.671 433.932 345.644C433.89 345.618 433.856 345.58 433.835 345.535C433.814 345.49 433.806 345.44 433.813 345.391C433.819 345.341 433.839 345.295 433.871 345.257L458.59 315.449C458.634 315.396 458.698 315.362 458.767 315.356C458.836 315.349 458.904 315.37 458.958 315.415C459.011 315.459 459.045 315.523 459.051 315.592C459.058 315.661 459.036 315.729 458.992 315.783L434.272 345.591C434.248 345.62 434.217 345.644 434.183 345.66C434.148 345.676 434.11 345.685 434.072 345.685V345.685Z" fill="white"/>
<path d="M472.387 415.408C472.328 415.408 472.27 415.399 472.215 415.379C472.15 415.357 472.091 415.321 472.039 415.276C471.988 415.23 471.946 415.175 471.916 415.113C471.886 415.051 471.869 414.984 471.865 414.916C471.861 414.847 471.871 414.779 471.894 414.714L481.177 388.012C481.45 387.227 481.916 386.523 482.531 385.965C483.147 385.407 483.893 385.012 484.701 384.817C485.508 384.622 486.352 384.633 487.155 384.849C487.957 385.065 488.692 385.479 489.293 386.053L494.202 390.742C494.302 390.838 494.36 390.969 494.364 391.108C494.367 391.247 494.315 391.381 494.219 391.481C494.123 391.581 493.991 391.639 493.853 391.643C493.714 391.646 493.58 391.594 493.48 391.498L488.571 386.809C488.097 386.356 487.516 386.029 486.883 385.858C486.249 385.688 485.583 385.679 484.945 385.833C484.308 385.987 483.719 386.299 483.233 386.739C482.747 387.18 482.379 387.735 482.164 388.355L472.88 415.06C472.844 415.162 472.777 415.25 472.689 415.313C472.601 415.375 472.495 415.408 472.387 415.408V415.408Z" fill="#494949"/>
<path d="M507.919 405.527C514.346 400.44 513.964 389.25 507.065 380.534C500.166 371.818 489.363 368.877 482.935 373.965C476.508 379.052 476.89 390.242 483.789 398.958C490.687 407.674 501.491 410.615 507.919 405.527Z" fill="#0CBC8B"/>
<path d="M462.778 420.095C462.661 420.095 462.547 420.055 462.454 419.983C462.362 419.91 462.297 419.808 462.269 419.694L446.691 354.545C446.585 354.1 446.359 353.694 446.036 353.37C445.714 353.046 445.309 352.818 444.865 352.709C444.421 352.601 443.956 352.617 443.521 352.756C443.086 352.895 442.698 353.151 442.399 353.497L437.596 359.048C437.505 359.153 437.376 359.217 437.238 359.227C437.1 359.237 436.963 359.192 436.858 359.101C436.753 359.01 436.689 358.881 436.679 358.743C436.669 358.605 436.714 358.468 436.805 358.364L441.608 352.813C442.033 352.322 442.585 351.958 443.203 351.761C443.822 351.564 444.482 351.54 445.113 351.694C445.743 351.848 446.319 352.173 446.777 352.633C447.235 353.093 447.557 353.671 447.708 354.302L463.286 419.451C463.302 419.518 463.305 419.587 463.294 419.655C463.284 419.723 463.26 419.788 463.224 419.846C463.188 419.905 463.141 419.956 463.085 419.996C463.029 420.036 462.966 420.065 462.9 420.081C462.86 420.09 462.819 420.095 462.778 420.095V420.095Z" fill="#494949"/>
<path d="M457.031 373.524C458.925 362.57 453.913 352.559 445.835 351.162C437.757 349.765 429.673 357.512 427.779 368.465C425.885 379.418 430.898 389.43 438.976 390.827C447.053 392.224 455.137 384.477 457.031 373.524Z" fill="#0CBC8B"/>
<path d="M466.997 421.798C466.976 421.798 466.955 421.797 466.934 421.794C466.796 421.777 466.671 421.706 466.586 421.597C466.5 421.488 466.462 421.349 466.478 421.212L476.429 340.427C476.538 339.547 476.898 338.717 477.467 338.037C478.036 337.357 478.789 336.855 479.636 336.593C480.483 336.33 481.387 336.318 482.241 336.558C483.095 336.797 483.861 337.278 484.448 337.943L495.821 350.824C495.868 350.875 495.904 350.935 495.928 351C495.951 351.066 495.962 351.135 495.958 351.205C495.955 351.274 495.937 351.342 495.907 351.405C495.877 351.468 495.834 351.524 495.782 351.57C495.73 351.616 495.669 351.651 495.603 351.673C495.537 351.695 495.468 351.704 495.398 351.699C495.329 351.694 495.261 351.675 495.199 351.644C495.137 351.612 495.082 351.569 495.037 351.516L483.665 338.635C483.21 338.123 482.618 337.752 481.959 337.568C481.299 337.384 480.601 337.394 479.947 337.596C479.293 337.799 478.711 338.186 478.271 338.71C477.831 339.235 477.552 339.876 477.467 340.555L467.517 421.339C467.502 421.466 467.44 421.583 467.344 421.667C467.249 421.752 467.125 421.798 466.997 421.798V421.798Z" fill="#494949"/>
<path d="M507.483 357.982C511.451 350.809 506.782 340.632 497.055 335.251C487.328 329.871 476.227 331.325 472.259 338.498C468.291 345.671 472.959 355.848 482.686 361.228C492.413 366.609 503.515 365.155 507.483 357.982Z" fill="#0CBC8B"/>
<path opacity="0.2" d="M507.919 405.527C514.346 400.44 513.964 389.25 507.065 380.534C500.166 371.818 489.363 368.877 482.935 373.965C476.508 379.052 476.89 390.242 483.789 398.958C490.687 407.674 501.491 410.615 507.919 405.527Z" fill="white"/>
<path opacity="0.5" d="M457.031 373.524C458.925 362.57 453.913 352.559 445.835 351.162C437.757 349.765 429.673 357.512 427.779 368.465C425.885 379.418 430.898 389.43 438.976 390.827C447.053 392.224 455.137 384.477 457.031 373.524Z" fill="white"/>
<path opacity="0.5" d="M507.483 357.982C511.451 350.809 506.782 340.632 497.055 335.251C487.328 329.871 476.227 331.325 472.259 338.498C468.291 345.671 472.959 355.848 482.686 361.228C492.413 366.609 503.515 365.155 507.483 357.982Z" fill="white"/>
<path d="M479.722 490.344H454.269L450.052 408.908H483.94L479.722 490.344Z" fill="#292A2E"/>
<path opacity="0.3" d="M479.722 490.344H454.269L450.052 408.908H483.94L479.722 490.344Z" fill="white"/>
<path d="M507.919 405.784C507.88 405.784 507.84 405.775 507.804 405.757C507.769 405.74 507.737 405.715 507.713 405.683L482.729 374.12C482.686 374.065 482.667 373.996 482.675 373.927C482.683 373.858 482.718 373.796 482.772 373.753C482.827 373.71 482.896 373.69 482.965 373.698C483.034 373.706 483.096 373.741 483.139 373.796L508.123 405.358C508.154 405.397 508.173 405.443 508.178 405.492C508.184 405.541 508.175 405.59 508.154 405.634C508.133 405.679 508.099 405.716 508.057 405.742C508.016 405.768 507.967 405.782 507.918 405.782L507.919 405.784Z" fill="white"/>
<path d="M505.821 360.511C505.765 360.511 505.711 360.494 505.667 360.461L473.695 337.116C473.666 337.097 473.641 337.071 473.622 337.042C473.603 337.012 473.59 336.979 473.584 336.945C473.578 336.91 473.579 336.875 473.587 336.84C473.595 336.806 473.61 336.774 473.63 336.746C473.651 336.717 473.677 336.694 473.708 336.676C473.738 336.658 473.771 336.646 473.806 336.641C473.841 336.636 473.876 336.639 473.91 336.648C473.944 336.657 473.976 336.673 474.003 336.695L505.973 360.039C506.018 360.071 506.051 360.117 506.068 360.169C506.085 360.222 506.085 360.278 506.068 360.331C506.051 360.383 506.017 360.429 505.973 360.461C505.928 360.494 505.874 360.511 505.819 360.511H505.821Z" fill="white"/>
<path d="M437.676 390.487C437.653 390.487 437.631 390.484 437.608 390.478C437.542 390.46 437.485 390.417 437.45 390.357C437.416 390.298 437.406 390.227 437.423 390.16L447.601 352.029C447.62 351.964 447.664 351.908 447.724 351.875C447.783 351.841 447.854 351.832 447.92 351.85C447.986 351.867 448.042 351.91 448.077 351.969C448.112 352.028 448.122 352.098 448.106 352.164L437.928 390.292C437.914 390.348 437.881 390.397 437.836 390.432C437.79 390.468 437.734 390.487 437.676 390.487V390.487Z" fill="white"/>
</g>
<defs>
<clipPath id="clip0_671_1480">
<rect width="512" height="489.692" fill="white" transform="translate(0.5 0.654297)"/>
</clipPath>
</defs>
</svg>
