<svg width="654" height="658" viewBox="0 0 654 658" fill="none" xmlns="http://www.w3.org/2000/svg">
<g clip-path="url(#clip0_390_1644)">
<path d="M530.5 434.633H370.811C364.31 434.633 359.04 439.91 359.04 446.42V533.132C359.04 539.642 364.31 544.919 370.811 544.919H530.5C537.001 544.919 542.272 539.642 542.272 533.132V446.42C542.272 439.91 537.001 434.633 530.5 434.633Z" fill="white"/>
<path opacity="0.1" d="M530.5 434.633H370.811C364.31 434.633 359.04 439.91 359.04 446.42V533.132C359.04 539.642 364.31 544.919 370.811 544.919H530.5C537.001 544.919 542.272 539.642 542.272 533.132V446.42C542.272 439.91 537.001 434.633 530.5 434.633Z" fill="#FEB062"/>
<path d="M491.799 493.768H477.66C476.799 493.768 476.101 494.466 476.101 495.328V526.71C476.101 527.572 476.799 528.27 477.66 528.27H491.799C492.66 528.27 493.358 527.572 493.358 526.71V495.328C493.358 494.466 492.66 493.768 491.799 493.768Z" fill="white"/>
<path d="M525.873 466.935H511.733C510.873 466.935 510.175 467.633 510.175 468.495V526.71C510.175 527.572 510.873 528.271 511.733 528.271H525.873C526.734 528.271 527.432 527.572 527.432 526.71V468.495C527.432 467.633 526.734 466.935 525.873 466.935Z" fill="white"/>
<path d="M389.577 493.768H375.437C374.576 493.768 373.878 494.466 373.878 495.328V526.71C373.878 527.572 374.576 528.27 375.437 528.27H389.577C390.437 528.27 391.135 527.572 391.135 526.71V495.328C391.135 494.466 390.437 493.768 389.577 493.768Z" fill="white"/>
<path d="M423.651 454.733H409.512C408.651 454.733 407.953 455.432 407.953 456.294V526.71C407.953 527.572 408.651 528.27 409.512 528.27H423.651C424.512 528.27 425.21 527.572 425.21 526.71V456.294C425.21 455.432 424.512 454.733 423.651 454.733Z" fill="white"/>
<path d="M457.725 486.034H443.586C442.725 486.034 442.027 486.733 442.027 487.595V526.71C442.027 527.572 442.725 528.27 443.586 528.27H457.725C458.586 528.27 459.284 527.572 459.284 526.71V487.595C459.284 486.733 458.586 486.034 457.725 486.034Z" fill="white"/>
<path d="M243.1 367.18H40.4267C32.1751 367.18 25.4858 373.878 25.4858 382.14V492.193C25.4858 500.455 32.1751 507.153 40.4267 507.153H243.1C251.352 507.153 258.041 500.455 258.041 492.193V382.14C258.041 373.878 251.352 367.18 243.1 367.18Z" fill="white"/>
<path opacity="0.1" d="M243.1 367.18H40.4267C32.1751 367.18 25.4858 373.878 25.4858 382.14V492.193C25.4858 500.455 32.1751 507.153 40.4267 507.153H243.1C251.352 507.153 258.041 500.455 258.041 492.193V382.14C258.041 373.878 251.352 367.18 243.1 367.18Z" fill="#FEB062"/>
<path d="M193.983 442.232H176.037C174.944 442.232 174.059 443.119 174.059 444.213V484.042C174.059 485.136 174.944 486.022 176.037 486.022H193.983C195.075 486.022 195.961 485.136 195.961 484.042V444.213C195.961 443.119 195.075 442.232 193.983 442.232Z" fill="white"/>
<path d="M237.229 408.177H219.283C218.19 408.177 217.305 409.064 217.305 410.157V484.043C217.305 485.137 218.19 486.024 219.283 486.024H237.229C238.321 486.024 239.207 485.137 239.207 484.043V410.157C239.207 409.064 238.321 408.177 237.229 408.177Z" fill="white"/>
<path d="M64.243 442.232H46.2969C45.2045 442.232 44.3188 443.119 44.3188 444.213V484.042C44.3188 485.136 45.2045 486.022 46.2969 486.022H64.243C65.3354 486.022 66.2211 485.136 66.2211 484.042V444.213C66.2211 443.119 65.3354 442.232 64.243 442.232Z" fill="white"/>
<path d="M107.49 392.691H89.5435C88.451 392.691 87.5654 393.578 87.5654 394.672V484.042C87.5654 485.136 88.451 486.023 89.5435 486.023H107.49C108.582 486.023 109.468 485.136 109.468 484.042V394.672C109.468 393.578 108.582 392.691 107.49 392.691Z" fill="white"/>
<path d="M150.736 432.417H132.79C131.698 432.417 130.812 433.304 130.812 434.398V484.042C130.812 485.136 131.698 486.022 132.79 486.022H150.736C151.829 486.022 152.714 485.136 152.714 484.042V434.398C152.714 433.304 151.829 432.417 150.736 432.417Z" fill="white"/>
<path d="M627.356 0.641602H394.587C385.11 0.641602 377.428 8.33421 377.428 17.8235V144.219C377.428 153.709 385.11 161.401 394.587 161.401H627.356C636.833 161.401 644.516 153.709 644.516 144.219V17.8235C644.516 8.33421 636.833 0.641602 627.356 0.641602Z" fill="white"/>
<path opacity="0.1" d="M627.356 0.641602H394.587C385.11 0.641602 377.428 8.33421 377.428 17.8235V144.219C377.428 153.709 385.11 161.401 394.587 161.401H627.356C636.833 161.401 644.516 153.709 644.516 144.219V17.8235C644.516 8.33421 636.833 0.641602 627.356 0.641602Z" fill="#FEB062"/>
<path d="M570.946 86.8408H550.335C549.081 86.8408 548.063 87.8592 548.063 89.1155V134.859C548.063 136.115 549.081 137.134 550.335 137.134H570.946C572.201 137.134 573.218 136.115 573.218 134.859V89.1155C573.218 87.8592 572.201 86.8408 570.946 86.8408Z" fill="white"/>
<path d="M620.614 47.7266H600.003C598.749 47.7266 597.731 48.745 597.731 50.0012V134.859C597.731 136.115 598.749 137.133 600.003 137.133H620.614C621.868 137.133 622.886 136.115 622.886 134.859V50.0012C622.886 48.745 621.868 47.7266 620.614 47.7266Z" fill="white"/>
<path d="M421.941 86.8408H401.33C400.075 86.8408 399.058 87.8592 399.058 89.1155V134.859C399.058 136.115 400.075 137.134 401.33 137.134H421.941C423.195 137.134 424.212 136.115 424.212 134.859V89.1155C424.212 87.8592 423.195 86.8408 421.941 86.8408Z" fill="white"/>
<path d="M471.609 29.9424H450.998C449.744 29.9424 448.727 30.9608 448.727 32.2171V134.859C448.727 136.115 449.744 137.133 450.998 137.133H471.609C472.864 137.133 473.881 136.115 473.881 134.859V32.2171C473.881 30.9608 472.864 29.9424 471.609 29.9424Z" fill="white"/>
<path d="M521.277 75.5674H500.666C499.412 75.5674 498.395 76.5858 498.395 77.8421V134.858C498.395 136.114 499.412 137.133 500.666 137.133H521.277C522.532 137.133 523.549 136.114 523.549 134.858V77.8421C523.549 76.5858 522.532 75.5674 521.277 75.5674Z" fill="white"/>
<path d="M121.921 133.33H8.37044C3.74757 133.33 0 137.083 0 141.711V203.371C0 208 3.74757 211.752 8.37044 211.752H121.921C126.544 211.752 130.292 208 130.292 203.371V141.711C130.292 137.083 126.544 133.33 121.921 133.33Z" fill="white"/>
<path opacity="0.3" d="M121.921 133.33H8.37044C3.74757 133.33 0 137.083 0 141.711V203.371C0 208 3.74757 211.752 8.37044 211.752H121.921C126.544 211.752 130.292 208 130.292 203.371V141.711C130.292 137.083 126.544 133.33 121.921 133.33Z" fill="#FEB062"/>
<path d="M94.4031 175.379H84.3482C83.7363 175.379 83.2402 175.876 83.2402 176.488V198.804C83.2402 199.416 83.7363 199.913 84.3482 199.913H94.4031C95.015 199.913 95.5111 199.416 95.5111 198.804V176.488C95.5111 175.876 95.015 175.379 94.4031 175.379Z" fill="white"/>
<path d="M118.632 156.299H108.577C107.965 156.299 107.469 156.796 107.469 157.408V198.804C107.469 199.416 107.965 199.913 108.577 199.913H118.632C119.244 199.913 119.74 199.416 119.74 198.804V157.408C119.74 156.796 119.244 156.299 118.632 156.299Z" fill="white"/>
<path d="M21.7146 175.379H11.6597C11.0478 175.379 10.5518 175.876 10.5518 176.488V198.804C10.5518 199.416 11.0478 199.913 11.6597 199.913H21.7146C22.3265 199.913 22.8226 199.416 22.8226 198.804V176.488C22.8226 175.876 22.3265 175.379 21.7146 175.379Z" fill="white"/>
<path d="M45.9441 147.623H35.8892C35.2773 147.623 34.7812 148.12 34.7812 148.732V198.804C34.7812 199.417 35.2773 199.913 35.8892 199.913H45.9441C46.556 199.913 47.0521 199.417 47.0521 198.804V148.732C47.0521 148.12 46.556 147.623 45.9441 147.623Z" fill="white"/>
<path d="M70.1731 169.88H60.1182C59.5063 169.88 59.0103 170.377 59.0103 170.989V198.803C59.0103 199.416 59.5063 199.913 60.1182 199.913H70.1731C70.785 199.913 71.2811 199.416 71.2811 198.803V170.989C71.2811 170.377 70.785 169.88 70.1731 169.88Z" fill="white"/>
<path d="M108.256 411.294L566.875 411.294C578.138 411.294 587.268 402.152 587.268 390.875V54.6586C587.268 43.3815 578.138 34.2396 566.875 34.2396L108.256 34.2396C96.9937 34.2396 87.8636 43.3815 87.8636 54.6586L87.8636 390.875C87.8636 402.152 96.9937 411.294 108.256 411.294Z" fill="white"/>
<path d="M87.1831 390.875V54.6583C87.1894 49.0642 89.4115 43.7011 93.362 39.7455C97.3124 35.7899 102.669 33.5649 108.255 33.5586H566.874C572.461 33.5649 577.817 35.7899 581.768 39.7455C585.718 43.7011 587.94 49.0642 587.946 54.6583V390.875C587.94 396.469 585.718 401.832 581.768 405.787C577.817 409.743 572.461 411.968 566.874 411.974H108.255C102.669 411.968 97.3124 409.743 93.362 405.787C89.4115 401.832 87.1894 396.469 87.1831 390.875V390.875ZM108.255 34.9199C103.029 34.926 98.0186 37.0075 94.3231 40.7079C90.6276 44.4082 88.5487 49.4252 88.5426 54.6583V390.875C88.5485 396.108 90.6273 401.125 94.3229 404.825C98.0185 408.526 103.029 410.607 108.255 410.613H566.874C572.101 410.607 577.111 408.526 580.807 404.825C584.503 401.125 586.581 396.108 586.587 390.875V54.6583C586.581 49.4251 584.502 44.408 580.807 40.7077C577.111 37.0073 572.101 34.9258 566.874 34.9199H108.255Z" fill="#292A2E"/>
<path d="M87.8638 54.6563V75.2026H587.265V54.6563C587.265 49.2409 585.116 44.0472 581.292 40.2179C577.468 36.3886 572.281 34.2373 566.872 34.2373H108.256C102.848 34.2373 97.6609 36.3886 93.8366 40.2179C90.0123 44.0472 87.8638 49.2409 87.8638 54.6563Z" fill="#292A2E"/>
<path d="M560.283 94.7266H365.693C360.916 94.7266 357.044 98.6036 357.044 103.386V241.22C357.044 246.003 360.916 249.88 365.693 249.88H560.283C565.06 249.88 568.932 246.003 568.932 241.22V103.386C568.932 98.6036 565.06 94.7266 560.283 94.7266Z" fill="white"/>
<path opacity="0.15" d="M560.283 94.7266H365.693C360.916 94.7266 357.044 98.6036 357.044 103.386V241.22C357.044 246.003 360.916 249.88 365.693 249.88H560.283C565.06 249.88 568.932 246.003 568.932 241.22V103.386C568.932 98.6036 565.06 94.7266 560.283 94.7266Z" fill="#FEB062"/>
<path d="M395.077 114.087H378.259C377.478 114.087 376.845 114.721 376.845 115.503V229.103C376.845 229.885 377.478 230.519 378.259 230.519H395.077C395.858 230.519 396.492 229.885 396.492 229.103V115.503C396.492 114.721 395.858 114.087 395.077 114.087Z" fill="#FAFAFA"/>
<path opacity="0.6" d="M376.845 171.16H396.49V229.103C396.49 229.478 396.34 229.838 396.075 230.104C395.81 230.37 395.45 230.519 395.075 230.519H378.259C377.884 230.519 377.524 230.37 377.259 230.104C376.994 229.838 376.845 229.478 376.845 229.103V171.16Z" fill="#FEB062"/>
<path d="M433.237 114.087H416.419C415.638 114.087 415.005 114.721 415.005 115.503V229.103C415.005 229.885 415.638 230.519 416.419 230.519H433.237C434.018 230.519 434.652 229.885 434.652 229.103V115.503C434.652 114.721 434.018 114.087 433.237 114.087Z" fill="#FAFAFA"/>
<path opacity="0.6" d="M415.005 155.023H434.65V229.102C434.65 229.478 434.501 229.838 434.235 230.104C433.97 230.369 433.61 230.519 433.235 230.519H416.419C416.044 230.519 415.684 230.369 415.419 230.104C415.154 229.838 415.005 229.478 415.005 229.102V155.023Z" fill="#FEB062"/>
<path d="M547.717 114.087H530.899C530.118 114.087 529.485 114.721 529.485 115.503V229.103C529.485 229.885 530.118 230.519 530.899 230.519H547.717C548.498 230.519 549.132 229.885 549.132 229.103V115.503C549.132 114.721 548.498 114.087 547.717 114.087Z" fill="#FAFAFA"/>
<path opacity="0.6" d="M529.485 138.742H549.13V229.103C549.13 229.479 548.981 229.839 548.715 230.105C548.45 230.37 548.09 230.52 547.715 230.52H530.9C530.525 230.52 530.165 230.37 529.9 230.105C529.635 229.839 529.486 229.479 529.486 229.103V138.742H529.485Z" fill="#FEB062"/>
<path d="M471.397 114.087H454.58C453.798 114.087 453.165 114.721 453.165 115.503V229.103C453.165 229.885 453.798 230.519 454.58 230.519H471.397C472.179 230.519 472.812 229.885 472.812 229.103V115.503C472.812 114.721 472.179 114.087 471.397 114.087Z" fill="#FAFAFA"/>
<path opacity="0.6" d="M453.165 197.261H472.81V229.103C472.81 229.478 472.661 229.839 472.396 230.104C472.13 230.37 471.77 230.519 471.395 230.519H454.58C454.204 230.519 453.845 230.37 453.579 230.104C453.314 229.839 453.165 229.478 453.165 229.103V197.261Z" fill="#FEB062"/>
<path d="M509.557 114.087H492.74C491.959 114.087 491.325 114.721 491.325 115.503V229.103C491.325 229.885 491.959 230.519 492.74 230.519H509.557C510.339 230.519 510.972 229.885 510.972 229.103V115.503C510.972 114.721 510.339 114.087 509.557 114.087Z" fill="#FAFAFA"/>
<path opacity="0.6" d="M491.323 176.915H510.968V229.102C510.968 229.478 510.819 229.838 510.553 230.104C510.288 230.369 509.928 230.518 509.553 230.518H492.739C492.554 230.518 492.37 230.482 492.198 230.411C492.026 230.339 491.87 230.235 491.739 230.104C491.608 229.972 491.504 229.816 491.432 229.644C491.361 229.472 491.325 229.288 491.325 229.102V176.915H491.323Z" fill="#FEB062"/>
<path opacity="0.15" d="M556.551 265.066H367.083C360.246 265.066 354.703 270.616 354.703 277.463V380.192C354.703 387.038 360.246 392.588 367.083 392.588H556.551C563.389 392.588 568.932 387.038 568.932 380.192V277.463C568.932 270.616 563.389 265.066 556.551 265.066Z" fill="#FEB062"/>
<path d="M482.851 296.92C485.393 296.92 487.453 294.857 487.453 292.312C487.453 289.767 485.393 287.704 482.851 287.704C480.31 287.704 478.25 289.767 478.25 292.312C478.25 294.857 480.31 296.92 482.851 296.92Z" fill="#FEB062"/>
<path d="M482.851 320.409C485.393 320.409 487.453 318.346 487.453 315.801C487.453 313.256 485.393 311.193 482.851 311.193C480.31 311.193 478.25 313.256 478.25 315.801C478.25 318.346 480.31 320.409 482.851 320.409Z" fill="#262626"/>
<path d="M482.851 343.898C485.393 343.898 487.453 341.835 487.453 339.291C487.453 336.746 485.393 334.683 482.851 334.683C480.31 334.683 478.25 336.746 478.25 339.291C478.25 341.835 480.31 343.898 482.851 343.898Z" fill="white"/>
<path opacity="0.5" d="M482.851 367.389C485.393 367.389 487.453 365.326 487.453 362.781C487.453 360.236 485.393 358.173 482.851 358.173C480.31 358.173 478.25 360.236 478.25 362.781C478.25 365.326 480.31 367.389 482.851 367.389Z" fill="#FEB062"/>
<path d="M546.714 292.31C546.714 293.001 546.44 293.664 545.952 294.153C545.464 294.642 544.802 294.917 544.111 294.917H499.877C499.262 294.928 498.661 294.727 498.176 294.348C497.691 293.969 497.35 293.434 497.212 292.834C497.135 292.455 497.142 292.063 497.235 291.687C497.328 291.312 497.503 290.961 497.747 290.662C497.992 290.362 498.3 290.121 498.649 289.955C498.998 289.789 499.38 289.703 499.766 289.703H544.111C544.453 289.703 544.792 289.77 545.107 289.901C545.423 290.032 545.71 290.224 545.952 290.466C546.194 290.709 546.386 290.996 546.517 291.312C546.647 291.629 546.715 291.968 546.714 292.31V292.31Z" fill="white"/>
<path d="M546.715 315.8C546.715 316.492 546.441 317.155 545.952 317.644C545.464 318.133 544.802 318.407 544.111 318.407H499.904C499.543 318.413 499.184 318.346 498.85 318.21C498.515 318.074 498.211 317.872 497.956 317.617C497.7 317.361 497.498 317.057 497.362 316.722C497.226 316.387 497.159 316.029 497.164 315.667C497.199 314.999 497.488 314.371 497.972 313.911C498.457 313.451 499.099 313.194 499.767 313.194H544.111C544.453 313.194 544.792 313.262 545.108 313.393C545.424 313.523 545.711 313.715 545.952 313.957C546.194 314.199 546.386 314.487 546.517 314.803C546.648 315.119 546.715 315.458 546.715 315.8V315.8Z" fill="white"/>
<path d="M546.715 339.291C546.715 339.982 546.44 340.645 545.952 341.134C545.464 341.623 544.802 341.898 544.111 341.898H499.498C498.878 341.898 498.283 341.651 497.845 341.212C497.406 340.773 497.16 340.177 497.16 339.556V339.026C497.16 338.405 497.406 337.809 497.845 337.37C498.283 336.931 498.878 336.685 499.498 336.685H544.111C544.453 336.684 544.792 336.752 545.108 336.883C545.423 337.014 545.71 337.206 545.952 337.448C546.194 337.69 546.386 337.977 546.517 338.293C546.647 338.609 546.715 338.948 546.715 339.291Z" fill="white"/>
<path d="M546.715 362.782C546.715 363.473 546.44 364.136 545.952 364.625C545.464 365.114 544.802 365.388 544.111 365.388H499.887C499.271 365.4 498.669 365.2 498.183 364.821C497.696 364.443 497.353 363.908 497.212 363.308C497.135 362.929 497.142 362.537 497.235 362.161C497.327 361.786 497.502 361.435 497.747 361.136C497.991 360.836 498.299 360.594 498.648 360.429C498.997 360.263 499.379 360.177 499.765 360.177H544.11C544.452 360.176 544.79 360.244 545.106 360.374C545.422 360.505 545.709 360.697 545.951 360.939C546.193 361.181 546.385 361.468 546.516 361.784C546.647 362.1 546.714 362.439 546.715 362.782Z" fill="white"/>
<path d="M396.506 327.546C396.507 333.162 398.247 338.641 401.488 343.226C404.728 347.811 409.308 351.278 414.598 353.148L407.159 371.314C396.927 367.454 388.373 360.121 382.986 350.594C377.599 341.066 375.722 329.949 377.68 319.178C379.639 308.407 385.309 298.665 393.704 291.65C402.098 284.636 412.685 280.792 423.619 280.79V300.402C416.429 300.402 409.533 303.261 404.448 308.352C399.364 313.442 396.507 320.346 396.506 327.546V327.546Z" fill="#FEB062"/>
<path d="M470.318 327.546H450.731C450.731 320.346 447.875 313.441 442.79 308.35C437.706 303.258 430.81 300.398 423.619 300.398V280.786C436.004 280.786 447.882 285.713 456.64 294.482C465.398 303.251 470.318 315.144 470.318 327.546V327.546Z" fill="#262626"/>
<path d="M470.318 327.546C470.317 338.141 466.723 348.422 460.126 356.706C453.529 364.99 444.318 370.785 434.002 373.144L430.685 353.759C436.438 352.202 441.519 348.791 445.143 344.053C448.767 339.315 450.731 333.514 450.732 327.546H470.318Z" fill="white"/>
<path opacity="0.5" d="M434.002 373.144C425.068 375.171 415.736 374.534 407.159 371.312L414.598 353.147C419.776 354.968 425.383 355.181 430.684 353.76L434.002 373.144Z" fill="#FEB062"/>
<path opacity="0.15" d="M327.52 94.7266H118.409C111.651 94.7266 106.173 100.212 106.173 106.978V380.337C106.173 387.103 111.651 392.588 118.409 392.588H327.52C334.277 392.588 339.755 387.103 339.755 380.337V106.978C339.755 100.212 334.277 94.7266 327.52 94.7266Z" fill="#FEB062"/>
<path d="M286.161 210.976C286.161 224.568 282.136 237.854 274.595 249.155C267.054 260.457 256.335 269.265 243.795 274.466C231.254 279.667 217.455 281.028 204.142 278.377C190.828 275.725 178.599 269.181 169.001 259.57C159.403 249.959 152.866 237.714 150.218 224.384C147.57 211.054 148.929 197.236 154.124 184.679C159.318 172.122 168.115 161.389 179.401 153.838C190.687 146.287 203.956 142.257 217.53 142.257V210.976H286.161Z" fill="#FAFAFA"/>
<path opacity="0.6" d="M294.576 202.05H225.949V133.33C244.15 133.331 261.606 140.571 274.476 153.459C287.346 166.346 294.576 183.825 294.576 202.05V202.05Z" fill="#FEB062"/>
<path opacity="0.6" d="M146.365 318.68C148.907 318.68 150.967 316.617 150.967 314.072C150.967 311.527 148.907 309.464 146.365 309.464C143.824 309.464 141.763 311.527 141.763 314.072C141.763 316.617 143.824 318.68 146.365 318.68Z" fill="#FEB062"/>
<path d="M146.365 342.17C148.907 342.17 150.967 340.107 150.967 337.562C150.967 335.017 148.907 332.954 146.365 332.954C143.824 332.954 141.763 335.017 141.763 337.562C141.763 340.107 143.824 342.17 146.365 342.17Z" fill="#FAFAFA"/>
<path opacity="0.6" d="M304.033 314.074C304.033 314.766 303.759 315.429 303.27 315.918C302.782 316.406 302.12 316.681 301.43 316.681H163.391C162.775 316.692 162.174 316.492 161.689 316.112C161.204 315.733 160.863 315.198 160.725 314.598C160.648 314.218 160.656 313.827 160.748 313.451C160.841 313.075 161.016 312.725 161.261 312.425C161.505 312.126 161.813 311.884 162.162 311.718C162.512 311.553 162.893 311.467 163.28 311.467H301.43C301.771 311.467 302.11 311.534 302.426 311.665C302.742 311.796 303.029 311.988 303.271 312.231C303.512 312.473 303.704 312.76 303.835 313.077C303.966 313.393 304.033 313.732 304.033 314.074V314.074Z" fill="#FEB062"/>
<path d="M304.033 337.561C304.033 338.252 303.759 338.915 303.27 339.404C302.782 339.893 302.12 340.168 301.43 340.168H163.417C163.056 340.173 162.698 340.106 162.363 339.97C162.028 339.835 161.724 339.633 161.469 339.377C161.213 339.122 161.011 338.818 160.875 338.483C160.739 338.148 160.672 337.789 160.677 337.428C160.712 336.76 161.001 336.131 161.485 335.671C161.97 335.211 162.612 334.954 163.28 334.954H301.43C301.771 334.954 302.11 335.022 302.426 335.153C302.742 335.284 303.029 335.476 303.27 335.718C303.512 335.96 303.704 336.247 303.835 336.563C303.966 336.88 304.033 337.219 304.033 337.561V337.561Z" fill="white"/>
<path d="M86.2296 583.986C86.1562 583.986 86.0835 583.972 86.0157 583.943C85.9479 583.915 85.8864 583.874 85.8346 583.822C85.0468 583.034 83.7641 568.571 80.3076 525.509C78.893 507.889 77.5566 491.246 76.5819 481.132C76.5139 480.41 76.2325 480.325 76.1407 480.298C74.8064 479.895 70.7476 483.1 68.482 485.906C68.4358 485.963 68.3789 486.01 68.3144 486.046C68.2499 486.081 68.1791 486.103 68.1061 486.111C68.0331 486.118 67.9593 486.112 67.8889 486.091C67.8185 486.07 67.7529 486.035 67.6958 485.989C67.6388 485.943 67.5913 485.886 67.5562 485.821C67.5212 485.757 67.4991 485.686 67.4914 485.613C67.4837 485.54 67.4904 485.466 67.5112 485.395C67.532 485.325 67.5664 485.259 67.6126 485.202C69.108 483.347 73.9947 478.483 76.4622 479.226C76.8333 479.354 77.1534 479.597 77.3754 479.921C77.5974 480.245 77.7093 480.632 77.6946 481.024C78.6701 491.147 80.0058 507.795 81.4217 525.419C83.5221 551.587 85.9012 581.231 86.6836 583.1C86.7431 583.183 86.7784 583.282 86.7857 583.384C86.7931 583.487 86.7722 583.589 86.7253 583.68C86.6785 583.772 86.6074 583.848 86.52 583.902C86.4326 583.956 86.3321 583.984 86.2296 583.985V583.986Z" fill="#494949"/>
<path d="M75.1479 499.692C84.4201 492.25 87.4933 480.666 82.0121 473.819C76.5309 466.972 64.5708 467.455 55.2986 474.897C46.0264 482.339 42.9532 493.923 48.4344 500.77C53.9156 507.616 65.8757 507.134 75.1479 499.692Z" fill="#0CBC8B"/>
<path opacity="0.2" d="M75.1479 499.692C84.4201 492.25 87.4933 480.666 82.0121 473.819C76.5309 466.972 64.5708 467.455 55.2986 474.897C46.0264 482.339 42.9532 493.923 48.4344 500.77C53.9156 507.616 65.8757 507.134 75.1479 499.692Z" fill="white"/>
<path d="M51.0323 502.51C50.9794 502.51 50.9275 502.495 50.8828 502.467C50.8381 502.438 50.8024 502.398 50.7799 502.35C50.7574 502.301 50.749 502.248 50.7556 502.195C50.7623 502.143 50.7838 502.093 50.8175 502.052L77.2428 470.144C77.2901 470.087 77.3582 470.051 77.432 470.044C77.5058 470.037 77.5793 470.06 77.6364 470.107C77.6934 470.155 77.7294 470.223 77.7362 470.297C77.7431 470.371 77.7204 470.444 77.6731 470.501L51.2478 502.41C51.2216 502.441 51.1886 502.467 51.1514 502.484C51.1141 502.502 51.0735 502.511 51.0323 502.51V502.51Z" fill="white"/>
<path d="M91.9933 577.145C91.9042 577.145 91.8165 577.123 91.7374 577.082C91.6583 577.041 91.5901 576.982 91.5385 576.909C91.4869 576.837 91.4534 576.753 91.4407 576.664C91.4281 576.576 91.4367 576.486 91.4658 576.402L101.39 547.819C101.682 546.979 102.18 546.225 102.838 545.628C103.496 545.03 104.294 544.608 105.157 544.399C106.021 544.191 106.923 544.202 107.781 544.433C108.638 544.664 109.425 545.107 110.067 545.722L115.315 550.741C115.419 550.845 115.478 550.985 115.48 551.131C115.482 551.278 115.426 551.419 115.325 551.525C115.224 551.631 115.085 551.693 114.939 551.698C114.793 551.702 114.65 551.649 114.543 551.55L109.295 546.531C108.788 546.046 108.167 545.696 107.49 545.513C106.813 545.331 106.101 545.322 105.419 545.486C104.737 545.651 104.107 545.985 103.588 546.456C103.068 546.928 102.675 547.523 102.445 548.186L92.5208 576.773C92.4821 576.882 92.4106 576.976 92.3161 577.043C92.2217 577.11 92.1089 577.145 91.9933 577.145V577.145Z" fill="#494949"/>
<path d="M129.976 566.566C136.847 561.12 136.439 549.141 129.064 539.811C121.688 530.482 110.139 527.333 103.267 532.779C96.3957 538.226 96.8041 550.204 104.179 559.534C111.555 568.864 123.104 572.012 129.976 566.566Z" fill="#0CBC8B"/>
<path d="M81.7204 582.163C81.5948 582.163 81.4728 582.12 81.3742 582.042C81.2755 581.964 81.2059 581.855 81.1766 581.733L64.5227 511.994C64.4092 511.518 64.1668 511.083 63.8224 510.737C63.4779 510.39 63.0446 510.146 62.5702 510.03C62.0958 509.914 61.5987 509.931 61.1336 510.08C60.6684 510.229 60.2533 510.503 59.9338 510.873L54.7989 516.814C54.7517 516.872 54.6933 516.92 54.6272 516.955C54.5612 516.99 54.4889 517.011 54.4145 517.017C54.3401 517.024 54.2651 517.015 54.1941 516.992C54.123 516.969 54.0573 516.932 54.0009 516.883C53.9444 516.834 53.8983 516.775 53.8652 516.708C53.8322 516.64 53.8129 516.567 53.8086 516.493C53.8042 516.418 53.8148 516.343 53.8398 516.273C53.8648 516.202 53.9036 516.138 53.954 516.083L59.0888 510.141C59.543 509.615 60.133 509.226 60.7939 509.015C61.4548 508.804 62.1611 508.779 62.8351 508.944C63.5091 509.108 64.1247 509.456 64.6142 509.948C65.1037 510.44 65.4481 511.058 65.6097 511.734L82.2635 581.473C82.2806 581.545 82.2835 581.619 82.272 581.691C82.2605 581.764 82.2348 581.833 82.1964 581.896C82.158 581.958 82.1077 582.013 82.0483 582.056C81.9889 582.099 81.9216 582.13 81.8502 582.147C81.8078 582.157 81.7642 582.163 81.7204 582.163V582.163Z" fill="#494949"/>
<path d="M75.5742 532.31C77.5991 520.585 72.2401 509.868 63.6046 508.373C54.9691 506.878 46.3271 515.17 44.3022 526.895C42.2773 538.62 47.6362 549.337 56.2717 550.832C64.9073 552.328 73.5493 544.035 75.5742 532.31Z" fill="#0CBC8B"/>
<path d="M86.2301 583.985C86.2074 583.985 86.1847 583.984 86.1622 583.981C86.0151 583.963 85.8813 583.887 85.7901 583.77C85.6988 583.654 85.6576 583.505 85.6755 583.358L96.3122 496.883C96.428 495.941 96.8131 495.052 97.4212 494.324C98.0292 493.596 98.8344 493.059 99.7398 492.778C100.645 492.497 101.612 492.484 102.525 492.741C103.438 492.997 104.257 493.512 104.885 494.223L117.043 508.011C117.091 508.066 117.128 508.13 117.152 508.2C117.176 508.269 117.186 508.343 117.182 508.416C117.177 508.489 117.158 508.561 117.126 508.627C117.094 508.693 117.049 508.752 116.994 508.801C116.939 508.85 116.875 508.887 116.805 508.911C116.736 508.935 116.663 508.945 116.589 508.94C116.516 508.936 116.445 508.917 116.379 508.885C116.313 508.852 116.254 508.807 116.205 508.752L104.047 494.965C103.562 494.415 102.929 494.017 102.224 493.819C101.518 493.62 100.771 493.63 100.071 493.847C99.3714 494.064 98.7491 494.479 98.2791 495.042C97.809 495.604 97.5113 496.291 97.4215 497.019L86.7841 583.494C86.7676 583.63 86.7021 583.754 86.6 583.845C86.498 583.935 86.3665 583.985 86.2301 583.985V583.985Z" fill="#494949"/>
<path d="M129.511 515.673C133.753 507.994 128.762 497.101 118.363 491.341C107.965 485.582 96.0964 487.138 91.8545 494.816C87.6126 502.495 92.6035 513.389 103.002 519.148C113.401 524.907 125.269 523.352 129.511 515.673Z" fill="#0CBC8B"/>
<path opacity="0.2" d="M129.976 566.566C136.847 561.12 136.439 549.141 129.064 539.811C121.688 530.482 110.139 527.333 103.267 532.779C96.3957 538.226 96.8041 550.204 104.179 559.534C111.555 568.864 123.104 572.012 129.976 566.566Z" fill="white"/>
<path opacity="0.5" d="M75.5742 532.31C77.5991 520.585 72.2401 509.868 63.6046 508.373C54.9691 506.878 46.3271 515.17 44.3022 526.895C42.2773 538.62 47.6362 549.337 56.2717 550.832C64.9073 552.328 73.5493 544.035 75.5742 532.31Z" fill="white"/>
<path opacity="0.5" d="M129.511 515.673C133.753 507.994 128.762 497.101 118.363 491.341C107.965 485.582 96.0964 487.138 91.8545 494.816C87.6126 502.495 92.6035 513.389 103.002 519.148C113.401 524.907 125.269 523.352 129.511 515.673Z" fill="white"/>
<path d="M99.8349 657.359H72.6245L68.1157 570.187H104.344L99.8349 657.359Z" fill="#292A2E"/>
<path opacity="0.3" d="M99.8349 657.359H72.6245L68.1157 570.187H104.344L99.8349 657.359Z" fill="white"/>
<path d="M129.979 566.843C129.936 566.843 129.895 566.834 129.857 566.815C129.818 566.797 129.785 566.77 129.759 566.737L103.05 532.951C103.027 532.922 103.011 532.889 103 532.854C102.99 532.818 102.987 532.781 102.992 532.745C102.996 532.708 103.007 532.673 103.025 532.641C103.043 532.609 103.067 532.581 103.095 532.558C103.124 532.535 103.157 532.518 103.192 532.508C103.228 532.498 103.265 532.495 103.301 532.499C103.338 532.503 103.373 532.514 103.405 532.532C103.437 532.55 103.465 532.574 103.488 532.603L130.197 566.39C130.243 566.448 130.264 566.522 130.256 566.596C130.247 566.669 130.209 566.736 130.151 566.782C130.102 566.822 130.041 566.843 129.979 566.843V566.843Z" fill="white"/>
<path d="M127.735 518.38C127.676 518.38 127.618 518.361 127.571 518.326L93.3927 493.337C93.3619 493.316 93.3357 493.289 93.3155 493.258C93.2954 493.226 93.2818 493.191 93.2755 493.154C93.2692 493.117 93.2703 493.079 93.2789 493.043C93.2874 493.007 93.3031 492.972 93.3251 492.942C93.3471 492.912 93.3749 492.886 93.4069 492.867C93.4389 492.848 93.4745 492.835 93.5115 492.83C93.5484 492.825 93.5861 492.827 93.6222 492.836C93.6583 492.846 93.6921 492.863 93.7217 492.886L127.9 517.874C127.948 517.909 127.983 517.958 128.001 518.014C128.019 518.071 128.019 518.131 128.001 518.187C127.983 518.243 127.947 518.292 127.899 518.327C127.852 518.362 127.794 518.38 127.735 518.38V518.38Z" fill="white"/>
<path d="M54.8859 550.467C54.8614 550.467 54.8369 550.464 54.8132 550.457C54.7421 550.438 54.6814 550.391 54.6444 550.328C54.6073 550.264 54.5969 550.188 54.6154 550.117L65.4955 509.299C65.5152 509.228 65.5618 509.168 65.6252 509.131C65.6887 509.094 65.7641 509.083 65.8353 509.101C65.9065 509.12 65.9673 509.167 66.0044 509.23C66.0415 509.294 66.0518 509.37 66.0331 509.441L55.1551 550.259C55.1394 550.319 55.1044 550.371 55.0558 550.409C55.0071 550.446 54.9474 550.467 54.8859 550.467V550.467Z" fill="white"/>
<path d="M610.054 657.359H52.3743C52.2481 657.359 52.127 657.309 52.0378 657.22C51.9486 657.13 51.8984 657.009 51.8984 656.883C51.8984 656.756 51.9486 656.635 52.0378 656.546C52.127 656.456 52.2481 656.406 52.3743 656.406H610.054C610.18 656.406 610.301 656.456 610.39 656.546C610.479 656.635 610.53 656.756 610.53 656.883C610.53 657.009 610.479 657.13 610.39 657.22C610.301 657.309 610.18 657.359 610.054 657.359Z" fill="#292A2E"/>
<path d="M194.255 626.816C194.255 626.816 197.324 642.747 212.218 643.637C227.111 644.527 223.883 656.406 223.883 656.406H166.963V627.928L194.255 626.816Z" fill="#FEB062"/>
<path d="M163.103 336.233C163.103 336.233 167.36 331.445 167.322 342.307C167.182 382.825 164.451 636.983 164.451 636.983L201.855 636.669L224.513 334.587L163.103 336.233Z" fill="#262626"/>
<path d="M258.125 626.816C258.125 626.816 261.195 642.747 276.09 643.634C290.985 644.522 287.755 656.404 287.755 656.404H230.833V627.928L258.125 626.816Z" fill="#FEB062"/>
<path d="M265.36 339.38C265.36 339.38 270.032 477.859 269.547 484.627L265.153 635.932L228.367 636.613L222.435 479.152C222.435 479.152 218.547 435.718 208.066 395.385C202.704 374.684 199.477 353.488 198.436 332.128V332.128L265.36 339.38Z" fill="#262626"/>
<path d="M216.831 437.562L219.898 390.592C219.898 390.592 223.049 410.119 223.049 426.949C223.049 435.176 221.357 467.748 221.357 467.748L216.831 437.562Z" fill="#0A0A0A"/>
<path d="M162.697 336.229L162.574 336.236C162.574 336.236 162.664 333.874 162.697 336.229Z" fill="#333333"/>
<path d="M162.85 336.229L162.728 336.236C162.728 336.236 162.816 333.874 162.85 336.229Z" fill="#333333"/>
<path d="M367.812 223.83C367.587 223.384 367.229 223.018 366.787 222.784C366.345 222.55 365.842 222.458 365.346 222.523C365.351 222.479 365.341 222.435 365.319 222.396C365.296 222.367 365.265 222.344 365.231 222.329C365.196 222.315 365.158 222.31 365.121 222.315L366.793 221.115C367.294 220.772 367.654 220.259 367.806 219.671C367.959 219.083 367.893 218.459 367.621 217.916C367.336 217.388 366.866 216.984 366.3 216.784C365.735 216.584 365.116 216.601 364.563 216.833C364.567 216.809 364.551 216.787 364.548 216.765L365.235 216.272C365.705 215.947 366.048 215.469 366.207 214.919C366.366 214.37 366.33 213.782 366.106 213.255C365.959 212.928 365.741 212.638 365.468 212.406C365.195 212.174 364.874 212.005 364.528 211.912C364.182 211.818 363.819 211.803 363.467 211.867C363.114 211.931 362.78 212.073 362.489 212.281L360.903 213.42C360.898 213.411 360.903 213.4 360.897 213.391C360.891 213.382 360.873 213.379 360.864 213.369C361.228 212.959 361.442 212.437 361.471 211.889C361.5 211.341 361.342 210.799 361.023 210.353C360.275 209.146 358.547 209.394 357.521 210.129L348.187 216.585L349.855 213.773C350.19 213.231 350.308 212.583 350.185 211.958C350.062 211.333 349.706 210.777 349.191 210.404C348.917 210.221 348.61 210.096 348.287 210.036C347.964 209.976 347.632 209.982 347.311 210.055C346.99 210.128 346.688 210.265 346.422 210.459C346.156 210.652 345.933 210.898 345.765 211.181L336.656 226.537C335.587 228.339 335.262 230.487 335.75 232.525C336.237 234.562 337.499 236.33 339.267 237.451V237.451C341.318 238.751 343.709 239.408 346.135 239.338C348.562 239.269 350.912 238.475 352.884 237.059L366.98 226.942C367.449 226.593 367.786 226.096 367.937 225.531C368.088 224.966 368.044 224.367 367.812 223.83V223.83Z" fill="#E98862"/>
<g opacity="0.25">
<path d="M351.666 219.8C351.7 219.847 351.751 219.879 351.808 219.889C351.866 219.899 351.925 219.885 351.973 219.852L360.842 213.701C360.866 213.685 360.887 213.663 360.903 213.639C360.919 213.614 360.929 213.586 360.935 213.557C360.94 213.529 360.939 213.499 360.933 213.47C360.927 213.442 360.915 213.414 360.899 213.39C360.882 213.366 360.861 213.345 360.836 213.33C360.811 213.314 360.784 213.303 360.755 213.298C360.726 213.292 360.696 213.293 360.668 213.299C360.639 213.305 360.612 213.317 360.588 213.334L351.719 219.485C351.67 219.518 351.637 219.57 351.626 219.628C351.616 219.687 351.629 219.747 351.662 219.796L351.666 219.8Z" fill="#0C0C0C"/>
</g>
<g opacity="0.25">
<path d="M354.267 223.792C354.301 223.839 354.353 223.871 354.41 223.881C354.468 223.891 354.527 223.877 354.574 223.844L364.473 216.98C364.521 216.946 364.554 216.894 364.565 216.836C364.575 216.777 364.562 216.717 364.529 216.669C364.494 216.621 364.442 216.589 364.384 216.579C364.327 216.568 364.267 216.58 364.218 216.612L354.32 223.476C354.272 223.51 354.238 223.562 354.228 223.62C354.217 223.679 354.23 223.739 354.264 223.788L354.267 223.792Z" fill="#0C0C0C"/>
</g>
<g opacity="0.25">
<path d="M357.06 228.13C357.094 228.178 357.145 228.21 357.203 228.219C357.26 228.229 357.319 228.216 357.367 228.183L365.263 222.707C365.311 222.673 365.345 222.622 365.355 222.563C365.366 222.505 365.353 222.445 365.319 222.396C365.286 222.347 365.234 222.314 365.176 222.303C365.117 222.293 365.057 222.306 365.009 222.34L357.113 227.815C357.064 227.849 357.031 227.901 357.02 227.959C357.01 228.017 357.023 228.078 357.056 228.126L357.06 228.13Z" fill="#0C0C0C"/>
</g>
<path d="M331.281 223.04L304.528 268.664L271.883 225.79L244.771 250.263L291.069 310.303L291.372 310.73C293.225 313.272 295.694 315.299 298.546 316.621C301.398 317.943 304.539 318.516 307.674 318.286C310.808 318.056 313.832 317.031 316.462 315.308C319.091 313.584 321.239 311.218 322.703 308.434L360.747 239.449L331.281 223.04Z" fill="#FEB062"/>
<path d="M301.904 274.15C301.845 274.15 301.788 274.135 301.737 274.107C301.686 274.078 301.644 274.037 301.613 273.988C301.583 273.938 301.565 273.881 301.563 273.823C301.561 273.764 301.574 273.707 301.6 273.655L304.224 268.508C304.265 268.428 304.336 268.367 304.422 268.34C304.508 268.312 304.601 268.32 304.681 268.361C304.761 268.402 304.822 268.473 304.85 268.559C304.877 268.645 304.87 268.738 304.829 268.819L302.206 273.964C302.178 274.02 302.134 274.067 302.081 274.1C302.028 274.133 301.966 274.15 301.904 274.15Z" fill="#0C0C0C"/>
<path d="M269.998 268.403L269.181 282.813L269.86 282.852L270.677 268.442L269.998 268.403Z" fill="#0C0C0C"/>
<path d="M183.79 164.114C183.79 164.114 182.537 180.154 178.863 185.936C168.285 202.582 165.059 221.409 175.343 231.383C185.627 241.357 251.948 242.267 257.235 219.656C261.685 200.623 252.631 198.467 250.604 182.698C249.687 175.563 247.111 160.597 247.111 160.597" fill="#0A0A0A"/>
<path d="M240.351 216.042C240.237 216.027 238.966 237.136 214.476 235.296C197.521 234.024 191.476 216.012 191.087 216.012C192.915 215.624 195.994 215.059 196.805 214.624C199.475 213.188 202.778 211.693 203.639 206.502C204.135 203.507 203.294 188.202 203.553 185.175L229.578 190.991C229.214 197.385 226.669 212.207 235.589 214.831C237.074 215.264 238.673 215.663 240.351 216.042Z" fill="#E98862"/>
<path opacity="0.52" d="M229.943 208.773C229.535 207.458 229.272 206.102 229.16 204.729C228.873 201.596 228.93 198.442 229.33 195.322C224.04 194.607 219.057 192.421 214.946 189.012C214.463 190.799 211.805 198.609 212.541 200.305C213.932 203.516 220.468 208.773 229.943 208.773Z" fill="#0C0C0C"/>
<path d="M226.493 202.13C216.221 203.005 202.994 198.742 200.402 185.029L198.063 172.656C195.471 158.943 200.563 146.464 213.458 144.02C226.352 141.577 238.092 150.867 240.684 164.579L241.719 170.057C242.714 175.318 244.82 200.569 226.493 202.13Z" fill="#E98862"/>
<path d="M238.044 170.654C238.937 170.654 239.661 169.929 239.661 169.036C239.661 168.142 238.937 167.417 238.044 167.417C237.151 167.417 236.428 168.142 236.428 169.036C236.428 169.929 237.151 170.654 238.044 170.654Z" fill="#0C0C0C"/>
<path d="M221.485 172.869C222.377 172.869 223.101 172.144 223.101 171.25C223.101 170.356 222.377 169.632 221.485 169.632C220.592 169.632 219.868 170.356 219.868 171.25C219.868 172.144 220.592 172.869 221.485 172.869Z" fill="#0C0C0C"/>
<path opacity="0.52" d="M230.571 183.12L230.596 183.116C231.118 183.013 231.635 182.881 232.143 182.722C232.9 182.477 233.894 182.074 233.764 181.387C233.617 180.606 229.886 172.581 229.461 171.669C229.443 171.629 229.417 171.593 229.385 171.563C229.353 171.533 229.315 171.51 229.274 171.495C229.233 171.48 229.19 171.473 229.146 171.475C229.102 171.477 229.06 171.487 229.02 171.506C228.98 171.524 228.945 171.55 228.915 171.582C228.886 171.615 228.863 171.653 228.848 171.694C228.833 171.735 228.827 171.779 228.829 171.822C228.831 171.866 228.842 171.909 228.861 171.948C230.452 175.367 233.014 180.985 233.113 181.511C233.028 181.755 231.769 182.218 230.473 182.464C230.388 182.478 230.312 182.526 230.262 182.596C230.211 182.666 230.19 182.754 230.203 182.839C230.215 182.925 230.261 183.002 230.33 183.054C230.399 183.106 230.485 183.13 230.571 183.119V183.12Z" fill="#0C0C0C"/>
<path opacity="0.52" d="M228.663 189.036C230.766 188.763 232.776 187.999 234.53 186.805C234.603 186.756 234.655 186.681 234.673 186.595C234.691 186.509 234.674 186.419 234.626 186.346C234.578 186.272 234.503 186.221 234.417 186.202C234.331 186.184 234.242 186.201 234.168 186.249C230.372 188.725 226.6 189.126 223.261 187.406C223.193 187.369 223.124 187.336 223.053 187.307C222.97 187.277 222.879 187.281 222.799 187.319C222.72 187.356 222.658 187.423 222.629 187.506C222.599 187.589 222.603 187.68 222.64 187.76C222.678 187.84 222.745 187.901 222.828 187.931C222.854 187.942 222.896 187.965 222.958 187.999C224.714 188.906 226.7 189.267 228.663 189.036V189.036Z" fill="#0C0C0C"/>
<path d="M187.747 176.967L199.307 174.846C208.06 171.298 210.708 156.124 210.708 156.124C210.708 156.124 221.341 166.502 247.11 160.6C247.11 160.6 241.944 124.616 203.874 135.076C191.598 138.45 182.788 150.836 183.886 167.39C184.656 178.994 187.747 176.967 187.747 176.967Z" fill="#0A0A0A"/>
<path d="M201.993 189.055C198.075 189.797 194.104 186.201 193.36 182.278C192.616 178.354 195.386 175.588 199.305 174.846L201.82 177.092L205.359 188.416L201.993 189.055Z" fill="#E98862"/>
<path d="M231.823 165.107C232.966 164.368 234.287 163.95 235.646 163.898C236.316 163.868 236.986 163.939 237.634 164.109C238.276 164.274 238.895 164.519 239.475 164.839C239.557 164.879 239.62 164.95 239.65 165.037C239.679 165.123 239.674 165.218 239.634 165.3C239.595 165.383 239.524 165.446 239.438 165.476C239.352 165.507 239.257 165.502 239.175 165.463L239.15 165.452C238.614 165.187 238.046 164.992 237.46 164.87C236.881 164.745 236.287 164.71 235.698 164.763C234.529 164.861 233.406 165.267 232.445 165.94L232.413 165.963C232.358 166.004 232.296 166.033 232.229 166.049C232.163 166.065 232.094 166.067 232.026 166.057C231.959 166.046 231.894 166.022 231.836 165.986C231.778 165.951 231.727 165.904 231.687 165.848C231.647 165.793 231.618 165.73 231.602 165.664C231.586 165.597 231.583 165.528 231.594 165.461C231.604 165.393 231.628 165.328 231.664 165.27C231.7 165.212 231.746 165.161 231.802 165.121L231.823 165.107Z" fill="#0C0C0C"/>
<path d="M221.514 167.538C220.375 167.258 219.182 167.285 218.057 167.617C217.487 167.78 216.946 168.028 216.451 168.353C215.949 168.68 215.49 169.069 215.085 169.51L215.067 169.528C215.004 169.592 214.918 169.629 214.828 169.63C214.739 169.632 214.652 169.598 214.586 169.537C214.52 169.476 214.481 169.391 214.477 169.302C214.472 169.212 214.502 169.124 214.561 169.056C214.987 168.547 215.476 168.095 216.015 167.709C216.558 167.316 217.157 167.008 217.792 166.794C219.079 166.351 220.461 166.262 221.794 166.538C221.929 166.567 222.047 166.648 222.122 166.765C222.197 166.881 222.223 167.022 222.194 167.158C222.165 167.293 222.084 167.411 221.968 167.487C221.851 167.562 221.71 167.588 221.575 167.559L221.554 167.553L221.514 167.538Z" fill="#0C0C0C"/>
<path opacity="0.52" d="M229.11 192.151C229.491 192.107 229.868 192.031 230.236 191.924C230.32 191.9 230.392 191.843 230.434 191.766C230.477 191.689 230.487 191.598 230.463 191.513C230.439 191.429 230.382 191.357 230.305 191.315C230.228 191.272 230.137 191.262 230.053 191.286C227.836 191.925 226.576 191.082 226.524 191.042C226.452 190.992 226.362 190.972 226.276 190.987C226.189 191.003 226.112 191.052 226.061 191.124C226.011 191.196 225.991 191.286 226.007 191.372C226.022 191.459 226.071 191.536 226.143 191.587C227.037 192.113 228.086 192.312 229.11 192.151V192.151Z" fill="#0C0C0C"/>
<path d="M199.333 174.699L199.218 174.378C213.863 169.114 210.281 154.724 210.244 154.579L210.572 154.492C210.611 154.64 214.274 169.328 199.333 174.699Z" fill="#0C0C0C"/>
<path opacity="0.1" d="M220.126 184.073C221.817 183.89 223.079 182.736 222.945 181.495C222.812 180.253 221.333 179.394 219.643 179.576C217.952 179.759 216.69 180.913 216.824 182.154C216.957 183.396 218.436 184.255 220.126 184.073Z" fill="#0C0C0C"/>
<path opacity="0.1" d="M238.077 179.377C238.213 180.617 239.692 181.474 241.384 181.295C241.676 181.263 241.964 181.201 242.244 181.11C242.339 179.634 242.36 178.214 242.332 176.899C241.864 176.776 241.378 176.742 240.898 176.798C239.207 176.977 237.945 178.131 238.077 179.377Z" fill="#0C0C0C"/>
<path d="M270.779 262.514C270.007 271.588 266.255 328.202 265.513 339.38H167.377C166.799 329.299 160.128 285.217 157.938 265.504C155.848 246.693 151.747 237.275 154.753 231.713C159.665 222.624 173.087 217.372 182.239 216.131C187.828 215.374 196.233 214.831 196.233 214.831C196.233 214.831 196.945 229.247 213.916 230.049C237.017 231.138 235.474 214.831 235.589 214.831C239.331 214.831 260.711 217.203 265.942 220.307C280.192 228.759 272.416 243.288 270.779 262.514Z" fill="#FEB062"/>
<path d="M334.479 268.854L325.019 314.891C324.828 315.826 324.323 316.667 323.587 317.274C322.852 317.881 321.93 318.217 320.977 318.226L255.84 318.781C255.218 318.787 254.604 318.653 254.041 318.389C253.478 318.126 252.981 317.74 252.586 317.259C252.191 316.778 251.909 316.216 251.76 315.612C251.61 315.008 251.598 314.378 251.723 313.768L261.183 267.73C261.375 266.796 261.881 265.955 262.618 265.349C263.354 264.743 264.275 264.408 265.228 264.399L330.366 263.844C330.987 263.839 331.601 263.974 332.163 264.237C332.726 264.5 333.222 264.886 333.616 265.367C334.01 265.847 334.293 266.409 334.442 267.013C334.591 267.616 334.604 268.245 334.479 268.854Z" fill="#292A2E"/>
<path d="M273.74 301.555C273.774 302.161 273.589 302.759 273.218 303.24C272.847 303.72 272.316 304.05 271.721 304.168L269.716 304.611C269.752 304.623 269.784 304.643 269.81 304.671C269.836 304.698 269.855 304.731 269.865 304.767C269.87 304.81 269.861 304.853 269.838 304.89C270.32 305.026 270.748 305.308 271.062 305.699C271.377 306.089 271.562 306.568 271.592 307.068C271.595 307.651 271.401 308.219 271.042 308.678C270.683 309.137 270.18 309.462 269.614 309.6L252.681 313.364C251.816 313.559 250.931 313.657 250.044 313.657C248.067 313.656 246.121 313.175 244.372 312.253C242.623 311.332 241.124 309.999 240.004 308.368C238.816 306.643 238.348 304.522 238.698 302.456C239.049 300.391 240.19 298.544 241.88 297.308L256.284 286.765C256.601 286.532 256.969 286.381 257.358 286.322L256.032 292.768L256.386 292.686L256.461 292.673L267.507 290.42C268.737 290.147 270.423 290.597 270.64 291.999C270.757 292.536 270.689 293.096 270.447 293.589C270.205 294.082 269.803 294.479 269.308 294.714C269.315 294.721 269.328 294.728 269.328 294.742C269.328 294.755 269.321 294.762 269.321 294.776L271.232 294.354C271.581 294.276 271.943 294.277 272.292 294.357C272.641 294.436 272.968 294.592 273.25 294.814C273.532 295.035 273.761 295.316 273.92 295.637C274.08 295.957 274.167 296.31 274.175 296.668C274.175 297.24 273.977 297.795 273.615 298.237C273.254 298.68 272.75 298.984 272.19 299.098L271.368 299.282C271.361 299.309 271.368 299.336 271.354 299.356C271.953 299.361 272.529 299.588 272.97 299.995C273.411 300.401 273.686 300.957 273.74 301.555V301.555Z" fill="#E98862"/>
<g opacity="0.25">
<path d="M258.326 297.01C258.339 297.067 258.373 297.117 258.423 297.148C258.472 297.18 258.531 297.191 258.588 297.179L269.157 295.009C269.186 295.003 269.213 294.991 269.237 294.975C269.261 294.958 269.282 294.937 269.298 294.913C269.314 294.888 269.326 294.861 269.331 294.832C269.337 294.803 269.336 294.774 269.331 294.745C269.325 294.716 269.313 294.689 269.297 294.665C269.28 294.64 269.259 294.619 269.235 294.603C269.21 294.587 269.183 294.576 269.154 294.57C269.125 294.565 269.096 294.565 269.067 294.571L258.498 296.741C258.44 296.753 258.389 296.787 258.357 296.837C258.324 296.886 258.312 296.947 258.324 297.005L258.326 297.01Z" fill="#0C0C0C"/>
</g>
<g opacity="0.25">
<path d="M259.153 301.704C259.166 301.761 259.201 301.81 259.25 301.842C259.299 301.873 259.359 301.885 259.416 301.873L271.211 299.451C271.269 299.439 271.319 299.405 271.352 299.355C271.385 299.306 271.396 299.245 271.385 299.187C271.371 299.13 271.336 299.08 271.287 299.048C271.238 299.016 271.179 299.003 271.121 299.013L259.325 301.435C259.296 301.441 259.269 301.453 259.244 301.469C259.22 301.485 259.199 301.506 259.183 301.531C259.167 301.555 259.156 301.583 259.15 301.612C259.145 301.64 259.145 301.67 259.15 301.699L259.153 301.704Z" fill="#0C0C0C"/>
</g>
<g opacity="0.25">
<path d="M260.02 306.791C260.033 306.847 260.068 306.897 260.117 306.928C260.166 306.96 260.225 306.971 260.282 306.959L269.69 305.027C269.719 305.021 269.746 305.01 269.771 304.993C269.795 304.977 269.816 304.956 269.832 304.931C269.848 304.907 269.859 304.879 269.865 304.851C269.87 304.822 269.87 304.792 269.864 304.763C269.858 304.735 269.847 304.707 269.83 304.683C269.814 304.659 269.793 304.638 269.768 304.622C269.744 304.606 269.716 304.595 269.688 304.589C269.659 304.583 269.629 304.584 269.601 304.59L260.192 306.521C260.134 306.533 260.083 306.568 260.051 306.617C260.018 306.667 260.006 306.727 260.018 306.785L260.02 306.791Z" fill="#0C0C0C"/>
</g>
<path d="M251.633 320.072L159.768 336.695C156.902 337.007 154.002 336.65 151.297 335.651C148.592 334.653 146.154 333.04 144.176 330.94C142.198 328.84 140.732 326.309 139.895 323.547C139.057 320.784 138.87 317.865 139.348 315.018L152.205 238.476C152.61 236.054 153.488 233.736 154.788 231.655C156.088 229.573 157.785 227.768 159.782 226.343C161.778 224.919 164.036 223.902 166.426 223.351C168.815 222.8 171.29 222.727 173.708 223.134C176.126 223.541 178.44 224.422 180.518 225.725C182.596 227.028 184.397 228.729 185.819 230.729C187.24 232.73 188.254 234.992 188.802 237.385C189.35 239.778 189.422 242.255 189.013 244.676L180.244 297.368L247.594 288.899L251.633 320.072Z" fill="#FEB062"/>
<path d="M159.767 337.036C159.683 337.036 159.601 337.004 159.538 336.946C159.476 336.889 159.437 336.81 159.43 336.726C159.422 336.641 159.446 336.557 159.498 336.489C159.549 336.422 159.624 336.376 159.708 336.361L251.254 319.795L247.301 289.278L180.286 297.705C180.234 297.712 180.18 297.707 180.13 297.689C180.08 297.672 180.035 297.642 179.999 297.604C179.962 297.566 179.935 297.519 179.919 297.469C179.903 297.418 179.9 297.364 179.908 297.312L185.482 263.636C185.489 263.591 185.505 263.549 185.528 263.511C185.552 263.472 185.582 263.439 185.619 263.413C185.655 263.387 185.697 263.369 185.74 263.359C185.784 263.349 185.829 263.348 185.873 263.356C185.917 263.363 185.959 263.379 185.997 263.403C186.035 263.426 186.068 263.457 186.094 263.493C186.12 263.53 186.139 263.571 186.149 263.614C186.159 263.658 186.16 263.703 186.153 263.747L180.653 296.973L247.551 288.56C247.64 288.549 247.73 288.574 247.801 288.629C247.872 288.684 247.919 288.765 247.93 288.854L251.969 320.027C251.98 320.114 251.958 320.202 251.906 320.272C251.855 320.342 251.778 320.39 251.693 320.406L159.829 337.03C159.808 337.034 159.788 337.036 159.767 337.036V337.036Z" fill="#0C0C0C"/>
<path d="M180.192 297.032L174.283 297.979L174.39 298.652L180.3 297.705L180.192 297.032Z" fill="#0C0C0C"/>
<path d="M638.2 377.204H437.161C428.811 377.204 422.041 383.982 422.041 392.344V461.269C422.041 469.63 428.811 476.409 437.161 476.409H638.2C646.551 476.409 653.32 469.63 653.32 461.269V392.344C653.32 383.982 646.551 377.204 638.2 377.204Z" fill="white"/>
<path opacity="0.4" d="M638.2 377.204H437.161C428.811 377.204 422.041 383.982 422.041 392.344V461.269C422.041 469.63 428.811 476.409 437.161 476.409H638.2C646.551 476.409 653.32 469.63 653.32 461.269V392.344C653.32 383.982 646.551 377.204 638.2 377.204Z" fill="#FEB062"/>
<path d="M638.2 477.086H437.161C432.972 477.081 428.956 475.413 425.994 472.447C423.032 469.481 421.366 465.46 421.361 461.265V392.347C421.366 388.153 423.032 384.131 425.994 381.166C428.956 378.2 432.972 376.531 437.161 376.526H638.2C642.389 376.531 646.405 378.2 649.367 381.166C652.329 384.131 653.995 388.153 654 392.347V461.268C653.995 465.462 652.328 469.483 649.366 472.448C646.404 475.413 642.389 477.081 638.2 477.086V477.086ZM437.161 377.885C433.332 377.889 429.661 379.414 426.954 382.126C424.247 384.837 422.724 388.513 422.721 392.347V461.268C422.726 465.101 424.249 468.776 426.956 471.486C429.663 474.196 433.333 475.72 437.161 475.725H638.2C642.029 475.72 645.699 474.196 648.406 471.485C651.114 468.774 652.636 465.099 652.641 461.265V392.347C652.636 388.513 651.114 384.838 648.406 382.127C645.699 379.417 642.029 377.892 638.2 377.888L437.161 377.885Z" fill="#292A2E"/>
<path d="M442.78 455.272C442.597 455.272 442.417 455.222 442.26 455.129C442.102 455.035 441.973 454.901 441.885 454.74C441.797 454.579 441.754 454.397 441.761 454.214C441.767 454.031 441.823 453.853 441.922 453.699C442.143 453.358 464.361 419.341 499.67 419.341C518.12 419.341 529.299 426.469 540.11 433.362C550.117 439.744 559.569 445.771 574.195 445.771C604.1 445.771 628.19 402.285 628.429 401.846C628.559 401.608 628.778 401.432 629.037 401.356C629.297 401.28 629.576 401.31 629.813 401.44C630.05 401.569 630.226 401.788 630.303 402.048C630.379 402.308 630.349 402.588 630.219 402.825C629.216 404.663 605.297 447.815 574.195 447.815C558.975 447.815 549.279 441.632 539.014 435.087C528.45 428.349 517.526 421.384 499.67 421.384C465.49 421.384 443.853 454.469 443.639 454.803C443.546 454.947 443.419 455.065 443.269 455.147C443.119 455.229 442.951 455.272 442.78 455.272V455.272Z" fill="white"/>
<path d="M629.61 406.332C631.813 406.332 633.6 404.544 633.6 402.337C633.6 400.131 631.813 398.342 629.61 398.342C627.406 398.342 625.62 400.131 625.62 402.337C625.62 404.544 627.406 406.332 629.61 406.332Z" fill="white"/>
</g>
<defs>
<clipPath id="clip0_390_1644">
<rect width="654" height="656.717" fill="white" transform="translate(0 0.641602)"/>
</clipPath>
</defs>
</svg>
