<svg width="646" height="623" viewBox="0 0 646 623" fill="none" xmlns="http://www.w3.org/2000/svg">
<g clip-path="url(#clip0_390_2148)">
<path d="M551.583 9.28809H440.54V153.823H551.583V9.28809Z" fill="#F4F4F4"/>
<path d="M551.582 153.824H555.185V9.28912H551.582V153.824Z" fill="#F4F4F4"/>
<path opacity="0.05" d="M551.582 153.824H555.185V9.28912H551.582V153.824Z" fill="#292A2E"/>
<path opacity="0.05" d="M531.355 35.6172H460.768V127.495H531.355V35.6172Z" fill="#292A2E"/>
<path opacity="0.03" d="M531.354 35.6172H527.676V127.495H531.354V35.6172Z" fill="#292A2E"/>
<path d="M642.398 189.367H551.583V281.016H642.398V189.367Z" fill="#F4F4F4"/>
<path opacity="0.05" d="M625.855 206.062H568.126V264.321H625.855V206.062Z" fill="#292A2E"/>
<path d="M642.398 281.016H646V189.367H642.398V281.016Z" fill="#F4F4F4"/>
<path opacity="0.05" d="M642.398 281.016H646V189.367H642.398V281.016Z" fill="#292A2E"/>
<path opacity="0.03" d="M625.854 206.062H622.176V264.321H625.854V206.062Z" fill="#292A2E"/>
<path d="M314.572 0H12.0518V302.52H314.572V0Z" fill="#F4F4F4"/>
<path d="M318.04 0H314.572V302.52H318.04V0Z" fill="#F4F4F4"/>
<path opacity="0.05" d="M318.04 0H314.572V302.52H318.04V0Z" fill="#292A2E"/>
<path opacity="0.05" d="M241.284 208.462V129.312H176.449V175.296H76.0199V256.717H33.3359V302.521H76.0199H84.2431H300.019V208.462H241.284Z" fill="#292A2E"/>
<path opacity="0.34" d="M231.986 137.906H184.772V146.5H231.986V137.906Z" fill="#FFFFFA"/>
<path opacity="0.34" d="M231.986 155.715H184.772V164.309H231.986V155.715Z" fill="#FFFFFA"/>
<path opacity="0.34" d="M231.986 173.522H184.772V182.116H231.986V173.522Z" fill="#FFFFFA"/>
<path opacity="0.34" d="M291.647 216.804H282.945V225.397H291.647V216.804Z" fill="#FFFFFA"/>
<path opacity="0.34" d="M291.647 234.612H282.945V243.206H291.647V234.612Z" fill="#FFFFFA"/>
<path opacity="0.34" d="M291.647 252.42H282.945V261.014H291.647V252.42Z" fill="#FFFFFA"/>
<path opacity="0.34" d="M275.549 216.804H266.847V225.397H275.549V216.804Z" fill="#FFFFFA"/>
<path opacity="0.34" d="M275.549 234.612H266.847V243.206H275.549V234.612Z" fill="#FFFFFA"/>
<path opacity="0.34" d="M275.549 252.42H266.847V261.014H275.549V252.42Z" fill="#FFFFFA"/>
<path opacity="0.34" d="M259.885 216.804H251.183V225.397H259.885V216.804Z" fill="#FFFFFA"/>
<path opacity="0.34" d="M259.885 234.612H251.183V243.206H259.885V234.612Z" fill="#FFFFFA"/>
<path opacity="0.34" d="M259.885 252.42H251.183V261.014H259.885V252.42Z" fill="#FFFFFA"/>
<path d="M314.572 149.563H253.7V0H248.666V149.563H84.2438V0H79.2093V149.563H12.0518V154.598H79.2093V302.52H84.2438V154.598H248.666V302.52H253.7V154.598H314.572V149.563Z" fill="white"/>
<path d="M326.623 302.155H0V312.216H326.623V302.155Z" fill="#F4F4F4"/>
<path opacity="0.1" d="M326.623 302.155H0V312.216H326.623V302.155Z" fill="#292A2E"/>
<path opacity="0.1" d="M331.339 302.155H326.623V312.216H331.339V302.155Z" fill="#292A2E"/>
<path opacity="0.1" d="M331.339 302.155H326.623V312.216H331.339V302.155Z" fill="#292A2E"/>
<path opacity="0.05" d="M486.314 609.777H469.51V621H486.314V609.777Z" fill="#292A2E"/>
<path opacity="0.05" d="M591.808 609.777H575.003V621H591.808V609.777Z" fill="#292A2E"/>
<path d="M607.212 438.788H454.105V609.777H607.212V438.788Z" fill="#F4F4F4"/>
<path opacity="0.03" d="M607.212 438.788H454.105V609.777H607.212V438.788Z" fill="#292A2E"/>
<path d="M566.55 438.788H413.443V609.777H566.55V438.788Z" fill="#F4F4F4"/>
<path opacity="0.05" d="M445.652 609.777H428.848V621H445.652V609.777Z" fill="#292A2E"/>
<path opacity="0.05" d="M551.146 609.777H534.341V621H551.146V609.777Z" fill="#292A2E"/>
<path opacity="0.7" d="M558.312 449.36H421.68V492.728H558.312V449.36Z" fill="white"/>
<path opacity="0.7" d="M558.312 503.343H421.68V546.71H558.312V503.343Z" fill="white"/>
<path opacity="0.7" d="M558.312 557.324H421.68V600.692H558.312V557.324Z" fill="white"/>
<path opacity="0.05" d="M489.996 477.112C493.348 477.112 496.065 474.395 496.065 471.044C496.065 467.693 493.348 464.976 489.996 464.976C486.645 464.976 483.928 467.693 483.928 471.044C483.928 474.395 486.645 477.112 489.996 477.112Z" fill="#292A2E"/>
<path opacity="0.05" d="M489.996 531.095C493.348 531.095 496.065 528.378 496.065 525.026C496.065 521.675 493.348 518.958 489.996 518.958C486.645 518.958 483.928 521.675 483.928 525.026C483.928 528.378 486.645 531.095 489.996 531.095Z" fill="#292A2E"/>
<path opacity="0.05" d="M489.996 585.077C493.348 585.077 496.065 582.36 496.065 579.009C496.065 575.657 493.348 572.94 489.996 572.94C486.645 572.94 483.928 575.657 483.928 579.009C483.928 582.36 486.645 585.077 489.996 585.077Z" fill="#292A2E"/>
<path d="M478.965 35.5186H108.081C97.3879 35.5186 88.7197 44.1868 88.7197 54.8796V464.026C88.7197 474.719 97.3879 483.387 108.081 483.387H478.965C489.658 483.387 498.326 474.719 498.326 464.026V54.8796C498.326 44.1868 489.658 35.5186 478.965 35.5186Z" fill="white"/>
<path d="M478.599 483.485H107.711C102.407 483.479 97.3222 481.369 93.5716 477.619C89.821 473.868 87.7112 468.783 87.7051 463.479V54.3325C87.7112 49.0284 89.821 43.9433 93.5716 40.1927C97.3222 36.4421 102.407 34.3323 107.711 34.3262H478.599C483.903 34.3322 488.988 36.4419 492.739 40.1925C496.489 43.9431 498.599 49.0284 498.605 54.3325V463.479C498.599 468.783 496.489 473.868 492.739 477.619C488.988 481.37 483.903 483.479 478.599 483.485ZM107.711 35.6169C102.75 35.6227 97.9925 37.5964 94.4839 41.105C90.9753 44.6136 89.0016 49.3706 88.9958 54.3325V463.479C89.0014 468.441 90.9751 473.198 94.4837 476.707C97.9924 480.215 102.749 482.189 107.711 482.195H478.599C483.561 482.189 488.318 480.215 491.826 476.707C495.335 473.198 497.309 468.441 497.314 463.479V54.3325C497.308 49.3706 495.335 44.6136 491.826 41.105C488.318 37.5964 483.561 35.6227 478.599 35.6169H107.711Z" fill="#292A2E"/>
<path d="M497.959 54.3298V69.2945H88.3545V54.3298C88.3545 49.1949 90.3943 44.2704 94.0252 40.6395C97.6561 37.0086 102.581 34.9688 107.715 34.9688H478.598C483.732 34.9688 488.657 37.0086 492.288 40.6395C495.919 44.2704 497.959 49.1949 497.959 54.3298Z" fill="#292A2E"/>
<path opacity="0.1" d="M156.65 188.149C182.792 188.149 203.984 166.957 203.984 140.815C203.984 114.673 182.792 93.4805 156.65 93.4805C130.508 93.4805 109.315 114.673 109.315 140.815C109.315 166.957 130.508 188.149 156.65 188.149Z" fill="#FEB062"/>
<path opacity="0.2" d="M156.65 138.778C165.73 138.778 173.09 131.417 173.09 122.337C173.09 113.257 165.73 105.896 156.65 105.896C147.57 105.896 140.209 113.257 140.209 122.337C140.209 131.417 147.57 138.778 156.65 138.778Z" fill="#FEB062"/>
<path opacity="0.2" d="M192.235 172.028C187.792 177.093 182.319 181.152 176.182 183.932C170.045 186.712 163.385 188.15 156.648 188.149C149.91 188.149 143.25 186.71 137.114 183.928C130.977 181.147 125.505 177.088 121.063 172.022C123.339 164.349 128.033 157.617 134.446 152.83C140.86 148.043 148.649 145.457 156.651 145.458C164.654 145.459 172.443 148.046 178.855 152.834C185.267 157.622 189.961 164.355 192.235 172.028Z" fill="#FEB062"/>
<path opacity="0.2" d="M179.008 220.44H114.85C112.534 220.44 110.657 222.317 110.657 224.633C110.657 226.948 112.534 228.825 114.85 228.825H179.008C181.323 228.825 183.2 226.948 183.2 224.633C183.2 222.317 181.323 220.44 179.008 220.44Z" fill="#FEB062"/>
<path opacity="0.1" d="M331.456 96.6592H230.61C226.845 96.6592 223.792 99.7118 223.792 103.477V117.619C223.792 121.385 226.845 124.438 230.61 124.438H331.456C335.222 124.438 338.274 121.385 338.274 117.619V103.477C338.274 99.7118 335.222 96.6592 331.456 96.6592Z" fill="#FEB062"/>
<path opacity="0.2" d="M378.173 139.795H227.019C225.237 139.795 223.792 141.24 223.792 143.022C223.792 144.804 225.237 146.249 227.019 146.249H378.173C379.956 146.249 381.4 144.804 381.4 143.022C381.4 141.24 379.956 139.795 378.173 139.795Z" fill="#FEB062"/>
<path opacity="0.2" d="M378.173 159.156H227.019C225.237 159.156 223.792 160.601 223.792 162.383C223.792 164.165 225.237 165.61 227.019 165.61H378.173C379.956 165.61 381.4 164.165 381.4 162.383C381.4 160.601 379.956 159.156 378.173 159.156Z" fill="#FEB062"/>
<path opacity="0.2" d="M352.359 178.518H227.019C225.237 178.518 223.792 179.962 223.792 181.744C223.792 183.527 225.237 184.971 227.019 184.971H352.359C354.141 184.971 355.586 183.527 355.586 181.744C355.586 179.962 354.141 178.518 352.359 178.518Z" fill="#FEB062"/>
<path opacity="0.1" d="M274.288 240.919H116.718C113.371 240.919 110.657 243.632 110.657 246.98V261.953C110.657 265.301 113.371 268.014 116.718 268.014H274.288C277.635 268.014 280.349 265.301 280.349 261.953V246.98C280.349 243.632 277.635 240.919 274.288 240.919Z" fill="#FEB062"/>
<path opacity="0.2" d="M372.202 220.44H308.044C305.729 220.44 303.852 222.317 303.852 224.633C303.852 226.948 305.729 228.825 308.044 228.825H372.202C374.518 228.825 376.395 226.948 376.395 224.633C376.395 222.317 374.518 220.44 372.202 220.44Z" fill="#FEB062"/>
<path opacity="0.1" d="M467.482 240.919H309.912C306.565 240.919 303.852 243.632 303.852 246.98V261.953C303.852 265.301 306.565 268.014 309.912 268.014H467.482C470.83 268.014 473.543 265.301 473.543 261.953V246.98C473.543 243.632 470.83 240.919 467.482 240.919Z" fill="#FEB062"/>
<path opacity="0.2" d="M179.008 290.415H114.85C112.534 290.415 110.657 292.292 110.657 294.607C110.657 296.923 112.534 298.8 114.85 298.8H179.008C181.323 298.8 183.2 296.923 183.2 294.607C183.2 292.292 181.323 290.415 179.008 290.415Z" fill="#FEB062"/>
<path opacity="0.1" d="M274.288 310.894H116.718C113.371 310.894 110.657 313.607 110.657 316.954V331.928C110.657 335.275 113.371 337.989 116.718 337.989H274.288C277.635 337.989 280.349 335.275 280.349 331.928V316.954C280.349 313.607 277.635 310.894 274.288 310.894Z" fill="#FEB062"/>
<path opacity="0.2" d="M372.202 290.415H308.044C305.729 290.415 303.852 292.292 303.852 294.607C303.852 296.923 305.729 298.8 308.044 298.8H372.202C374.518 298.8 376.395 296.923 376.395 294.607C376.395 292.292 374.518 290.415 372.202 290.415Z" fill="#FEB062"/>
<path opacity="0.1" d="M467.482 310.894H309.912C306.565 310.894 303.852 313.607 303.852 316.954V331.928C303.852 335.275 306.565 337.989 309.912 337.989H467.482C470.83 337.989 473.543 335.275 473.543 331.928V316.954C473.543 313.607 470.83 310.894 467.482 310.894Z" fill="#FEB062"/>
<path opacity="0.2" d="M179.008 360.39H114.85C112.534 360.39 110.657 362.267 110.657 364.582C110.657 366.897 112.534 368.774 114.85 368.774H179.008C181.323 368.774 183.2 366.897 183.2 364.582C183.2 362.267 181.323 360.39 179.008 360.39Z" fill="#FEB062"/>
<path opacity="0.1" d="M274.288 380.868H116.718C113.371 380.868 110.657 383.582 110.657 386.929V401.903C110.657 405.25 113.371 407.963 116.718 407.963H274.288C277.635 407.963 280.349 405.25 280.349 401.903V386.929C280.349 383.582 277.635 380.868 274.288 380.868Z" fill="#FEB062"/>
<path opacity="0.2" d="M372.202 360.39H308.044C305.729 360.39 303.852 362.267 303.852 364.582C303.852 366.897 305.729 368.774 308.044 368.774H372.202C374.518 368.774 376.395 366.897 376.395 364.582C376.395 362.267 374.518 360.39 372.202 360.39Z" fill="#FEB062"/>
<path opacity="0.1" d="M467.482 380.868H309.912C306.565 380.868 303.852 383.582 303.852 386.929V401.903C303.852 405.25 306.565 407.963 309.912 407.963H467.482C470.83 407.963 473.543 405.25 473.543 401.903V386.929C473.543 383.582 470.83 380.868 467.482 380.868Z" fill="#FEB062"/>
<path opacity="0.2" d="M342.402 429.074H243.911C239.937 429.074 236.715 432.296 236.715 436.27V449.554C236.715 453.528 239.937 456.75 243.911 456.75H342.402C346.376 456.75 349.598 453.528 349.598 449.554V436.27C349.598 432.296 346.376 429.074 342.402 429.074Z" fill="#FEB062"/>
<path d="M71.9584 537.936C71.8736 537.936 71.7896 537.919 71.7113 537.887C71.633 537.854 71.5619 537.807 71.5021 537.747C70.5928 536.838 69.1104 520.155 65.1182 470.485C63.4847 450.161 61.9417 430.964 60.8155 419.297C60.7355 418.464 60.4121 418.367 60.3063 418.335C58.7645 417.87 54.0772 421.566 51.4603 424.804C51.3526 424.937 51.1965 425.022 51.0262 425.04C50.8559 425.058 50.6854 425.007 50.5522 424.9C50.4191 424.792 50.3341 424.636 50.3161 424.466C50.2981 424.295 50.3484 424.125 50.4561 423.992C52.1869 421.852 57.8274 416.241 60.6774 417.099C61.2518 417.272 61.9681 417.772 62.0972 419.173C63.2247 430.85 64.7677 450.052 66.4018 470.381C68.8277 500.565 71.5757 534.761 72.4792 536.914C72.5484 537.011 72.5897 537.124 72.5985 537.243C72.6073 537.361 72.5833 537.479 72.5291 537.585C72.4749 537.691 72.3927 537.779 72.2915 537.841C72.1902 537.903 72.0739 537.936 71.9552 537.936H71.9584Z" fill="#494949"/>
<path d="M59.1576 440.706C69.8667 432.122 73.4161 418.761 67.0855 410.863C60.7548 402.966 46.9414 403.522 36.2323 412.106C25.5232 420.691 21.9738 434.052 28.3044 441.949C34.6351 449.847 48.4485 449.291 59.1576 440.706Z" fill="#0CBC8B"/>
<path opacity="0.2" d="M59.1576 440.706C69.8667 432.122 73.4161 418.761 67.0855 410.863C60.7548 402.966 46.9414 403.522 36.2323 412.106C25.5232 420.691 21.9738 434.052 28.3044 441.949C34.6351 449.847 48.4485 449.291 59.1576 440.706Z" fill="white"/>
<path d="M31.3061 443.957C31.2448 443.957 31.1848 443.939 31.1331 443.906C31.0814 443.874 31.0401 443.827 31.0141 443.771C30.988 443.716 30.9783 443.654 30.986 443.593C30.9937 443.533 31.0185 443.475 31.0576 443.428L61.5777 406.624C61.6047 406.591 61.638 406.564 61.6755 406.544C61.713 406.524 61.754 406.512 61.7962 406.508C61.8384 406.504 61.881 406.509 61.9215 406.521C61.962 406.534 61.9997 406.554 62.0323 406.581C62.0649 406.608 62.0919 406.642 62.1117 406.679C62.1315 406.717 62.1437 406.758 62.1476 406.8C62.1515 406.842 62.1471 406.885 62.1346 406.925C62.122 406.966 62.1017 407.003 62.0746 407.036L31.5545 443.84C31.5243 443.876 31.4863 443.906 31.4433 443.926C31.4004 443.946 31.3535 443.957 31.3061 443.957Z" fill="white"/>
<path d="M78.6138 530.046C78.5416 530.047 78.47 530.034 78.4021 530.01C78.2405 529.953 78.1077 529.835 78.0332 529.681C77.9586 529.527 77.9483 529.35 78.0046 529.188L89.4689 496.219C89.8064 495.25 90.3816 494.382 91.1418 493.693C91.9019 493.004 92.8227 492.517 93.8199 492.277C94.817 492.036 95.8586 492.049 96.8492 492.315C97.8399 492.582 98.7479 493.092 99.4901 493.8L105.551 499.59C105.675 499.708 105.747 499.871 105.751 500.042C105.755 500.213 105.691 500.379 105.572 500.503C105.454 500.626 105.291 500.698 105.12 500.702C104.949 500.706 104.783 500.642 104.66 500.524L98.5989 494.733C98.0129 494.174 97.296 493.771 96.5139 493.561C95.7318 493.351 94.9095 493.341 94.1223 493.531C93.3351 493.721 92.6081 494.105 92.008 494.649C91.4079 495.193 90.9538 495.878 90.6873 496.643L79.2237 529.613C79.1797 529.739 79.0973 529.849 78.988 529.927C78.8787 530.005 78.7479 530.047 78.6138 530.046Z" fill="#494949"/>
<path d="M122.483 517.842C130.42 511.56 129.948 497.743 121.43 486.982C112.911 476.22 99.5723 472.589 91.6358 478.871C83.6994 485.153 84.171 498.969 92.6893 509.731C101.208 520.492 114.547 524.124 122.483 517.842Z" fill="#0CBC8B"/>
<path d="M66.7496 535.833C66.6047 535.833 66.4639 535.784 66.3502 535.694C66.2364 535.605 66.1561 535.479 66.1223 535.338L46.8833 454.896C46.7517 454.348 46.4715 453.847 46.0735 453.448C45.6755 453.048 45.1752 452.767 44.6274 452.633C44.0797 452.5 43.5058 452.52 42.9688 452.692C42.4318 452.863 41.9525 453.179 41.5835 453.606L35.6526 460.459C35.598 460.526 35.5306 460.581 35.4543 460.621C35.378 460.661 35.2945 460.686 35.2085 460.693C35.1226 460.7 35.0361 460.691 34.9541 460.664C34.872 460.637 34.7962 460.595 34.731 460.538C34.6657 460.482 34.6125 460.413 34.5743 460.335C34.5362 460.258 34.514 460.174 34.5089 460.088C34.5039 460.002 34.5161 459.915 34.545 459.834C34.5738 459.753 34.6186 459.678 34.6768 459.615L40.6071 452.762C41.1313 452.155 41.8125 451.706 42.5758 451.462C43.3391 451.218 44.1549 451.189 44.9335 451.379C45.712 451.568 46.4232 451.969 46.9888 452.537C47.5544 453.104 47.9524 453.817 48.1392 454.596L67.3769 535.038C67.4167 535.204 67.3887 535.38 67.2992 535.526C67.2096 535.672 67.0658 535.776 66.8994 535.816C66.8503 535.827 66.8 535.833 66.7496 535.833Z" fill="#494949"/>
<path d="M59.6507 478.33C61.9894 464.806 55.7999 452.445 45.8262 450.72C35.8524 448.995 25.8712 458.56 23.5325 472.085C21.1937 485.609 27.3832 497.97 37.357 499.695C47.3307 501.42 57.312 491.855 59.6507 478.33Z" fill="#0CBC8B"/>
<path d="M71.9588 537.936C71.9323 537.936 71.9058 537.935 71.8795 537.932C71.7953 537.922 71.714 537.895 71.6402 537.853C71.5664 537.811 71.5015 537.755 71.4493 537.689C71.3971 537.622 71.3586 537.545 71.3359 537.464C71.3133 537.382 71.307 537.296 71.3174 537.212L83.6026 437.466C83.7365 436.379 84.1815 435.354 84.8838 434.515C85.5862 433.675 86.5162 433.056 87.5619 432.732C88.6077 432.408 89.7247 432.393 90.7788 432.689C91.8328 432.984 92.7791 433.578 93.5038 434.399L107.546 450.303C107.602 450.366 107.645 450.44 107.672 450.52C107.7 450.601 107.711 450.685 107.706 450.77C107.701 450.855 107.679 450.937 107.642 451.014C107.604 451.09 107.552 451.158 107.489 451.214C107.425 451.27 107.351 451.313 107.271 451.341C107.191 451.368 107.106 451.38 107.021 451.374C106.937 451.369 106.854 451.347 106.778 451.31C106.702 451.273 106.634 451.221 106.578 451.157L92.5357 435.253C91.9757 434.619 91.2444 434.16 90.4297 433.931C89.615 433.703 88.7516 433.714 87.9434 433.965C87.1351 434.215 86.4164 434.694 85.8736 435.343C85.3308 435.992 84.987 436.784 84.8836 437.624L72.5984 537.37C72.5792 537.526 72.5036 537.67 72.3858 537.774C72.2681 537.878 72.1162 537.936 71.9588 537.936Z" fill="#494949"/>
<path d="M121.946 459.139C126.845 450.282 121.081 437.717 109.071 431.074C97.0608 424.43 83.3532 426.225 78.4539 435.082C73.5546 443.939 79.319 456.505 91.329 463.148C103.339 469.791 117.047 467.997 121.946 459.139Z" fill="#0CBC8B"/>
<path opacity="0.2" d="M122.483 517.842C130.42 511.56 129.948 497.743 121.43 486.982C112.911 476.22 99.5723 472.589 91.6358 478.871C83.6994 485.153 84.171 498.969 92.6893 509.731C101.208 520.492 114.547 524.124 122.483 517.842Z" fill="white"/>
<path opacity="0.5" d="M59.6507 478.33C61.9894 464.806 55.7999 452.445 45.8262 450.72C35.8524 448.995 25.8712 458.56 23.5325 472.085C21.1937 485.609 27.3832 497.97 37.357 499.695C47.3307 501.42 57.312 491.855 59.6507 478.33Z" fill="white"/>
<path opacity="0.5" d="M121.946 459.139C126.845 450.282 121.081 437.717 109.071 431.074C97.0608 424.43 83.3532 426.225 78.4539 435.082C73.5546 443.939 79.319 456.505 91.329 463.148C103.339 469.791 117.047 467.997 121.946 459.139Z" fill="white"/>
<path d="M87.671 622.57H56.2442L51.0361 522.02H92.8785L87.671 622.57Z" fill="#292A2E"/>
<path opacity="0.3" d="M87.671 622.57H56.2442L51.0361 522.02H92.8785L87.671 622.57Z" fill="white"/>
<path d="M122.485 518.166C122.436 518.166 122.388 518.155 122.344 518.133C122.3 518.112 122.262 518.081 122.232 518.043L91.3832 479.072C91.3569 479.039 91.3374 479.001 91.3258 478.96C91.3142 478.919 91.3107 478.876 91.3156 478.834C91.3205 478.792 91.3336 478.752 91.3543 478.714C91.3749 478.677 91.4026 478.645 91.4358 478.619C91.469 478.592 91.5071 478.573 91.5479 478.561C91.5886 478.55 91.6313 478.546 91.6734 478.551C91.7155 478.556 91.7562 478.569 91.7933 478.59C91.8303 478.61 91.8629 478.638 91.8892 478.671L122.738 517.642C122.775 517.69 122.799 517.747 122.806 517.807C122.812 517.868 122.802 517.929 122.776 517.983C122.749 518.038 122.708 518.084 122.656 518.116C122.605 518.149 122.545 518.166 122.485 518.166Z" fill="white"/>
<path d="M119.895 462.263C119.826 462.262 119.76 462.239 119.705 462.198L80.2301 433.375C80.161 433.324 80.1147 433.248 80.1015 433.164C80.0883 433.079 80.1093 432.993 80.1598 432.923C80.2103 432.854 80.2862 432.808 80.3708 432.795C80.4554 432.782 80.5417 432.803 80.6109 432.853L120.085 461.677C120.14 461.718 120.18 461.774 120.2 461.839C120.22 461.904 120.219 461.973 120.198 462.037C120.176 462.102 120.135 462.157 120.08 462.197C120.026 462.237 119.96 462.258 119.892 462.258L119.895 462.263Z" fill="white"/>
<path d="M35.7531 499.273C35.725 499.274 35.697 499.27 35.6699 499.262C35.5878 499.24 35.518 499.186 35.4756 499.112C35.4332 499.038 35.4216 498.951 35.4433 498.869L48.0093 451.787C48.0196 451.745 48.0382 451.706 48.0638 451.672C48.0894 451.637 48.1216 451.608 48.1585 451.587C48.1954 451.565 48.2362 451.551 48.2787 451.545C48.3211 451.539 48.3643 451.542 48.4057 451.553C48.447 451.564 48.4858 451.583 48.5197 451.609C48.5536 451.636 48.5819 451.668 48.6031 451.705C48.6242 451.743 48.6377 451.784 48.6428 451.826C48.6479 451.869 48.6445 451.912 48.6327 451.953L36.0668 499.034C36.0483 499.103 36.0076 499.164 35.9508 499.207C35.8941 499.251 35.8245 499.274 35.7531 499.273Z" fill="white"/>
<path d="M310.337 115.706L320.767 128.024L320.122 125.909C319.927 125.222 320 124.487 320.326 123.852C320.652 123.217 321.208 122.73 321.88 122.488C322.231 122.376 322.601 122.336 322.968 122.372C323.335 122.407 323.691 122.517 324.014 122.694C324.337 122.872 324.621 123.113 324.848 123.404C325.074 123.695 325.24 124.029 325.333 124.385L330.101 142.339C330.703 144.605 330.395 147.017 329.244 149.059C328.093 151.102 326.189 152.614 323.938 153.273C321.326 154.038 318.544 154.005 315.95 153.179C313.356 152.352 311.068 150.77 309.379 148.635L301.745 138.947C301.338 138.452 301.116 137.831 301.114 137.19C301.113 136.549 301.333 135.927 301.738 135.43C302.113 134.988 302.619 134.678 303.183 134.544C303.746 134.411 304.338 134.461 304.871 134.688C304.882 134.645 304.904 134.606 304.936 134.575C304.967 134.548 305.004 134.529 305.045 134.52C305.085 134.511 305.127 134.512 305.167 134.523L303.753 132.735C303.32 132.211 303.091 131.548 303.108 130.868C303.126 130.188 303.388 129.538 303.848 129.037C304.319 128.556 304.952 128.267 305.623 128.226C306.295 128.186 306.958 128.396 307.483 128.816C307.487 128.788 307.496 128.76 307.509 128.735L306.928 128.002C306.549 127.5 306.342 126.889 306.337 126.26C306.332 125.631 306.53 125.017 306.901 124.508C307.354 123.962 308.004 123.614 308.711 123.54C309.417 123.467 310.125 123.673 310.681 124.114L310.718 124.077L306.336 118.902C306.111 118.637 305.943 118.328 305.841 117.996C305.74 117.663 305.707 117.313 305.745 116.968C305.783 116.622 305.891 116.288 306.063 115.985C306.234 115.683 306.466 115.418 306.743 115.208C307.293 114.82 307.971 114.655 308.638 114.748C309.306 114.84 309.913 115.183 310.337 115.706Z" fill="#E98862"/>
<path opacity="0.2" d="M310.575 124.404C310.585 124.432 310.601 124.458 310.62 124.48L314.939 129.46C314.961 129.485 314.987 129.506 315.017 129.521C315.047 129.536 315.08 129.545 315.113 129.548C315.147 129.55 315.18 129.546 315.212 129.536C315.244 129.525 315.274 129.509 315.299 129.487C315.325 129.465 315.345 129.438 315.36 129.408C315.376 129.378 315.385 129.345 315.387 129.312C315.39 129.279 315.385 129.245 315.375 129.213C315.364 129.181 315.348 129.152 315.326 129.126L311.012 124.149C310.971 124.107 310.918 124.08 310.86 124.072C310.802 124.065 310.744 124.077 310.694 124.107C310.644 124.137 310.606 124.183 310.585 124.237C310.564 124.291 310.563 124.351 310.58 124.407L310.575 124.404Z" fill="#0C0C0C"/>
<path opacity="0.2" d="M307.49 128.935C307.5 128.962 307.515 128.987 307.534 129.01L310.895 132.946C310.94 132.993 311.001 133.021 311.066 133.025C311.131 133.028 311.195 133.006 311.245 132.964C311.294 132.922 311.326 132.862 311.333 132.797C311.34 132.733 311.322 132.668 311.282 132.616L307.921 128.679C307.882 128.633 307.828 128.602 307.768 128.592C307.709 128.582 307.648 128.594 307.596 128.625C307.544 128.656 307.505 128.704 307.485 128.762C307.466 128.819 307.467 128.881 307.489 128.937L307.49 128.935Z" fill="#0C0C0C"/>
<path opacity="0.2" d="M304.866 134.859C304.877 134.888 304.894 134.915 304.915 134.938L306.549 136.761C306.571 136.786 306.598 136.806 306.628 136.821C306.658 136.835 306.691 136.843 306.724 136.845C306.758 136.847 306.791 136.842 306.823 136.831C306.854 136.82 306.883 136.803 306.908 136.781C306.933 136.759 306.953 136.732 306.968 136.701C306.982 136.671 306.991 136.639 306.993 136.605C306.994 136.572 306.99 136.538 306.979 136.507C306.968 136.475 306.95 136.446 306.928 136.421L305.297 134.598C305.257 134.555 305.204 134.527 305.146 134.518C305.087 134.51 305.028 134.522 304.978 134.552C304.927 134.583 304.889 134.63 304.869 134.685C304.85 134.74 304.85 134.801 304.869 134.856L304.866 134.859Z" fill="#0C0C0C"/>
<path d="M436.665 239.249L345.612 232.876C342.327 232.647 339.174 231.491 336.519 229.542C333.864 227.594 331.816 224.934 330.611 221.869L301.822 148.635L334.255 135.885L359.017 198.88L439.094 204.484L436.665 239.249Z" fill="#FEB062"/>
<path d="M489.533 593.226C489.533 593.226 486.619 608.327 472.477 609.172C458.335 610.017 461.402 621.28 461.402 621.28H515.444V594.279L489.533 593.226Z" fill="#FEB062"/>
<path d="M506.202 317.699C506.202 317.699 506.032 313.158 506.069 323.458C506.202 361.876 506.869 405.759 508.498 431.437C511.117 472.717 517.83 602.865 517.83 602.865L482.318 602.567L447.898 316.138L506.202 317.699Z" fill="#262626"/>
<path d="M426.312 593.226C426.312 593.226 423.398 608.327 409.256 609.172C395.114 610.017 398.181 621.28 398.181 621.28H452.223V594.279L426.312 593.226Z" fill="#FEB062"/>
<path d="M409.118 320.683C409.118 320.683 405.972 451.987 406.433 458.404L419.64 601.869L454.564 602.515L451.161 453.213C451.161 453.213 453.562 412.028 463.512 373.786C468.604 354.158 471.668 334.06 472.656 313.807L409.118 320.683Z" fill="#262626"/>
<path d="M506.588 317.695L506.704 317.701C506.704 317.701 506.62 315.462 506.588 317.695Z" fill="#333333"/>
<path d="M404.119 247.8C404.851 256.404 408.413 310.084 409.117 320.682H506.161C506.71 311.123 509.171 269.327 511.25 250.635C513.235 232.798 517.128 223.868 514.274 218.595C509.611 209.977 496.867 204.997 488.178 203.82C482.872 203.102 474.892 202.587 474.892 202.587C474.892 202.587 474.216 216.256 458.104 217.017C436.171 218.05 437.636 202.587 437.527 202.587C433.974 202.587 413.283 204.258 408.71 207.78C400.708 213.939 402.564 229.566 404.119 247.8Z" fill="#FEB062"/>
<path d="M402.779 237.018C402.696 237.018 402.617 236.987 402.557 236.93C402.497 236.874 402.461 236.796 402.456 236.714L401.676 223.051C401.671 222.966 401.701 222.882 401.757 222.818C401.814 222.754 401.894 222.715 401.98 222.71C402.065 222.706 402.148 222.736 402.212 222.793C402.276 222.85 402.315 222.929 402.32 223.014L403.103 236.677C403.108 236.762 403.079 236.846 403.022 236.91C402.965 236.974 402.885 237.012 402.8 237.017L402.779 237.018Z" fill="#0C0C0C"/>
<path d="M527.143 320.119C529.997 320.119 532.809 319.429 535.34 318.108C537.87 316.787 540.044 314.874 541.676 312.533C543.308 310.191 544.35 307.49 544.714 304.659C545.078 301.828 544.752 298.951 543.764 296.272C542.762 293.553 519.258 231.312 514.783 219.78L481.65 233.204C484.167 239.689 493.282 264.267 500.605 284.066L488.439 282.744L484.609 317.972L525.226 320.015C525.862 320.084 526.502 320.119 527.143 320.119Z" fill="#FEB062"/>
<path d="M425.967 201.409C426.076 201.395 429.052 212.597 452.284 210.854C468.366 209.649 472.29 198.701 472.656 198.701C470.922 198.333 468.107 197.95 467.336 197.54C464.804 196.179 462.959 194.523 462.031 190.968C461.304 188.188 460.933 177.486 460.933 172.116L436.185 177.677C436.53 183.735 438.944 197.776 430.482 200.261C429.075 200.672 427.559 201.05 425.967 201.409Z" fill="#E98862"/>
<path d="M437.042 189.585C446.799 190.355 459.331 186.235 461.712 173.219L463.86 161.473C466.241 148.457 461.334 136.654 449.081 134.413C436.825 132.171 425.735 141.048 423.355 154.064L422.403 159.264C421.489 164.259 419.635 188.211 437.042 189.585Z" fill="#E98862"/>
<path d="M427.996 177.634C429.748 168.835 430.55 162.964 430.457 156.77C427.99 152.446 428.639 147.477 429.2 145.332C427.501 146.411 425.504 146.923 423.496 146.795C423.496 146.795 427.575 130.423 441.437 126.018C443.986 125.025 450.496 123.772 459.14 124.958C466.492 125.966 484.613 131.463 487.202 151.865V151.876C487.288 152.553 489.028 171.35 492.494 180.369C497.157 192.494 503.704 196.261 503.538 210.25C503.325 228.243 470.245 230.638 450.295 229.293C430.346 227.947 419.206 221.386 419.06 208.418C418.907 193.889 424.492 195.239 427.996 177.634Z" fill="#0A0A0A"/>
<path d="M508.236 250.997L505.852 320.674L506.497 320.696L508.881 251.019L508.236 250.997Z" fill="#0C0C0C"/>
<path d="M39.0361 622.571H610.259C610.323 622.573 610.387 622.563 610.447 622.54C610.506 622.517 610.561 622.483 610.607 622.438C610.653 622.394 610.69 622.341 610.715 622.282C610.74 622.223 610.753 622.16 610.753 622.096C610.753 622.032 610.74 621.969 610.715 621.91C610.69 621.851 610.653 621.798 610.607 621.753C610.561 621.709 610.506 621.674 610.447 621.651C610.387 621.629 610.323 621.618 610.259 621.62H39.0361C38.9722 621.618 38.9085 621.629 38.8488 621.651C38.7891 621.674 38.7346 621.709 38.6885 621.753C38.6425 621.798 38.6059 621.851 38.5809 621.91C38.5559 621.969 38.543 622.032 38.543 622.096C38.543 622.16 38.5559 622.223 38.5809 622.282C38.6059 622.341 38.6425 622.394 38.6885 622.438C38.7346 622.483 38.7891 622.517 38.8488 622.54C38.9085 622.563 38.9722 622.573 39.0361 622.571Z" fill="#292A2E"/>
<path d="M466.1 363.003C466.1 363.003 464.627 390.883 464.357 397.428C463.726 412.565 463.507 428.237 463.507 446.007L457.909 399.424C457.909 399.424 462.003 384.825 466.1 363.003Z" fill="#0A0A0A"/>
</g>
<defs>
<clipPath id="clip0_390_2148">
<rect width="646" height="622.571" fill="white"/>
</clipPath>
</defs>
</svg>
