<svg width="646" height="626" viewBox="0 0 646 626" fill="none" xmlns="http://www.w3.org/2000/svg">
<path d="M463.117 625.949C564.121 625.949 646 618.39 646 609.065C646 599.74 564.121 592.181 463.117 592.181C362.114 592.181 280.234 599.74 280.234 609.065C280.234 618.39 362.114 625.949 463.117 625.949Z" fill="white"/>
<path opacity="0.1" d="M463.117 625.949C564.121 625.949 646 618.39 646 609.065C646 599.74 564.121 592.181 463.117 592.181C362.114 592.181 280.234 599.74 280.234 609.065C280.234 618.39 362.114 625.949 463.117 625.949Z" fill="#292A2E"/>
<path d="M159.523 357.982H101.229V374.953H159.523V357.982Z" fill="#F4F4F4"/>
<path opacity="0.05" d="M116.695 357.982H109.057V374.953H116.695V357.982Z" fill="#292A2E"/>
<path d="M152.074 361.671H120.313V371.728H152.074V361.671Z" fill="white"/>
<path d="M206.02 360.198L151.854 336.527L145.066 352.079L199.231 375.749L206.02 360.198Z" fill="#F4F4F4"/>
<path opacity="0.05" d="M206.02 360.198L151.854 336.527L145.066 352.079L199.231 375.749L206.02 360.198Z" fill="#292A2E"/>
<path d="M198.746 357.019L191.648 353.917L184.859 369.469L191.957 372.571L198.746 357.019Z" fill="white"/>
<path d="M186.81 355.829L157.3 342.933L153.277 352.149L182.787 365.045L186.81 355.829Z" fill="white"/>
<path opacity="0.05" d="M206.123 572.967H191.474V582.755H206.123V572.967Z" fill="#292A2E"/>
<path opacity="0.05" d="M56.3477 572.967H41.6982V582.755H56.3477V572.967Z" fill="#292A2E"/>
<path d="M219.552 375.75H28.2695V572.636H219.552V375.75Z" fill="#F4F4F4"/>
<path opacity="0.03" d="M219.552 375.75H28.2695V572.636H219.552V375.75Z" fill="#292A2E"/>
<path d="M254.999 375.75H63.7168V572.636H254.999V375.75Z" fill="#F4F4F4"/>
<path opacity="0.05" d="M241.569 572.967H226.92V582.755H241.569V572.967Z" fill="#292A2E"/>
<path opacity="0.05" d="M91.795 572.967H77.1455V582.755H91.795V572.967Z" fill="#292A2E"/>
<path opacity="0.7" d="M247.82 384.972H70.8984V422.798H247.82V384.972Z" fill="white"/>
<path opacity="0.7" d="M247.82 432.056H70.8984V469.882H247.82V432.056Z" fill="white"/>
<path opacity="0.7" d="M247.82 479.14H70.8984V516.966H247.82V479.14Z" fill="white"/>
<path opacity="0.05" d="M159.359 409.177C162.281 409.177 164.649 406.807 164.649 403.884C164.649 400.961 162.281 398.592 159.359 398.592C156.438 398.592 154.069 400.961 154.069 403.884C154.069 406.807 156.438 409.177 159.359 409.177Z" fill="#292A2E"/>
<path opacity="0.05" d="M159.359 456.261C162.281 456.261 164.649 453.891 164.649 450.968C164.649 448.045 162.281 445.676 159.359 445.676C156.438 445.676 154.069 448.045 154.069 450.968C154.069 453.891 156.438 456.261 159.359 456.261Z" fill="#292A2E"/>
<path opacity="0.05" d="M159.359 503.346C162.281 503.346 164.649 500.976 164.649 498.053C164.649 495.13 162.281 492.761 159.359 492.761C156.438 492.761 154.069 495.13 154.069 498.053C154.069 500.976 156.438 503.346 159.359 503.346Z" fill="#292A2E"/>
<path opacity="0.7" d="M247.819 527.285H70.8975V565.111H247.819V527.285Z" fill="white"/>
<path opacity="0.05" d="M159.358 551.491C162.28 551.491 164.648 549.121 164.648 546.198C164.648 543.275 162.28 540.905 159.358 540.905C156.437 540.905 154.068 543.275 154.068 546.198C154.068 549.121 156.437 551.491 159.358 551.491Z" fill="#292A2E"/>
<path d="M96.1708 180.331H209.277L209.277 33.0317H96.1708L96.1708 180.331Z" fill="#F4F4F4"/>
<path d="M96.1712 33.0312H92.502V180.331H96.1712V33.0312Z" fill="#F4F4F4"/>
<path opacity="0.05" d="M96.1712 33.0312H92.502V180.331H96.1712V33.0312Z" fill="#292A2E"/>
<path opacity="0.05" d="M116.776 153.498H188.675V59.8633L116.776 59.8633L116.776 153.498Z" fill="#292A2E"/>
<path opacity="0.03" d="M116.777 153.498H120.523L120.523 59.8633H116.777L116.777 153.498Z" fill="#292A2E"/>
<path d="M3.6684 309.955H96.1709L96.1709 216.553H3.6684L3.6684 309.955Z" fill="#F4F4F4"/>
<path opacity="0.05" d="M20.5191 292.94H79.3203L79.3203 233.568H20.5191L20.5191 292.94Z" fill="#292A2E"/>
<path d="M3.66927 216.554H0V309.955H3.66927V216.554Z" fill="#F4F4F4"/>
<path opacity="0.05" d="M3.66927 216.554H0V309.955H3.66927V216.554Z" fill="#292A2E"/>
<path opacity="0.03" d="M20.5197 292.94H24.2666L24.2666 233.568H20.5197L20.5197 292.94Z" fill="#292A2E"/>
<path d="M567.736 32.6816H331.701V268.842H567.736V32.6816Z" fill="#F4F4F4"/>
<path d="M331.701 32.6816H328.995V268.842H331.701V32.6816Z" fill="#F4F4F4"/>
<path opacity="0.05" d="M331.701 32.6816H328.995V268.842H331.701V32.6816Z" fill="#292A2E"/>
<path opacity="0.05" d="M388.881 195.416V133.628H439.467V169.525H517.825V233.085H551.128V268.842H517.825H511.409H343.055V195.416H388.881Z" fill="#292A2E"/>
<path opacity="0.34" d="M432.973 140.336H396.136V147.044H432.973V140.336Z" fill="#FFFFFA"/>
<path opacity="0.34" d="M432.973 154.238H396.136V160.947H432.973V154.238Z" fill="#FFFFFA"/>
<path opacity="0.34" d="M432.973 168.141H396.136V174.849H432.973V168.141Z" fill="#FFFFFA"/>
<path opacity="0.34" d="M356.378 201.927H349.588V208.635H356.378V201.927Z" fill="#FFFFFA"/>
<path opacity="0.34" d="M356.378 215.829H349.588V222.538H356.378V215.829Z" fill="#FFFFFA"/>
<path opacity="0.34" d="M356.378 229.73H349.588V236.439H356.378V229.73Z" fill="#FFFFFA"/>
<path opacity="0.34" d="M368.938 201.927H362.148V208.635H368.938V201.927Z" fill="#FFFFFA"/>
<path opacity="0.34" d="M368.938 215.829H362.148V222.538H368.938V215.829Z" fill="#FFFFFA"/>
<path opacity="0.34" d="M368.938 229.73H362.148V236.439H368.938V229.73Z" fill="#FFFFFA"/>
<path opacity="0.34" d="M381.16 201.927H374.37V208.635H381.16V201.927Z" fill="#FFFFFA"/>
<path opacity="0.34" d="M381.16 215.829H374.37V222.538H381.16V215.829Z" fill="#FFFFFA"/>
<path opacity="0.34" d="M381.16 229.73H374.37V236.439H381.16V229.73Z" fill="#FFFFFA"/>
<path d="M331.701 149.436H379.195V32.6807H383.123V149.436H511.41V32.6807H515.337V149.436H567.736V153.366H515.337V268.841H511.41V153.366H383.123V268.841H379.195V153.366H331.701V149.436Z" fill="white"/>
<path d="M577.139 268.557H322.298V276.41H577.139V268.557Z" fill="#F4F4F4"/>
<path opacity="0.1" d="M577.139 268.557H322.298V276.41H577.139V268.557Z" fill="#292A2E"/>
<path opacity="0.1" d="M322.298 268.557H318.618V276.41H322.298V268.557Z" fill="#292A2E"/>
<path opacity="0.1" d="M322.298 268.557H318.618V276.41H322.298V268.557Z" fill="#292A2E"/>
<path d="M527.261 309.014C491.126 309.014 461.832 318.877 461.832 331.045V357.272H592.691V331.045C592.691 318.877 563.397 309.014 527.261 309.014Z" fill="#FEB062"/>
<path opacity="0.49" d="M527.261 309.014C491.126 309.014 461.832 318.877 461.832 331.045V357.272H592.691V331.045C592.691 318.877 563.397 309.014 527.261 309.014Z" fill="white"/>
<path opacity="0.49" d="M574.867 331.048V357.271H461.83V331.048C461.83 319.895 486.432 310.68 518.348 309.224C550.268 310.68 574.867 319.895 574.867 331.048Z" fill="white"/>
<path d="M592.691 612.118H594.887L592.691 354.946L590.514 357.143L592.066 536.785L514.549 538.103L512.985 357.125L510.808 357.143L512.373 538.14L465.578 538.936L464.007 357.125L461.83 354.965L464.026 612.118L466.184 612.1L465.597 541.115L512.391 540.319L512.985 612.118L515.162 612.1L514.568 540.282L592.085 538.964L592.691 612.118Z" fill="#292A2E"/>
<path d="M395.333 573.615C395.333 573.615 391.441 593.796 372.556 594.921C353.67 596.045 357.765 611.098 357.765 611.098H429.935V575.022L395.333 573.615Z" fill="#FEB062"/>
<path d="M436.508 512.915C436.508 512.915 441.92 532.742 425.471 542.092C409.021 551.442 419.337 563.14 419.337 563.14L484.094 531.264L468.178 498.894L436.508 512.915Z" fill="#FEB062"/>
<path d="M429.657 526.019L380.862 341.813C377.161 321.463 382.733 312.642 391.319 304.073C406.404 289.019 468.911 256.977 468.911 256.977L543.9 256.772C563.785 256.772 583.331 276.39 583.331 296.284C583.331 316.178 563.118 333.05 543.234 333.05L450.891 342.271L475.922 510.936L429.657 526.019Z" fill="#262626"/>
<path d="M475.922 510.934L466.068 444.533L416.144 475.004L429.657 526.019L475.922 510.934Z" fill="#0C0C0C"/>
<path d="M487.238 294.254C487.238 294.254 455.715 301.283 424.494 332.52C405.565 351.459 407.117 385.732 409.957 451.651L440.965 405.826L474.975 344.453L487.238 294.254Z" fill="#0C0C0C"/>
<path d="M596.385 256.752L545.458 256.512L545.439 257.183H530.018C530.018 257.183 491.39 292.745 460.292 315.155C437.671 331.454 423.872 346.994 422.678 363.932C419.767 405.219 386.937 581.304 386.937 581.304L436.345 588.79L479.705 378.354C479.705 378.354 547.503 347.08 563.185 336.199C577.952 325.952 588.383 321.99 593.27 310.807C601.709 291.491 596.385 256.752 596.385 256.752Z" fill="#262626"/>
<path d="M539.25 269.586L456.634 270.681L502.978 298.375L541.54 278.451C542.469 277.952 543.204 277.155 543.627 276.189C544.05 275.222 544.136 274.142 543.872 273.12C543.608 272.098 543.01 271.195 542.172 270.554C541.334 269.913 540.305 269.573 539.25 269.586V269.586Z" fill="#292A2E"/>
<path opacity="0.2" d="M539.25 269.586L456.634 270.681L502.978 298.375L541.54 278.451C542.469 277.952 543.204 277.155 543.627 276.189C544.05 275.222 544.136 274.142 543.872 273.12C543.608 272.098 543.01 271.195 542.172 270.554C541.334 269.913 540.305 269.573 539.25 269.586V269.586Z" fill="white"/>
<path d="M457.107 121.293L433.738 197.049L386.933 258.363L414.274 289.766L469.959 227.582C472.524 225.554 474.531 222.905 475.79 219.886L476.657 217.785L508.821 139.921L457.107 121.293Z" fill="#FEB062"/>
<path d="M493.106 40.8802C493.106 40.8802 483.689 33.7643 481.357 17.3978C479.55 4.72498 491.234 12.9351 491.234 12.9351C491.234 12.9351 490.022 3.79701 496.677 4.70392C503.332 5.61084 507.055 15.21 507.055 15.21" fill="#0C0C0C"/>
<path d="M531.068 5.77344C531.068 5.77344 564.085 9.31467 552.149 54.0779L549.228 54.2739L543.298 54.6718" fill="#0C0C0C"/>
<path d="M498.636 100.826C498.781 100.807 500.392 127.547 531.439 125.218C552.935 123.607 560.6 100.788 561.092 100.788C558.774 100.295 555.91 99.5474 554.772 99.2911C552.291 98.7151 550.044 97.3969 548.331 95.512C546.617 93.6271 545.517 91.2647 545.178 88.7392C544.549 84.949 545.613 65.556 545.288 61.7207L512.295 69.0893C512.756 77.1897 515.983 95.9677 504.674 99.2911C502.791 99.84 500.764 100.348 498.636 100.826Z" fill="#E98862"/>
<path opacity="0.52" d="M511.832 91.6166C512.349 89.9499 512.682 88.2316 512.825 86.4925C513.187 82.5239 513.114 78.5275 512.607 74.5748C519.314 73.6706 525.633 70.9021 530.845 66.584C531.459 68.848 534.828 78.7405 533.893 80.8883C532.131 84.9546 523.844 91.6166 511.832 91.6166Z" fill="#0C0C0C"/>
<path d="M518.643 86.3242C531.66 85.1559 547.241 76.9269 547.466 59.2468L547.668 43.2942C547.893 25.6149 538.794 11.1646 522.157 10.9525C505.519 10.7412 492.901 24.9149 492.676 42.5949L492.587 49.6571C492.598 52.0825 492.775 54.5044 493.115 56.9058C493.969 63.2593 495.292 72.9187 499.602 79.453C503.671 85.622 510.326 87.0699 518.643 86.3242Z" fill="#E98862"/>
<path opacity="0.52" d="M512.603 70.1636C509.916 70.2854 507.239 69.7738 504.786 68.67C504.686 68.6247 504.608 68.542 504.568 68.4396C504.528 68.3371 504.53 68.2232 504.573 68.122C504.616 68.0209 504.697 67.9407 504.798 67.8986C504.9 67.8564 505.014 67.8558 505.116 67.8967C510.4 70.1513 515.197 69.8216 518.99 66.9426C519.066 66.882 519.146 66.8256 519.228 66.7734C519.324 66.7285 519.432 66.7211 519.533 66.7527C519.633 66.7843 519.718 66.8526 519.771 66.944C519.824 67.0354 519.84 67.1432 519.817 67.2461C519.794 67.349 519.733 67.4395 519.646 67.4995C519.616 67.5184 519.566 67.5569 519.501 67.6091C517.507 69.1288 515.105 70.0183 512.603 70.1636V70.1636Z" fill="#0C0C0C"/>
<path opacity="0.52" d="M512.726 74.1467C512.24 74.1766 511.753 74.165 511.27 74.1118C511.215 74.106 511.162 74.0895 511.114 74.0631C511.065 74.0368 511.022 74.0011 510.988 73.9582C510.953 73.9154 510.927 73.8661 510.912 73.8132C510.896 73.7603 510.891 73.7049 510.897 73.65C510.903 73.5952 510.919 73.5421 510.946 73.4936C510.972 73.4452 511.008 73.4024 511.05 73.3678C511.093 73.3331 511.143 73.3073 511.195 73.2916C511.248 73.276 511.304 73.271 511.358 73.2768C514.266 73.5854 515.654 72.253 515.713 72.1956C515.791 72.1168 515.898 72.0724 516.009 72.0723C516.121 72.0721 516.228 72.1162 516.306 72.1949C516.385 72.2736 516.43 72.3804 516.43 72.4917C516.43 72.6031 516.386 72.71 516.307 72.7889C515.306 73.6419 514.04 74.1217 512.726 74.1467Z" fill="#0C0C0C"/>
<path d="M498.171 53.0571C499.302 53.0571 500.22 52.1391 500.22 51.0066C500.22 49.8741 499.302 48.9561 498.171 48.9561C497.039 48.9561 496.121 49.8741 496.121 51.0066C496.121 52.1391 497.039 53.0571 498.171 53.0571Z" fill="#0C0C0C"/>
<path d="M518.193 51.8003C519.325 51.8003 520.242 50.8822 520.242 49.7498C520.242 48.6173 519.325 47.6992 518.193 47.6992C517.061 47.6992 516.144 48.6173 516.144 49.7498C516.144 50.8822 517.061 51.8003 518.193 51.8003Z" fill="#0C0C0C"/>
<path d="M546.363 64.6237C551.419 64.6883 555.586 59.3282 555.653 54.2694C555.719 49.2106 551.653 46.3686 546.597 46.3047L543.949 49.6608L542.018 64.5685L546.363 64.6237Z" fill="#E98862"/>
<path d="M541.333 56.491C541.333 56.491 539.626 31.4743 532.044 29.9292C526.994 28.9003 514.749 36.067 503.407 33.9024C498.445 32.9585 493.734 34.1842 493.255 36.5295C493.065 37.4582 489.974 24.113 497.744 13.9881C503.931 5.92832 524.177 3.64834 533.388 6.29138C558.893 13.612 547.638 47.4015 547.638 47.4015L546.501 56.0263L541.333 56.491Z" fill="#0C0C0C"/>
<g opacity="0.52">
<path d="M509.546 64.2602C509.535 64.2609 509.525 64.2609 509.514 64.2602C507.885 64.2442 505.153 64.0344 505.164 62.8153C505.176 61.8045 508.05 50.9252 508.378 49.6879C508.406 49.5814 508.475 49.4905 508.57 49.4351C508.666 49.3798 508.779 49.3645 508.885 49.3928C508.992 49.421 509.083 49.4903 509.138 49.5856C509.193 49.6808 509.208 49.7942 509.18 49.9007C507.903 54.7191 506.002 62.1371 505.994 62.8254C506.152 63.1159 507.835 63.415 509.521 63.4325C509.628 63.4347 509.729 63.4778 509.805 63.5528C509.88 63.6278 509.924 63.7289 509.927 63.8353C509.931 63.9418 509.893 64.0454 509.822 64.1247C509.751 64.204 509.652 64.2531 509.546 64.2617V64.2602Z" fill="#0C0C0C"/>
</g>
<path d="M503.987 39.8879C502.274 39.4163 500.466 39.4163 498.754 39.8879C497.913 40.1142 497.111 40.4657 496.374 40.9305C495.645 41.3858 494.977 41.9313 494.386 42.5541C494.276 42.6651 494.214 42.8138 494.212 42.9695C494.21 43.1251 494.267 43.2757 494.373 43.3898C494.479 43.5039 494.625 43.5728 494.78 43.5821C494.935 43.5915 495.088 43.5406 495.207 43.44L495.244 43.408C495.792 42.9003 496.401 42.4638 497.058 42.109C497.703 41.7558 498.397 41.5022 499.117 41.3568C500.535 41.0593 502.006 41.1417 503.382 41.5957L503.44 41.616C503.665 41.6886 503.91 41.6705 504.122 41.5655C504.334 41.4605 504.496 41.2769 504.575 41.0537C504.654 40.8305 504.643 40.5853 504.544 40.3703C504.445 40.1553 504.266 39.9874 504.045 39.9024L503.987 39.8879Z" fill="#0C0C0C"/>
<path d="M516.112 40.9167C517.415 40.2833 518.863 40.0055 520.307 40.1115C521.041 40.1591 521.762 40.3177 522.448 40.582C523.145 40.8467 523.807 41.198 524.417 41.6276L524.456 41.6537C524.587 41.7382 524.745 41.7687 524.898 41.7391C525.051 41.7094 525.187 41.6218 525.277 41.4945C525.367 41.3672 525.404 41.2101 525.381 41.0559C525.358 40.9017 525.276 40.7623 525.153 40.6669C524.484 40.1285 523.749 39.677 522.967 39.3229C522.174 38.9605 521.332 38.7191 520.469 38.607C518.709 38.367 516.917 38.6071 515.283 39.3018C515.173 39.3495 515.074 39.4183 514.991 39.5043C514.908 39.5903 514.843 39.6919 514.799 39.8031C514.755 39.9144 514.733 40.0332 514.735 40.1527C514.738 40.2723 514.763 40.3903 514.811 40.4999C514.907 40.7214 515.087 40.8955 515.312 40.984C515.423 41.0279 515.542 41.0493 515.661 41.0473C515.781 41.0452 515.899 41.0196 516.008 40.9719L516.059 40.9479L516.112 40.9167Z" fill="#0C0C0C"/>
<path d="M515.282 14.102C516.433 8.59071 514.332 3.48868 510.59 2.70635C506.847 1.92402 502.88 5.75765 501.729 11.269C500.578 16.7803 502.679 21.8822 506.422 22.6646C510.164 23.4469 514.131 19.6133 515.282 14.102Z" fill="#0C0C0C"/>
<path d="M460.057 159.598C461.035 171.094 467.967 242.818 468.911 256.978H596.329C597.062 244.207 600.349 188.361 603.125 163.383C605.776 139.55 609.49 128.705 606.437 121.3C601.054 108.237 583.918 102.404 572.314 100.832C565.228 99.8722 554.571 99.1846 554.571 99.1846C554.571 99.1846 553.669 117.448 532.153 118.465C502.862 119.845 504.819 99.1846 504.674 99.1846C499.928 99.1846 474.1 102.637 467.642 106.849C458.52 112.797 455.824 120.904 455.717 128.352C455.595 136.929 458.95 146.558 460.057 159.598Z" fill="#FEB062"/>
<path d="M466.518 228.714C466.427 228.714 466.339 228.681 466.272 228.619C466.205 228.558 466.163 228.474 466.155 228.383L461.328 173.141C461.319 173.045 461.349 172.949 461.411 172.875C461.473 172.802 461.561 172.755 461.657 172.747C461.705 172.742 461.753 172.747 461.799 172.761C461.844 172.775 461.887 172.798 461.924 172.829C461.96 172.86 461.99 172.898 462.012 172.94C462.034 172.983 462.047 173.03 462.05 173.077L466.878 228.32C466.886 228.416 466.856 228.511 466.794 228.584C466.733 228.658 466.644 228.704 466.548 228.713C466.538 228.714 466.528 228.714 466.518 228.714V228.714Z" fill="#0C0C0C"/>
<path d="M475.758 260.802L493.254 246.6L490.31 247.433C489.354 247.683 488.339 247.56 487.47 247.09C486.601 246.62 485.943 245.837 485.629 244.9C485.483 244.411 485.439 243.898 485.499 243.391C485.558 242.884 485.72 242.394 485.975 241.952C486.23 241.51 486.572 241.125 486.981 240.819C487.39 240.514 487.856 240.295 488.352 240.176L525.107 231.231L528.27 242.945C529.253 246.583 529.127 250.432 527.909 253.998C526.692 257.564 524.437 260.684 521.435 262.96L507.816 273.243C507.119 273.791 506.255 274.08 505.369 274.063C504.483 274.046 503.63 273.724 502.954 273.15C502.354 272.619 501.94 271.91 501.772 271.126C501.604 270.342 501.691 269.525 502.02 268.794C501.961 268.776 501.908 268.743 501.866 268.698C501.829 268.654 501.804 268.602 501.793 268.545C501.781 268.489 501.784 268.431 501.8 268.376L499.291 270.277C498.516 270.89 497.537 271.185 496.553 271.103C495.568 271.022 494.652 270.569 493.988 269.837C493.418 269.162 493.104 268.307 493.102 267.423C493.099 266.54 493.408 265.683 493.975 265.005C493.935 264.999 493.897 264.986 493.862 264.966L492.831 265.748C492.134 266.295 491.27 266.585 490.384 266.568C489.498 266.551 488.645 266.228 487.969 265.655C487.242 265.01 486.792 264.109 486.714 263.14C486.637 262.171 486.937 261.209 487.553 260.457C487.538 260.436 487.526 260.413 487.516 260.389L480.23 266.303C479.869 266.596 479.453 266.816 479.008 266.948C478.562 267.081 478.094 267.124 477.632 267.076C477.169 267.028 476.72 266.889 476.311 266.667C475.903 266.445 475.541 266.145 475.248 265.784C474.955 265.422 474.736 265.007 474.604 264.561C474.471 264.115 474.428 263.647 474.476 263.184C474.524 262.721 474.663 262.272 474.885 261.863C475.106 261.454 475.406 261.093 475.767 260.799L475.758 260.802Z" fill="#E98862"/>
<path opacity="0.2" d="M487.952 260.6C487.991 260.587 488.027 260.566 488.058 260.54L495.069 254.713C495.104 254.683 495.134 254.647 495.155 254.606C495.177 254.565 495.19 254.52 495.194 254.474C495.198 254.428 495.194 254.381 495.18 254.337C495.166 254.293 495.144 254.252 495.114 254.216C495.084 254.18 495.048 254.151 495.007 254.129C494.966 254.108 494.921 254.095 494.875 254.09C494.829 254.086 494.782 254.091 494.738 254.105C494.694 254.119 494.653 254.141 494.617 254.171L487.608 259.997C487.544 260.05 487.501 260.124 487.486 260.205C487.471 260.287 487.486 260.371 487.527 260.443C487.568 260.515 487.633 260.57 487.711 260.599C487.789 260.628 487.874 260.628 487.952 260.6Z" fill="#0A0A0A"/>
<path opacity="0.2" d="M494.13 265.001C494.168 264.988 494.203 264.968 494.234 264.942L499.779 260.406C499.851 260.346 499.897 260.261 499.907 260.168C499.916 260.075 499.888 259.981 499.829 259.909C499.77 259.836 499.684 259.79 499.591 259.781C499.498 259.772 499.405 259.8 499.333 259.859L493.787 264.396C493.723 264.448 493.679 264.522 493.663 264.604C493.648 264.686 493.662 264.771 493.703 264.843C493.744 264.916 493.809 264.971 493.888 265C493.966 265.029 494.051 265.03 494.13 265.001V265.001Z" fill="#0A0A0A"/>
<path opacity="0.2" d="M502.246 268.805C502.287 268.791 502.324 268.769 502.357 268.741L504.925 266.537C504.961 266.507 504.989 266.47 505.01 266.429C505.031 266.388 505.044 266.343 505.047 266.296C505.051 266.25 505.045 266.204 505.031 266.16C505.017 266.116 504.994 266.075 504.964 266.04C504.933 266.005 504.897 265.976 504.855 265.955C504.814 265.934 504.769 265.922 504.723 265.918C504.677 265.914 504.631 265.92 504.587 265.934C504.543 265.949 504.502 265.972 504.467 266.002L501.898 268.206C501.835 268.259 501.794 268.333 501.78 268.414C501.767 268.496 501.782 268.579 501.823 268.65C501.864 268.721 501.929 268.776 502.007 268.804C502.084 268.832 502.169 268.833 502.246 268.805V268.805Z" fill="#0A0A0A"/>
<path d="M630.389 226.016L630.255 225.42L606.998 122.5L560.987 132.907L579.139 213.243L506.423 231.12L515.372 272.173L612.275 253.68C612.493 253.638 612.816 253.572 613.036 253.522C615.981 252.856 618.765 251.616 621.231 249.874C623.697 248.131 625.795 245.919 627.407 243.365C629.018 240.811 630.111 237.964 630.622 234.988C631.134 232.011 631.055 228.962 630.389 226.016V226.016Z" fill="#FEB062"/>
<path d="M506.066 231.198C506.047 231.106 506.064 231.01 506.114 230.93C506.164 230.851 506.243 230.794 506.335 230.771L578.727 212.981L566.957 160.966C566.944 160.918 566.94 160.869 566.947 160.82C566.953 160.771 566.969 160.724 566.995 160.682C567.02 160.64 567.053 160.603 567.093 160.574C567.133 160.545 567.178 160.525 567.226 160.514C567.274 160.503 567.324 160.502 567.372 160.511C567.42 160.52 567.466 160.538 567.507 160.566C567.548 160.593 567.583 160.628 567.61 160.669C567.637 160.711 567.655 160.757 567.664 160.805L579.513 213.169C579.535 213.262 579.519 213.36 579.469 213.442C579.419 213.523 579.339 213.582 579.246 213.604L506.849 231.394C506.849 231.394 507.333 233.511 507.471 234.226C507.481 234.319 507.455 234.412 507.397 234.486C507.339 234.559 507.254 234.607 507.161 234.617C507.068 234.628 506.974 234.601 506.901 234.543C506.828 234.485 506.78 234.4 506.77 234.307C506.603 233.524 506.066 231.198 506.066 231.198Z" fill="#0C0C0C"/>
<path d="M508.905 288.525L480.946 202.537C480.455 201.026 479.498 199.709 478.213 198.775C476.928 197.842 475.381 197.339 473.793 197.339H359.888C358.7 197.339 357.53 197.62 356.472 198.159C355.414 198.699 354.499 199.481 353.801 200.442C353.103 201.404 352.643 202.516 352.458 203.69C352.272 204.863 352.367 206.064 352.734 207.194L380.694 293.182C381.185 294.693 382.142 296.009 383.427 296.943C384.712 297.877 386.259 298.38 387.847 298.38H501.751C502.939 298.38 504.109 298.099 505.167 297.559C506.225 297.02 507.14 296.237 507.838 295.276C508.535 294.315 508.996 293.202 509.181 292.029C509.367 290.856 509.272 289.655 508.905 288.525V288.525Z" fill="#292A2E"/>
<path opacity="0.2" d="M508.905 288.525L480.946 202.537C480.455 201.026 479.498 199.709 478.213 198.775C476.928 197.842 475.381 197.339 473.793 197.339H359.888C358.7 197.339 357.53 197.62 356.472 198.159C355.414 198.699 354.499 199.481 353.801 200.442C353.103 201.404 352.643 202.516 352.458 203.69C352.272 204.863 352.367 206.064 352.734 207.194L380.694 293.182C381.185 294.693 382.142 296.009 383.427 296.943C384.712 297.877 386.259 298.38 387.847 298.38H501.751C502.939 298.38 504.109 298.099 505.167 297.559C506.225 297.02 507.14 296.237 507.838 295.276C508.535 294.315 508.996 293.202 509.181 292.029C509.367 290.856 509.272 289.655 508.905 288.525V288.525Z" fill="white"/>
<path d="M427.539 259.812C434.137 259.812 439.485 254.461 439.485 247.86C439.485 241.259 434.137 235.907 427.539 235.907C420.941 235.907 415.593 241.259 415.593 247.86C415.593 254.461 420.941 259.812 427.539 259.812Z" fill="white"/>
<path d="M315.079 9.08691H89.0059C78.5324 9.08691 70.042 17.5819 70.042 28.0609V302.654C70.042 313.133 78.5324 321.628 89.0059 321.628H315.079C325.553 321.628 334.043 313.133 334.043 302.654V28.0609C334.043 17.5819 325.553 9.08691 315.079 9.08691Z" fill="#292A2E"/>
<path d="M323.434 0.726562H97.3604C86.8869 0.726562 78.3965 9.2215 78.3965 19.7005V294.293C78.3965 304.773 86.8869 313.267 97.3604 313.267H323.434C333.907 313.267 342.397 304.773 342.397 294.293V19.7005C342.397 9.2215 333.907 0.726562 323.434 0.726562Z" fill="white"/>
<path d="M323.434 313.993H97.3606C92.1402 313.987 87.1353 311.91 83.444 308.216C79.7527 304.523 77.6765 299.515 77.6709 294.292V19.7001C77.6767 14.4771 79.753 9.46962 83.4442 5.77639C87.1355 2.08316 92.1403 0.00576577 97.3606 0L323.434 0C328.654 0.00595793 333.658 2.08343 337.35 5.77665C341.041 9.46986 343.117 14.4772 343.123 19.7001V294.292C343.117 299.515 341.041 304.523 337.35 308.216C333.659 311.91 328.654 313.987 323.434 313.993V313.993ZM97.3606 1.45222C92.5251 1.4576 87.8893 3.38187 84.4701 6.80284C81.051 10.2238 79.1277 14.8621 79.1224 19.7001V294.292C79.1277 299.13 81.051 303.769 84.4701 307.19C87.8893 310.61 92.5251 312.535 97.3606 312.54H323.434C328.269 312.535 332.905 310.61 336.324 307.189C339.743 303.768 341.666 299.13 341.671 294.292V19.7001C341.666 14.8622 339.743 10.2239 336.324 6.80288C332.905 3.38189 328.269 1.4576 323.434 1.45222H97.3606Z" fill="#292A2E"/>
<path d="M75.3525 352.558C101.356 352.558 122.435 331.468 122.435 305.451C122.435 279.434 101.356 258.343 75.3525 258.343C49.3493 258.343 28.2695 279.434 28.2695 305.451C28.2695 331.468 49.3493 352.558 75.3525 352.558Z" fill="#292A2E"/>
<path d="M65.5788 299.302C64.9589 299.302 64.3645 299.056 63.9261 298.618C63.4878 298.179 63.2414 297.584 63.2412 296.964V285.644C63.2412 279.384 68.6747 274.29 75.3529 274.29C82.031 274.29 87.4645 279.384 87.4645 285.644V296.187C87.47 296.498 87.4136 296.806 87.2986 297.095C87.1836 297.383 87.0123 297.646 86.7947 297.868C86.5771 298.089 86.3176 298.265 86.0313 298.385C85.7451 298.505 85.4377 298.567 85.1273 298.567C84.8169 298.567 84.5095 298.505 84.2232 298.385C83.937 298.265 83.6775 298.089 83.4599 297.868C83.2423 297.646 83.071 297.383 82.956 297.095C82.841 296.806 82.7846 296.498 82.7901 296.187V285.644C82.7901 281.962 79.4518 278.967 75.3529 278.967C71.254 278.967 67.9156 281.962 67.9156 285.644V296.966C67.9152 297.586 67.6689 298.18 67.2307 298.618C66.7925 299.056 66.1983 299.302 65.5788 299.302V299.302Z" fill="white"/>
<path d="M90.2634 295.008H60.4419C58.7028 295.008 57.293 296.418 57.293 298.158V326.263C57.293 328.003 58.7028 329.414 60.4419 329.414H90.2634C92.0025 329.414 93.4124 328.003 93.4124 326.263V298.158C93.4124 296.418 92.0025 295.008 90.2634 295.008Z" fill="white"/>
<path d="M72.3835 309.427C72.3832 309.985 72.5396 310.531 72.8347 311.004C73.1299 311.477 73.5519 311.857 74.0527 312.101V316.665C74.0527 317.009 74.1892 317.339 74.4323 317.582C74.6754 317.826 75.0051 317.962 75.3488 317.962C75.6926 317.962 76.0223 317.826 76.2653 317.582C76.5084 317.339 76.645 317.009 76.645 316.665V312.101C77.1219 311.869 77.5282 311.514 77.8216 311.073C78.115 310.631 78.2849 310.118 78.3135 309.589C78.342 309.059 78.2284 308.531 77.9842 308.061C77.7401 307.59 77.3744 307.193 76.9251 306.911C76.4758 306.63 75.9594 306.474 75.4294 306.459C74.8995 306.445 74.3753 306.573 73.9114 306.829C73.4476 307.086 73.0609 307.463 72.7915 307.919C72.5222 308.376 72.3801 308.897 72.3799 309.427H72.3835Z" fill="#292A2E"/>
<path d="M303.693 156.675H117.104C112.65 156.675 109.039 160.288 109.039 164.744V190.916C109.039 195.372 112.65 198.985 117.104 198.985H303.693C308.148 198.985 311.758 195.372 311.758 190.916V164.744C311.758 160.288 308.148 156.675 303.693 156.675Z" fill="white"/>
<path d="M303.693 199.711H117.104C114.774 199.708 112.539 198.781 110.891 197.132C109.243 195.483 108.316 193.247 108.313 190.915V164.744C108.316 162.412 109.243 160.177 110.891 158.528C112.539 156.879 114.774 155.951 117.104 155.948H303.693C306.024 155.951 308.258 156.879 309.906 158.528C311.554 160.177 312.481 162.412 312.484 164.744V190.915C312.481 193.247 311.554 195.483 309.906 197.132C308.258 198.781 306.023 199.708 303.693 199.711ZM117.104 157.4C115.158 157.403 113.293 158.177 111.917 159.554C110.541 160.931 109.767 162.797 109.765 164.744V190.915C109.767 192.862 110.541 194.729 111.917 196.106C113.293 197.482 115.158 198.257 117.104 198.259H303.693C305.639 198.257 307.504 197.482 308.88 196.106C310.256 194.729 311.03 192.862 311.033 190.915V164.744C311.031 162.797 310.257 160.931 308.881 159.554C307.505 158.177 305.639 157.403 303.693 157.4H117.104Z" fill="#292A2E"/>
<path d="M303.693 217.141H117.104C112.65 217.141 109.039 220.753 109.039 225.21V251.382C109.039 255.838 112.65 259.451 117.104 259.451H303.693C308.148 259.451 311.758 255.838 311.758 251.382V225.21C311.758 220.753 308.148 217.141 303.693 217.141Z" fill="white"/>
<path d="M303.693 260.176H117.104C114.773 260.173 112.538 259.245 110.89 257.596C109.242 255.947 108.316 253.711 108.313 251.378V225.209C108.316 222.878 109.243 220.642 110.891 218.993C112.539 217.344 114.774 216.417 117.104 216.414H303.693C306.023 216.417 308.258 217.344 309.906 218.993C311.554 220.642 312.481 222.877 312.484 225.209V251.378C312.482 253.711 311.555 255.947 309.907 257.596C308.259 259.246 306.024 260.173 303.693 260.176ZM117.104 217.866C115.158 217.868 113.293 218.643 111.917 220.019C110.541 221.396 109.767 223.263 109.765 225.209V251.378C109.767 253.325 110.541 255.192 111.917 256.568C113.293 257.945 115.158 258.719 117.104 258.722H303.693C305.639 258.72 307.504 257.945 308.881 256.569C310.257 255.192 311.031 253.325 311.033 251.378V225.209C311.031 223.262 310.257 221.396 308.881 220.019C307.504 218.642 305.639 217.868 303.693 217.866H117.104Z" fill="#292A2E"/>
<path d="M210.398 125.203C234.323 125.203 253.719 105.798 253.719 81.859C253.719 57.9206 234.323 38.5146 210.398 38.5146C186.472 38.5146 167.076 57.9206 167.076 81.859C167.076 105.798 186.472 125.203 210.398 125.203Z" fill="white"/>
<path d="M210.398 125.929C201.686 125.929 193.17 123.344 185.926 118.502C178.683 113.659 173.037 106.776 169.703 98.7237C166.37 90.6708 165.497 81.8097 167.197 73.2609C168.897 64.712 173.092 56.8594 179.252 50.6961C185.412 44.5327 193.26 40.3354 201.805 38.6349C210.349 36.9344 219.205 37.8072 227.254 41.1428C235.303 44.4784 242.182 50.127 247.022 57.3743C251.862 64.6217 254.445 73.1423 254.445 81.8586C254.432 93.5428 249.787 104.745 241.529 113.007C233.272 121.269 222.076 125.916 210.398 125.929V125.929ZM210.398 39.2403C201.973 39.2403 193.738 41.7398 186.733 46.4228C179.728 51.1058 174.268 57.7618 171.044 65.5493C167.82 73.3368 166.977 81.9059 168.621 90.173C170.264 98.4402 174.321 106.034 180.278 111.994C186.235 117.955 193.825 122.014 202.088 123.658C210.351 125.302 218.915 124.458 226.699 121.233C234.482 118.007 241.134 112.545 245.815 105.536C250.495 98.5275 252.994 90.2877 252.994 81.8586C252.981 70.5594 248.489 59.7267 240.504 51.7369C232.518 43.7472 221.691 39.253 210.398 39.2403V39.2403Z" fill="#292A2E"/>
<path opacity="0.5" d="M252.757 81.8582C252.769 91.8906 249.211 101.6 242.72 109.246C238.722 104.583 233.763 100.84 228.184 98.2741C222.604 95.7083 216.536 94.3805 210.395 94.3816C204.254 94.3827 198.187 95.7127 192.608 98.2805C187.029 100.848 182.072 104.593 178.075 109.258C173.668 104.053 170.581 97.8601 169.077 91.2059C167.573 84.5517 167.697 77.6327 169.439 71.0367C171.18 64.4407 174.486 58.3627 179.078 53.3191C183.669 48.2755 189.41 44.4153 195.812 42.0666C202.213 39.7179 209.087 38.95 215.849 39.8283C222.611 40.7065 229.061 43.2049 234.651 47.1111C240.241 51.0173 244.806 56.216 247.958 62.2653C251.111 68.3147 252.757 75.036 252.757 81.8582V81.8582Z" fill="#FEB062"/>
<path d="M242.72 109.247C238.744 113.944 233.793 117.719 228.212 120.308C222.631 122.897 216.552 124.239 210.4 124.24C204.248 124.241 198.169 122.902 192.587 120.314C187.005 117.727 182.053 113.954 178.075 109.258C182.072 104.593 187.029 100.849 192.608 98.2808C198.186 95.713 204.254 94.3829 210.395 94.3818C216.536 94.3807 222.604 95.7086 228.184 98.2744C233.763 100.84 238.722 104.583 242.72 109.247V109.247Z" fill="white"/>
<path d="M210.398 86.4741C219.855 86.4741 227.52 78.8043 227.52 69.343C227.52 59.8818 219.855 52.2119 210.398 52.2119C200.942 52.2119 193.276 59.8818 193.276 69.343C193.276 78.8043 200.942 86.4741 210.398 86.4741Z" fill="white"/>
<g opacity="0.4">
<path d="M124.745 243.449C127.59 243.449 129.895 241.142 129.895 238.296C129.895 235.45 127.59 233.144 124.745 233.144C121.901 233.144 119.596 235.45 119.596 238.296C119.596 241.142 121.901 243.449 124.745 243.449Z" fill="#292A2E"/>
<path d="M140.854 243.449C143.698 243.449 146.004 241.142 146.004 238.296C146.004 235.45 143.698 233.144 140.854 233.144C138.01 233.144 135.704 235.45 135.704 238.296C135.704 241.142 138.01 243.449 140.854 243.449Z" fill="#292A2E"/>
<path d="M156.963 243.449C159.807 243.449 162.113 241.142 162.113 238.296C162.113 235.45 159.807 233.144 156.963 233.144C154.119 233.144 151.813 235.45 151.813 238.296C151.813 241.142 154.119 243.449 156.963 243.449Z" fill="#292A2E"/>
<path d="M173.073 243.449C175.917 243.449 178.222 241.142 178.222 238.296C178.222 235.45 175.917 233.144 173.073 233.144C170.228 233.144 167.923 235.45 167.923 238.296C167.923 241.142 170.228 243.449 173.073 243.449Z" fill="#292A2E"/>
<path d="M189.181 243.449C192.025 243.449 194.331 241.142 194.331 238.296C194.331 235.45 192.025 233.144 189.181 233.144C186.337 233.144 184.031 235.45 184.031 238.296C184.031 241.142 186.337 243.449 189.181 243.449Z" fill="#292A2E"/>
<path d="M205.289 243.449C208.134 243.449 210.439 241.142 210.439 238.296C210.439 235.45 208.134 233.144 205.289 233.144C202.445 233.144 200.14 235.45 200.14 238.296C200.14 241.142 202.445 243.449 205.289 243.449Z" fill="#292A2E"/>
<path d="M221.398 243.449C224.242 243.449 226.548 241.142 226.548 238.296C226.548 235.45 224.242 233.144 221.398 233.144C218.554 233.144 216.248 235.45 216.248 238.296C216.248 241.142 218.554 243.449 221.398 243.449Z" fill="#292A2E"/>
</g>
<g opacity="0.3">
<path d="M129.853 177.519V179.261H123.239V177.519H129.853Z" fill="black"/>
<path d="M138.072 177.519V179.261H131.458V177.519H138.072Z" fill="black"/>
<path d="M146.29 177.519V179.261H139.677V177.519H146.29Z" fill="black"/>
<path d="M154.508 177.519V179.261H147.895V177.519H154.508Z" fill="black"/>
<path d="M162.728 177.519V179.261H156.113V177.519H162.728Z" fill="black"/>
<path d="M177.559 187.351C176.088 188.107 174.449 188.477 172.796 188.425C168.405 188.425 164.683 185.21 164.683 180.066C164.683 174.547 168.512 169.778 174.456 169.778C179.115 169.778 182.248 173.046 182.248 177.521C182.248 181.54 179.998 183.897 177.482 183.897C176.411 183.897 175.42 183.171 175.5 181.54H175.393C175.047 182.246 174.51 182.841 173.843 183.258C173.176 183.674 172.405 183.896 171.619 183.897C170.066 183.897 168.727 182.638 168.727 180.522C168.724 179.687 168.886 178.86 169.204 178.088C169.522 177.317 169.989 176.615 170.579 176.025C171.169 175.435 171.87 174.967 172.641 174.649C173.413 174.331 174.239 174.169 175.074 174.172C176.057 174.158 177.033 174.349 177.939 174.735L177.028 179.584C176.627 181.617 176.948 182.561 177.831 182.585C179.197 182.611 180.723 180.789 180.723 177.682C180.723 173.797 178.394 171.011 174.243 171.011C169.879 171.011 166.21 174.467 166.21 179.905C166.21 184.38 169.129 187.139 173.092 187.139C174.497 187.172 175.888 186.849 177.135 186.201L177.559 187.351ZM176.087 175.777C175.652 175.65 175.201 175.587 174.748 175.59C172.391 175.59 170.491 177.813 170.491 180.412C170.491 181.591 171.08 182.445 172.258 182.445C173.811 182.445 175.23 180.463 175.524 178.802L176.087 175.777Z" fill="black"/>
<path d="M190.676 177.519V179.261H184.062V177.519H190.676Z" fill="black"/>
<path d="M198.895 177.519V179.261H192.28V177.519H198.895Z" fill="black"/>
<path d="M207.114 177.519V179.261H200.5V177.519H207.114Z" fill="black"/>
</g>
</svg>
