<svg width="40" height="40" viewBox="0 0 40 40" fill="none" xmlns="http://www.w3.org/2000/svg">
<rect width="40" height="40" rx="10" fill="white"/>
<path d="M25.5349 15.77C25.4649 15.76 25.3949 15.76 25.3249 15.77C23.7749 15.72 22.5449 14.45 22.5449 12.89C22.5449 11.3 23.8349 10 25.4349 10C27.0249 10 28.3249 11.29 28.3249 12.89C28.3149 14.45 27.0849 15.72 25.5349 15.77Z" fill="#25282E"/>
<path d="M28.7955 22.7004C27.6755 23.4504 26.1055 23.7304 24.6555 23.5404C25.0355 22.7204 25.2355 21.8104 25.2455 20.8504C25.2455 19.8504 25.0255 18.9004 24.6055 18.0704C26.0855 17.8704 27.6555 18.1504 28.7855 18.9004C30.3655 19.9404 30.3655 21.6504 28.7955 22.7004Z" fill="#25282E"/>
<path d="M14.445 15.77C14.515 15.76 14.585 15.76 14.655 15.77C16.205 15.72 17.435 14.45 17.435 12.89C17.435 11.29 16.145 10 14.545 10C12.955 10 11.665 11.29 11.665 12.89C11.665 14.45 12.895 15.72 14.445 15.77Z" fill="#25282E"/>
<path d="M14.555 20.8496C14.555 21.8196 14.765 22.7396 15.145 23.5696C13.735 23.7196 12.265 23.4196 11.185 22.7096C9.605 21.6596 9.605 19.9496 11.185 18.8996C12.255 18.1796 13.765 17.8896 15.185 18.0496C14.775 18.8896 14.555 19.8396 14.555 20.8496Z" fill="#25282E"/>
<path d="M20.1247 23.87C20.0447 23.86 19.9547 23.86 19.8647 23.87C18.0247 23.81 16.5547 22.3 16.5547 20.44C16.5647 18.54 18.0947 17 20.0047 17C21.9047 17 23.4447 18.54 23.4447 20.44C23.4347 22.3 21.9747 23.81 20.1247 23.87Z" fill="#25282E"/>
<path d="M16.8747 25.9396C15.3647 26.9496 15.3647 28.6096 16.8747 29.6096C18.5947 30.7596 21.4147 30.7596 23.1347 29.6096C24.6447 28.5996 24.6447 26.9396 23.1347 25.9396C21.4247 24.7896 18.6047 24.7896 16.8747 25.9396Z" fill="#25282E"/>
</svg>
