<svg width="66" height="66" viewBox="0 0 66 66" fill="none" xmlns="http://www.w3.org/2000/svg">
<rect width="66" height="66" rx="24" fill="#CCCCCC"/>
<path fill-rule="evenodd" clip-rule="evenodd" d="M23.9787 16C21.7813 16 20 17.7832 20 19.9828V46.052C20 48.2517 21.7813 50.0348 23.9787 50.0348H42.7872C44.9846 50.0348 46.766 48.2517 46.766 46.052V19.9828C46.766 17.7832 44.9846 16 42.7872 16H23.9787ZM26.8723 20.3449C25.474 20.3449 24.3404 21.4796 24.3404 22.8794C24.3404 24.2792 25.474 25.4139 26.8723 25.4139C28.2707 25.4139 29.4043 24.2792 29.4043 22.8794C29.4043 21.4796 28.2707 20.3449 26.8723 20.3449ZM24.3404 33.0174C24.3404 31.6176 25.474 30.4829 26.8723 30.4829C28.2707 30.4829 29.4043 31.6176 29.4043 33.0174C29.4043 34.4172 28.2707 35.5519 26.8723 35.5519C25.474 35.5519 24.3404 34.4172 24.3404 33.0174ZM26.8723 40.6209C25.474 40.6209 24.3404 41.7557 24.3404 43.1555C24.3404 44.5552 25.474 45.69 26.8723 45.69C28.2707 45.69 29.4043 44.5552 29.4043 43.1555C29.4043 41.7557 28.2707 40.6209 26.8723 40.6209ZM34.1064 21.7932C33.5071 21.7932 33.0213 22.2795 33.0213 22.8794C33.0213 23.4793 33.5071 23.9656 34.1064 23.9656H42.7872C43.3865 23.9656 43.8723 23.4793 43.8723 22.8794C43.8723 22.2795 43.3865 21.7932 42.7872 21.7932H34.1064ZM33.0213 33.0174C33.0213 32.4175 33.5071 31.9312 34.1064 31.9312H42.7872C43.3865 31.9312 43.8723 32.4175 43.8723 33.0174C43.8723 33.6173 43.3865 34.1036 42.7872 34.1036H34.1064C33.5071 34.1036 33.0213 33.6173 33.0213 33.0174ZM34.1064 42.0692C33.5071 42.0692 33.0213 42.5556 33.0213 43.1555C33.0213 43.7553 33.5071 44.2417 34.1064 44.2417H42.7872C43.3865 44.2417 43.8723 43.7553 43.8723 43.1555C43.8723 42.5556 43.3865 42.0692 42.7872 42.0692H34.1064Z" fill="#25282E"/>
</svg>