<svg width="64" height="64" viewBox="0 0 64 64" fill="none" xmlns="http://www.w3.org/2000/svg">
<path d="M32 63.8489C49.6731 63.8489 64 49.5558 64 31.9244C64 14.2931 49.6731 0 32 0C14.3269 0 0 14.2931 0 31.9244C0 49.5558 14.3269 63.8489 32 63.8489Z" fill="#0CBC8B"/>
<path d="M26.5132 49.1187C25.9068 49.1187 25.3233 48.8874 24.8823 48.4721L12.7268 37.0299C12.2685 36.5984 12.0007 36.0029 11.9824 35.3745C11.9642 34.746 12.1969 34.136 12.6295 33.6787C13.062 33.2214 13.6589 32.9543 14.2888 32.9361C14.9188 32.9179 15.5302 33.15 15.9886 33.5815L26.3816 43.3654L47.8826 19.7278C48.3061 19.2622 48.8976 18.9835 49.527 18.953C50.1564 18.9225 50.7722 19.1427 51.2389 19.5652C51.7056 19.9876 51.985 20.5777 52.0155 21.2057C52.0461 21.8336 51.8253 22.4479 51.4019 22.9135L28.2723 48.3413C28.06 48.5746 27.8032 48.7634 27.5169 48.8966C27.2306 49.0298 26.9205 49.1047 26.6049 49.1168C26.574 49.1178 26.5436 49.1187 26.5132 49.1187Z" fill="white"/>
</svg>
