<svg width="400" height="225" viewBox="0 0 400 225" fill="none" xmlns="http://www.w3.org/2000/svg">
<g clip-path="url(#clip0_593_911)">
<path d="M400 224.058H0C4.383 212.907 12.4771 203.447 23.8873 200.641C40.5785 196.541 58.2423 207.815 74.8964 203.575C84.3582 201.17 91.8071 194.159 99.6345 188.338C129.164 166.374 169.631 159.882 204.574 171.508C222.839 177.582 239.482 188.204 258.192 192.719C282.387 198.561 307.688 193.717 332.569 192.918C356.801 192.142 391.521 201.992 400 224.058Z" fill="#F3F5FD"/>
<path d="M324.02 5.48633H83.9229V178.952H324.02V5.48633Z" fill="#DEE8F5"/>
<path d="M273.555 51.2637H134.388V138.386H273.555V51.2637Z" fill="white"/>
<path d="M134.388 51.2637L203.971 92.2187L273.555 51.2637H134.388Z" fill="#0CBC8B"/>
<path d="M324.02 5.48633H83.9229V19.7755H324.02V5.48633Z" fill="#C1D8ED"/>
<path d="M315.978 16.2161C317.963 16.2161 319.572 14.611 319.572 12.631C319.572 10.651 317.963 9.0459 315.978 9.0459C313.994 9.0459 312.385 10.651 312.385 12.631C312.385 14.611 313.994 16.2161 315.978 16.2161Z" fill="white"/>
<path d="M255.977 152.298C270.354 152.298 282.009 140.671 282.009 126.327C282.009 111.984 270.354 100.356 255.977 100.356C241.599 100.356 229.944 111.984 229.944 126.327C229.944 140.671 241.599 152.298 255.977 152.298Z" fill="#0CBC8B"/>
<path d="M251.513 140.315C251.02 140.315 250.545 140.127 250.186 139.789L240.298 130.481C239.925 130.13 239.707 129.645 239.692 129.134C239.677 128.623 239.867 128.126 240.219 127.754C240.57 127.382 241.056 127.165 241.568 127.15C242.081 127.135 242.578 127.324 242.951 127.675L251.406 135.635L268.897 116.405C269.242 116.026 269.723 115.8 270.235 115.775C270.747 115.75 271.248 115.929 271.628 116.273C272.008 116.616 272.235 117.096 272.26 117.607C272.284 118.118 272.105 118.618 271.76 118.997L252.944 139.682C252.772 139.872 252.563 140.026 252.33 140.134C252.097 140.243 251.845 140.303 251.588 140.313C251.563 140.314 251.538 140.315 251.513 140.315Z" fill="white"/>
<path d="M41.9075 75.0112C41.9075 75.0112 39.0132 70.4241 39.1315 69.1819C39.2498 67.9396 42.8677 66.6832 42.8677 66.6832C42.8677 66.6832 42.3443 65.5844 41.8777 64.3788C41.3396 62.9877 40.8768 61.4536 41.3817 61.3008C41.8684 61.1531 42.6072 62.4162 43.2837 63.8848C44.1531 65.7699 44.9204 67.9913 44.9204 67.9913C44.9204 67.9913 45.0005 65.7973 45.8138 65.9369C46.1482 65.9944 46.2893 66.3908 46.2905 67.9636C46.2905 69.7557 46.5715 72.5502 46.5715 72.5502L41.9075 75.0112Z" fill="#E98862"/>
<path d="M51.0956 95.5755C50.2571 95.5755 49.4376 95.326 48.7421 94.8588C48.0466 94.3916 47.5065 93.728 47.1911 92.953L39.6143 74.3386L47.4231 71.1761L49.717 76.8122L51.5177 67.834L59.7831 69.4842L55.23 92.1959C55.0522 93.0825 54.5927 93.8883 53.9196 94.4936C53.2464 95.099 52.3956 95.4718 51.4933 95.5566C51.3601 95.5694 51.2275 95.5757 51.0956 95.5755Z" fill="#FEB062"/>
<path d="M37.4181 80.4845L42.1042 79.7386C42.2883 79.7093 42.4642 79.6415 42.6202 79.5397C42.7763 79.4379 42.9091 79.3043 43.0098 79.1477C43.1106 78.9912 43.1771 78.8152 43.2049 78.6312C43.2328 78.4473 43.2214 78.2595 43.1715 78.0803L40.2231 67.5235C40.1359 67.2108 39.9363 66.941 39.6624 66.7657C39.3885 66.5905 39.0595 66.5219 38.7382 66.5732L34.0522 67.3191C33.868 67.3484 33.6921 67.4162 33.5361 67.5181C33.38 67.6199 33.2472 67.7534 33.1465 67.91C33.0457 68.0665 32.9792 68.2426 32.9514 68.4265C32.9235 68.6105 32.9349 68.7982 32.9848 68.9775L35.9332 79.5342C36.0205 79.8469 36.2201 80.1166 36.494 80.2919C36.7678 80.4671 37.0968 80.5357 37.4181 80.4845V80.4845Z" fill="#C1D8ED"/>
<path d="M79.8757 175.4C72.8486 173.629 72.157 173.364 71.9297 173.278L74.8336 165.716C74.8108 165.707 74.7811 165.696 74.7447 165.684C75.3161 165.871 78.885 166.798 81.8639 167.548L79.8757 175.4Z" fill="#E98862"/>
<path d="M79.56 185.979C79.4896 186.185 79.3773 186.374 79.2302 186.535C79.0831 186.696 78.9043 186.825 78.705 186.914C78.5057 187.003 78.2901 187.05 78.0718 187.052C77.8535 187.054 77.6371 187.011 77.4362 186.926V186.926C77.1577 186.808 76.9188 186.613 76.7475 186.364C76.5763 186.115 76.48 185.823 76.4697 185.521L76.4751 175.579C76.476 175.387 76.5184 175.197 76.5996 175.023C76.6808 174.848 76.7988 174.693 76.9456 174.569C78.2135 173.626 79.1447 172.303 79.6021 170.793C79.9108 169.601 79.8776 168.347 79.5063 167.173C79.4659 167.067 79.4566 166.952 79.4793 166.841C79.502 166.73 79.5559 166.628 79.6346 166.547C79.7133 166.465 79.8136 166.408 79.9239 166.381C80.0341 166.354 80.1496 166.36 80.257 166.396L84.6377 167.861C84.7668 167.905 84.8862 167.973 84.9888 168.062C85.0915 168.152 85.1754 168.261 85.2359 168.382C85.2963 168.504 85.332 168.637 85.341 168.772C85.35 168.908 85.3321 169.044 85.2883 169.173L79.56 185.979Z" fill="#C1D8ED"/>
<path d="M60.6394 220.689C60.6394 220.689 60.6123 212.302 60.6123 211.56H68.7304C68.7304 212.3 68.7575 220.663 68.7575 220.663L60.6394 220.689Z" fill="#E98862"/>
<path d="M81.9107 104.558C76.702 99.3612 52.5012 106.37 52.5012 106.37L52.4791 106.521L51.9835 106.243C45.8281 118.585 37.1116 137.057 31.081 149.639C30.6203 150.504 30.3426 151.454 30.2654 152.431C30.1881 153.407 30.3129 154.389 30.6318 155.316C30.9508 156.242 31.4573 157.093 32.1197 157.816C32.7822 158.539 33.5866 159.119 34.4829 159.519L60.828 171.212C59.475 186.037 57.9217 200.85 56.6286 215.65L70.8218 217.418C73.401 199.76 76.0533 182.122 78.4214 164.442L78.808 163.575L78.5533 163.462C80.0056 152.57 81.6764 141.69 82.494 130.719C83.1887 121.389 84.713 107.353 81.9107 104.558ZM47.6736 149.757C52.7528 141.311 58.7297 131.358 63.9009 122.91C63.6357 134.003 62.9766 145.088 62.1107 156.165L47.6736 149.757Z" fill="#262626"/>
<path d="M44.964 77.7176L42.2004 81.4585C42.2004 81.4585 34.7719 79.973 34.0753 74.264C33.9949 73.6064 34.0645 71.788 34.8805 72.0322C37.0067 72.6677 39.6524 75.9223 41.508 76.3554C41.0847 75.5992 40.5682 74.5309 40.9011 74.3357C41.7774 73.822 44.1332 76.9216 44.964 77.7176Z" fill="#E98862"/>
<path d="M72.8784 64.4404C72.8784 64.4404 69.7695 63.1083 69.7695 54.9604L63.5205 54.3252C63.5205 54.3252 64.8086 61.5251 61.8838 64.0825L72.8784 64.4404Z" fill="#E98862"/>
<g opacity="0.15">
<path d="M63.0195 62.463L67.8131 58.1436L63.7927 58.4305C63.7889 59.811 63.5266 61.1786 63.0195 62.463V62.463Z" fill="black"/>
</g>
<path d="M73.0038 51.5365C72.7796 54.0268 71.6276 56.4618 69.5215 57.4329C67.2319 58.5636 64.6998 59.1181 62.146 59.0481C55.3624 59.0481 55.4389 43.6532 58.3939 40.4225C61.3489 37.1918 70.8931 38.3041 72.4432 43.1765C73.245 45.6968 73.2179 49.1659 73.0038 51.5365Z" fill="#E98862"/>
<path d="M63.1637 50.4341C63.473 50.4341 63.7238 50.1839 63.7238 49.8752C63.7238 49.5666 63.473 49.3164 63.1637 49.3164C62.8543 49.3164 62.6035 49.5666 62.6035 49.8752C62.6035 50.1839 62.8543 50.4341 63.1637 50.4341Z" fill="#0F1011"/>
<path d="M58.7291 50.4341C59.0385 50.4341 59.2892 50.1839 59.2892 49.8752C59.2892 49.5666 59.0385 49.3164 58.7291 49.3164C58.4197 49.3164 58.1689 49.5666 58.1689 49.8752C58.1689 50.1839 58.4197 50.4341 58.7291 50.4341Z" fill="#0F1011"/>
<path d="M57.6427 48.7687C57.5742 48.77 57.508 48.7445 57.4581 48.6979C57.4082 48.6512 57.3785 48.5869 57.3753 48.5187C57.3721 48.4505 57.3957 48.3837 57.4411 48.3326C57.4865 48.2815 57.5501 48.2501 57.6183 48.245L59.0958 48.1054C59.1651 48.0997 59.2339 48.1213 59.2874 48.1655C59.341 48.2098 59.375 48.2732 59.3822 48.3422C59.3855 48.3765 59.382 48.4112 59.3719 48.4442C59.3617 48.4772 59.3451 48.5078 59.3231 48.5344C59.301 48.561 59.274 48.583 59.2434 48.5991C59.2128 48.6152 59.1793 48.6252 59.1449 48.6284L57.6678 48.7676L57.6427 48.7687Z" fill="#0F1011"/>
<path d="M64.2637 48.7686C64.2507 48.7686 64.2378 48.7676 64.225 48.7655L62.7383 48.5341C62.7039 48.5291 62.671 48.5173 62.6412 48.4994C62.6115 48.4816 62.5856 48.458 62.565 48.4301C62.5444 48.4023 62.5295 48.3706 62.5213 48.337C62.513 48.3034 62.5115 48.2685 62.5168 48.2342C62.5221 48.2 62.5341 48.1672 62.5521 48.1376C62.5702 48.1081 62.594 48.0824 62.622 48.062C62.6501 48.0416 62.6819 48.027 62.7156 48.0189C62.7494 48.0109 62.7844 48.0096 62.8187 48.015L64.3058 48.2464C64.3708 48.257 64.4294 48.2915 64.4701 48.3431C64.5108 48.3946 64.5307 48.4595 64.5259 48.525C64.521 48.5905 64.4918 48.6517 64.4439 48.6968C64.396 48.7418 64.333 48.7673 64.2672 48.7682L64.2637 48.7686Z" fill="#0F1011"/>
<path d="M63.265 54.2832C63.265 54.2832 61.2223 54.6689 59.7363 54.2832C59.7363 54.2832 59.8589 55.6361 61.5007 55.6361C63.1425 55.6361 63.265 54.2832 63.265 54.2832Z" fill="white"/>
<path d="M67.9463 45.5453C68.2795 56.7967 69.9178 57.8268 69.9178 57.8268C69.9178 57.8268 75.2526 54.0014 75.4316 47.2137C75.6001 40.8503 70.6353 37.5077 67.4295 37.0627C55.2488 35.3727 54.8213 46.3452 54.8213 46.3452C60.9342 47.3907 69.2607 45.6633 69.2607 45.6633" fill="#0F1011"/>
<path d="M66.1789 51.0009C66.1749 51.3146 66.2334 51.6259 66.3509 51.9168C66.4684 52.2077 66.6427 52.4724 66.8636 52.6956C67.0845 52.9189 67.3476 53.0961 67.6377 53.217C67.9278 53.338 68.239 53.4003 68.5534 53.4003C68.8679 53.4003 69.1791 53.338 69.4692 53.217C69.7593 53.0961 70.0224 52.9189 70.2433 52.6956C70.4642 52.4724 70.6385 52.2077 70.756 51.9168C70.8735 51.6259 70.932 51.3146 70.928 51.0009C70.9333 50.6884 70.8756 50.378 70.7581 50.0882C70.6407 49.7984 70.466 49.5351 70.2444 49.3141C70.0229 49.0931 69.759 48.9188 69.4685 48.8016C69.1781 48.6845 68.8669 48.6268 68.5536 48.6322C66.8624 48.7155 66.1789 49.6931 66.1789 51.0009Z" fill="#E98862"/>
<path d="M77.6409 47.2133C80.6312 47.2133 83.0553 44.795 83.0553 41.8117C83.0553 38.8285 80.6312 36.4102 77.6409 36.4102C74.6507 36.4102 72.2266 38.8285 72.2266 41.8117C72.2266 44.795 74.6507 47.2133 77.6409 47.2133Z" fill="#0F1011"/>
<path d="M82.3245 65.9685C80.5578 64.206 77.5077 63.0683 73.7889 63.0645C73.5105 65.228 60.3438 65.2357 60.2433 63.1146C59.7407 63.1223 59.3503 63.13 59.1067 63.1416C50.1703 63.5272 50.1965 70.7114 51.0756 78.6526L43.7222 75.4172L40.3203 83.1112L52.0231 88.2606C52.0309 88.492 52.0363 88.7234 52.0394 88.9548C52.1901 101.473 48.7999 103.834 50.4702 107.659C52.0896 111.373 83.9164 112.916 84.3416 106.383C84.6122 102.225 80.9398 98.5963 80.9398 90.4936C80.9398 82.3908 88.413 72.0427 82.3245 65.9685Z" fill="#FEB062"/>
<path d="M60.2432 63.1146C60.3437 65.2357 61.4995 68.3557 65.0676 68.591C69.8225 68.9034 73.5104 65.228 73.7888 63.0645H73.7772C69.0957 63.0645 62.9735 63.0722 60.2432 63.1146Z" fill="#E98862"/>
<g opacity="0.15">
<path d="M60.9248 53.169C60.9107 53.1689 60.8967 53.1674 60.883 53.1643L59.5053 52.8624C59.4785 52.8565 59.4533 52.845 59.4314 52.8287C59.4094 52.8124 59.3912 52.7916 59.3779 52.7677C59.3645 52.7438 59.3565 52.7174 59.3542 52.6901C59.3519 52.6629 59.3554 52.6355 59.3646 52.6097L60.0867 50.5746C60.105 50.528 60.1408 50.4903 60.1864 50.4696C60.232 50.4488 60.284 50.4465 60.3312 50.4632C60.3785 50.48 60.4174 50.5144 60.4397 50.5592C60.4621 50.604 60.466 50.6557 60.4508 50.7034L59.8018 52.5326L60.9662 52.7879C61.0125 52.7982 61.0535 52.8253 61.0812 52.8638C61.1089 52.9024 61.1214 52.9497 61.1162 52.9969C61.1111 53.044 61.0888 53.0876 61.0534 53.1194C61.0181 53.1511 60.9723 53.1688 60.9248 53.169Z" fill="black"/>
</g>
<path d="M50.7807 223.986C50.5624 223.985 50.3466 223.939 50.1469 223.851C49.9472 223.763 49.7677 223.635 49.6199 223.475C49.472 223.314 49.3588 223.126 49.2874 222.92C49.2161 222.714 49.188 222.496 49.205 222.278C49.2285 221.977 49.3378 221.689 49.5199 221.448C49.702 221.207 49.9494 221.023 50.2329 220.917L59.6816 217.76C59.8647 217.7 60.0588 217.679 60.2505 217.701C60.4421 217.722 60.627 217.784 60.7922 217.883C62.0911 218.783 63.6449 219.242 65.2251 219.195C66.4561 219.107 67.6377 218.677 68.6351 217.952C68.7228 217.88 68.8291 217.835 68.9415 217.821C69.054 217.807 69.1681 217.826 69.2705 217.874C69.3728 217.923 69.4593 217.999 69.5197 218.095C69.5802 218.191 69.6122 218.301 69.612 218.415V223.024C69.612 223.16 69.5851 223.295 69.5328 223.42C69.4805 223.546 69.4038 223.66 69.3073 223.756C69.2107 223.852 69.096 223.928 68.97 223.979C68.8439 224.031 68.7088 224.057 68.5725 224.057L50.7807 223.986Z" fill="#C1D8ED"/>
<path d="M360.991 221.61C368.647 219.242 376.076 216.149 382.844 207.491C384.233 205.717 385.539 203.444 384.777 201.32C384.204 199.722 382.547 198.698 380.863 198.437C380.236 198.346 379.601 198.329 378.969 198.385C378.966 198.385 378.963 198.387 378.962 198.385C377.991 198.484 377.032 198.672 376.096 198.946L375.829 199.023C371.361 200.29 367.106 202.207 363.2 204.713C362.846 204.938 362.426 205.037 362.008 204.994C361.591 204.951 361.2 204.768 360.9 204.475C360.6 204.183 360.408 203.797 360.355 203.382C360.303 202.966 360.392 202.545 360.61 202.187C361.008 201.538 361.472 200.93 361.994 200.375C362.763 199.572 363.606 198.842 364.512 198.196C365.716 197.32 367 196.538 368.256 195.738C372.929 192.77 377.355 189.433 381.493 185.759C384.447 183.134 387.335 180.221 388.739 176.531C389.384 174.834 389.677 172.878 388.908 171.233C387.638 168.534 384.042 167.776 381.101 168.337C375.949 169.321 371.832 173.09 368.181 176.846C365.154 179.967 361.762 183.423 357.413 183.615C356.671 183.684 355.926 183.535 355.269 183.186C354.028 182.436 353.709 180.699 354.151 179.32C354.593 177.941 355.617 176.839 356.604 175.781C362.345 169.636 367.995 163.244 371.723 155.715C375.451 148.186 377.102 139.297 374.511 131.302C373.752 128.965 372.611 126.691 370.83 124.994C369.05 123.296 366.554 122.231 364.11 122.556C360.78 122.994 358.272 125.796 356.585 128.691C350.787 138.624 351.141 150.793 349.508 162.17C349.051 165.356 348.387 168.622 346.485 171.244C346.31 171.496 346.082 171.708 345.818 171.865C344.253 172.769 342.849 170.946 342.261 169.399C339.942 163.279 339.362 156.28 335.209 151.215C333.624 149.286 331.382 147.675 328.883 147.691C325.831 147.712 323.217 150.255 322.327 153.167C321.436 156.08 321.969 159.244 322.923 162.136C324.694 167.499 327.871 172.317 331.61 176.552C333.582 178.789 335.813 181.047 336.404 183.964C336.585 184.956 336.509 185.977 336.183 186.931C335.858 187.886 335.293 188.741 334.542 189.416C334.192 189.72 333.783 189.952 333.341 190.096C332.899 190.24 332.433 190.294 331.97 190.255C330.968 190.163 330.062 189.654 329.186 189.158C328.82 188.95 328.452 188.739 328.082 188.532C326.623 187.703 325.164 186.873 323.706 186.043C319.994 183.932 315.517 181.775 311.654 183.593C309.68 184.522 308.391 186.35 307.783 188.447C307.239 190.35 307.239 192.367 307.783 194.27C308.934 198.228 316.187 209.243 319.18 212.083C322.676 215.398 334.793 229.71 360.991 221.61Z" fill="#8DDBE0"/>
</g>
<defs>
<clipPath id="clip0_593_911">
<rect width="400" height="223.116" fill="white" transform="translate(0 0.942383)"/>
</clipPath>
</defs>
</svg>
