<svg width="257" height="257" viewBox="0 0 257 257" fill="none" xmlns="http://www.w3.org/2000/svg">
<g clip-path="url(#clip0_587_921)">
<path opacity="0.1" d="M128.5 256.499C199.193 256.499 256.501 199.191 256.501 128.499C256.501 57.8066 199.193 0.499023 128.5 0.499023C57.8077 0.499023 0.5 57.8066 0.5 128.499C0.5 199.191 57.8077 256.499 128.5 256.499Z" fill="#FEB062"/>
<path d="M73.1209 90.1044C73.5836 89.5855 74.1441 89.1629 74.7702 88.8606C75.3963 88.5584 76.0758 88.3824 76.7699 88.3427C77.464 88.3031 78.1591 88.4005 78.8156 88.6295C79.472 88.8585 80.077 89.2145 80.5958 89.6773L97.4916 104.747L90.4435 112.649L73.5477 97.5796C73.0288 97.1168 72.6062 96.5563 72.3039 95.9302C72.0016 95.3041 71.8257 94.6245 71.786 93.9304C71.7464 93.2362 71.8439 92.5411 72.0729 91.8846C72.3019 91.2281 72.658 90.6232 73.1209 90.1044Z" fill="white"/>
<path d="M90.4847 113.386L73.2001 97.969C72.63 97.4605 72.1656 96.8448 71.8335 96.1568C71.5013 95.4689 71.308 94.7223 71.2644 93.9596C71.2208 93.1969 71.3278 92.4331 71.5794 91.7118C71.831 90.9905 72.2222 90.3259 72.7307 89.7558C73.2391 89.1856 73.8549 88.7213 74.5429 88.3891C75.2308 88.057 75.9774 87.8636 76.7401 87.82C77.5027 87.7764 78.2665 87.8835 78.9878 88.1351C79.7091 88.3867 80.3738 88.7779 80.9439 89.2863L98.2305 104.704L90.4847 113.386ZM77.0767 88.8559C76.9842 88.8559 76.8914 88.8585 76.7983 88.8637C75.8561 88.9178 74.9511 89.25 74.1978 89.8184C73.4444 90.3868 72.8765 91.1658 72.5658 92.0569C72.2552 92.948 72.2157 93.9113 72.4525 94.8248C72.6893 95.7384 73.1916 96.5612 73.896 97.1892L90.4017 111.911L96.7536 104.789L80.248 90.0677C79.3773 89.2861 78.2482 88.8545 77.0782 88.8559H77.0767Z" fill="#292A2E"/>
<path d="M166.554 112.648L159.506 104.746L176.402 89.677C177.449 88.7423 178.826 88.2623 180.228 88.3424C181.629 88.4225 182.942 89.0562 183.877 90.104V90.104C184.811 91.1519 185.291 92.5281 185.211 93.9299C185.131 95.3318 184.497 96.6444 183.449 97.579L166.554 112.648Z" fill="white"/>
<path d="M166.513 113.386L158.77 104.704L176.056 89.2863C177.207 88.2594 178.719 87.732 180.26 87.82C181.8 87.9081 183.242 88.6044 184.269 89.7558C185.296 90.9072 185.823 92.4193 185.735 93.9596C185.647 95.4999 184.951 96.9421 183.8 97.969L166.513 113.386ZM160.246 104.788L166.598 111.91L183.104 97.1893C183.571 96.7722 183.952 96.2671 184.225 95.7028C184.497 95.1385 184.656 94.5261 184.691 93.9006C184.727 93.275 184.639 92.6485 184.433 92.0569C184.226 91.4653 183.906 90.9201 183.488 90.4525C183.071 89.9849 182.566 89.604 182.002 89.3316C181.438 89.0592 180.825 88.9006 180.2 88.8648C179.574 88.8291 178.948 88.9169 178.356 89.1233C177.764 89.3297 177.219 89.6506 176.752 90.0677L160.246 104.788Z" fill="#292A2E"/>
<path d="M173.592 122.45C177.36 139.14 182.52 149.877 179.951 156.044C178.6 159.285 175.828 162.003 171.24 162.003C164.087 162.003 164.087 153.568 156.934 153.568C149.781 153.568 149.782 162.003 142.629 162.003C135.477 162.003 135.478 153.568 128.326 153.568C121.175 153.568 121.174 162.003 114.022 162.003C106.87 162.003 106.871 153.568 99.719 153.568C92.5674 153.568 92.5681 162.003 85.4173 162.003C81.1715 162.003 78.7714 159.503 77.2493 156.613C73.5914 149.671 82.1166 134.395 85.4173 120.923C89.0643 106.038 88.757 87.4965 89.2463 76.3139C90.1902 54.7488 106.743 37.2295 128.331 37.2295C149.918 37.2295 165.843 54.7855 167.415 76.3139C168.263 87.9199 170.142 107.172 173.592 122.45Z" fill="white"/>
<path d="M171.239 162.531C167.419 162.531 165.521 160.293 163.684 158.126C161.926 156.052 160.266 154.094 156.933 154.094C153.601 154.094 151.943 156.052 150.183 158.126C148.347 160.291 146.449 162.531 142.629 162.531C138.809 162.531 136.911 160.293 135.075 158.126C133.317 156.052 131.657 154.094 128.326 154.094C124.995 154.094 123.335 156.052 121.576 158.126C119.74 160.291 117.842 162.531 114.022 162.531C110.201 162.531 108.303 160.293 106.47 158.128C104.712 156.055 103.052 154.097 99.7206 154.097C96.389 154.097 94.7301 156.055 92.9717 158.128C91.1365 160.293 89.2386 162.534 85.4189 162.534C81.6195 162.534 78.7952 160.679 76.7842 156.862C74.234 152.022 77.2969 143.463 80.5403 134.404C82.1509 129.904 83.8153 125.251 84.907 120.802C87.8237 108.897 88.1929 94.9082 88.4892 83.6675C88.559 81.0089 88.6253 78.4972 88.7232 76.2944C89.191 65.6198 93.4353 55.6849 100.676 48.3188C104.274 44.631 108.577 41.703 113.328 39.7082C118.079 37.7135 123.182 36.6927 128.334 36.7062C133.454 36.6941 138.523 37.7181 143.236 39.7165C147.949 41.715 152.209 44.6466 155.76 48.3348C162.833 55.6174 167.16 65.5422 167.945 76.2792C168.701 86.6321 170.507 106.382 174.11 122.338C175.332 127.75 176.699 132.53 177.906 136.748C180.425 145.555 182.246 151.919 180.44 156.251C179.459 158.596 176.964 162.531 171.239 162.531ZM156.933 153.041C160.754 153.041 162.653 155.28 164.489 157.447C166.247 159.52 167.907 161.478 171.239 161.478C176.353 161.478 178.587 157.948 179.464 155.843C181.127 151.852 179.347 145.637 176.888 137.036C175.679 132.805 174.305 128.01 173.077 122.569C169.459 106.545 167.647 86.7362 166.889 76.3545C165.282 54.3511 148.705 37.7585 128.33 37.7585C107.656 37.7585 90.7194 54.7047 89.7708 76.3389C89.6749 78.5323 89.6086 81.0393 89.5369 83.6932C89.255 94.3884 88.8686 109.036 85.925 121.051C84.822 125.553 83.1467 130.233 81.5271 134.758C78.3644 143.593 75.3771 151.939 77.7113 156.37C79.5227 159.807 82.0418 161.477 85.4131 161.477C88.7442 161.477 90.4036 159.519 92.1619 157.446C93.9971 155.28 95.8951 153.04 99.7147 153.04C103.534 153.04 105.433 155.279 107.268 157.446C109.026 159.519 110.686 161.477 114.018 161.477C117.349 161.477 119.01 159.519 120.768 157.446C122.604 155.28 124.502 153.04 128.322 153.04C132.142 153.04 134.04 155.279 135.876 157.446C137.633 159.519 139.293 161.477 142.625 161.477C145.957 161.477 147.618 159.519 149.376 157.446C151.215 155.282 153.113 153.041 156.933 153.041Z" fill="#292A2E"/>
<path d="M113.644 78.8356C116.037 78.8356 117.976 76.896 117.976 74.5033C117.976 72.1106 116.037 70.1709 113.644 70.1709C111.251 70.1709 109.312 72.1106 109.312 74.5033C109.312 76.896 111.251 78.8356 113.644 78.8356Z" fill="#292A2E"/>
<path d="M143.352 78.8356C145.745 78.8356 147.684 76.896 147.684 74.5033C147.684 72.1106 145.745 70.1709 143.352 70.1709C140.959 70.1709 139.02 72.1106 139.02 74.5033C139.02 76.896 140.959 78.8356 143.352 78.8356Z" fill="#292A2E"/>
<path d="M136.257 86.1963C136.507 86.1957 136.754 86.2508 136.98 86.3577C137.206 86.4646 137.405 86.6205 137.564 86.8141C137.722 87.0077 137.835 87.2342 137.895 87.477C137.954 87.7198 137.959 87.9729 137.909 88.2178C136.98 92.5615 133.12 95.2918 128.498 95.2918C123.877 95.2918 120.017 92.5627 119.088 88.2178C119.038 87.9729 119.043 87.7198 119.102 87.4769C119.162 87.2341 119.275 87.0076 119.433 86.814C119.592 86.6203 119.791 86.4644 120.017 86.3576C120.243 86.2507 120.49 86.1956 120.741 86.1963H136.257Z" fill="white"/>
<path d="M128.498 95.8191C123.519 95.8191 119.531 92.8089 118.573 88.328C118.504 88.009 118.509 87.6787 118.585 87.3616C118.661 87.0444 118.808 86.7485 119.014 86.4955C119.222 86.2375 119.485 86.0295 119.783 85.8868C120.082 85.7441 120.409 85.6703 120.74 85.6709H136.258C136.589 85.6704 136.916 85.7442 137.215 85.8869C137.513 86.0296 137.776 86.2376 137.984 86.4955C138.19 86.7485 138.337 87.0445 138.413 87.3616C138.489 87.6787 138.494 88.0089 138.425 88.328C137.465 92.8089 133.476 95.8191 128.498 95.8191ZM120.74 86.7236C120.566 86.7234 120.394 86.7623 120.237 86.8373C120.08 86.9124 119.942 87.0216 119.833 87.1571C119.726 87.2883 119.65 87.4418 119.61 87.6063C119.57 87.7708 119.568 87.9421 119.603 88.1077C120.454 92.0895 124.029 94.7649 128.497 94.7649C132.966 94.7649 136.541 92.0895 137.392 88.1077C137.427 87.9421 137.425 87.7707 137.385 87.6062C137.345 87.4417 137.269 87.2882 137.162 87.1571C137.053 87.0216 136.915 86.9123 136.758 86.8373C136.601 86.7623 136.429 86.7234 136.255 86.7236H120.74Z" fill="#292A2E"/>
<path d="M230.335 206.058C206.95 236.718 170.036 256.501 128.502 256.501C86.968 256.501 50.054 236.718 26.6689 206.058C53.3641 196.015 89.1553 189.874 128.502 189.874C167.849 189.874 203.638 196.015 230.335 206.058Z" fill="#FEB062"/>
<path d="M241.078 67.5376L175.387 67.2569C175.387 56.2856 181.566 54.1257 188.136 52.3439C194.705 50.5621 197.661 38.5031 209.076 37.8169C215.818 37.4114 219.354 39.1464 222.282 41.3804C222.286 41.3843 222.286 41.3882 222.29 41.3882C229.625 49.2814 235.938 58.067 241.078 67.5376V67.5376Z" fill="white"/>
<path d="M53.6928 149.058L2.18153 149.28C1.30166 143.902 0.767724 138.472 0.583008 133.026C11.8662 131.427 10.7122 122.46 24.1865 123.275C34.1831 123.875 36.7797 134.437 42.5305 135.997C48.2813 137.556 53.6928 139.453 53.6928 149.058Z" fill="white"/>
</g>
<defs>
<clipPath id="clip0_587_921">
<rect width="256" height="256.002" fill="white" transform="translate(0.5 0.499023)"/>
</clipPath>
</defs>
</svg>
